<svg width="50" height="50" viewBox="0 0 50 50" fill="none" xmlns="http://www.w3.org/2000/svg">
<path d="M35.6593 40.3621C37.5154 38.8921 39.0605 37.0684 40.2046 34.9955C42.1366 34.6595 47.5593 36.3115 47.5593 36.3115L48.2499 34.3141C46.1126 33.5675 42.5006 30.8328 41.9873 30.4408C42.4236 28.6338 42.5716 26.7691 42.4259 24.9155C43.8446 23.6555 47.0179 23.0488 47.0179 23.0488L46.6166 20.9861C45.0115 21.2671 43.3753 21.3268 41.7539 21.1634C41.3483 19.8325 40.7876 18.5548 40.0833 17.3555C40.7086 15.5355 44.9459 11.6061 44.9459 11.6061L43.5646 10.0101C41.6979 11.5968 37.1059 13.4168 37.0313 13.4261C35.7655 12.1783 34.3218 11.1245 32.7473 10.2995C32.4113 8.43278 33.4753 5.36211 33.4753 5.36211L31.4779 4.68079C30.9272 6.18533 30.1736 7.60773 29.2379 8.90879C27.7379 8.48039 26.1872 8.25452 24.6273 8.23679C23.3579 6.65946 22.0606 1.17145 22.0606 1.17145L19.9606 1.59143C20.3806 3.7381 19.8766 7.90077 19.7646 8.82477C17.8302 9.33997 15.9945 10.1725 14.3326 11.2888C12.9718 10.5542 11.7571 9.57705 10.7486 8.40478L9.28327 9.82344C10.25 10.9602 11.0686 12.2146 11.7193 13.5568C10.5814 14.7001 9.60471 15.9946 8.8166 17.4021C6.5486 17.4021 1.9006 16.0208 1.9006 16.0208L1.16327 18.0555C3.25422 19.0177 5.22215 20.2273 7.0246 21.6581C6.515 23.5901 6.32899 25.5921 6.47394 27.5848C5.16195 28.379 3.71687 28.9297 2.2086 29.2088L2.63794 31.3088C4.10299 31.0428 5.59586 30.9644 7.0806 31.0755C7.77146 33.5488 8.97695 35.8485 10.6179 37.8235C10.1699 39.9421 7.32327 44.3568 7.32327 44.3568L9.07794 45.5888C10.5421 43.8687 12.2129 42.3352 14.0526 41.0248C15.3633 41.9609 16.795 42.7141 18.3086 43.2648C19.0785 43.5429 19.8677 43.7641 20.6699 43.9275C20.8872 45.4143 20.8431 46.9272 20.5393 48.3981L22.6486 48.7995C22.973 47.2445 23.5068 45.74 24.2353 44.3288C26.7702 44.3596 29.2829 43.8537 31.6086 42.8448C33.3539 44.2821 35.9579 48.4448 35.9579 48.4448L37.8246 47.3715C36.6953 45.3648 35.8179 41.1555 35.6593 40.3621ZM29.8633 9.06744H29.7979H29.8633Z" fill="#EB4559"/>
<g opacity="0.2">
<path opacity="0.2" d="M33.2793 36.6007C32.6539 35.9007 33.4473 34.2488 34.0539 31.8501C34.1473 31.5608 34.2033 31.2341 34.2873 30.9168C34.3713 30.5994 34.4086 30.2541 34.4833 29.9088C34.5766 29.2181 34.6886 28.4901 34.7166 27.7247C34.7969 26.1306 34.6237 24.5328 34.2033 22.9928C33.7374 21.4612 33.0284 20.0154 32.1033 18.7088C31.6866 18.1096 31.2348 17.5365 30.7499 16.9914C30.5166 16.7394 30.2833 16.4781 30.0499 16.2447C29.8166 16.0114 29.5926 15.7781 29.3593 15.5727C27.5579 13.8741 26.0086 12.9034 26.1673 11.9794C26.1947 11.8571 26.2492 11.7424 26.3268 11.6444C26.4043 11.5454 26.5029 11.4652 26.6153 11.4101C26.9528 11.2141 27.3283 11.0937 27.7166 11.0554C29.0432 10.9201 30.383 11.0993 31.6273 11.5781C32.0448 11.7246 32.453 11.8963 32.8499 12.0914C33.2699 12.2874 33.6806 12.5301 34.1099 12.7821C36.199 14.0878 37.9263 15.8985 39.1332 18.0461C40.34 20.1937 40.9877 22.611 41.0166 25.0741C41.0411 26.2799 40.9125 27.4839 40.6339 28.6581C40.3945 29.7015 40.0408 30.7161 39.5793 31.6821C39.3459 32.1208 39.1313 32.5501 38.8793 32.9421C38.6438 33.3164 38.3883 33.6775 38.1139 34.0247C37.3209 35.0962 36.2843 35.9624 35.0899 36.5541C34.7409 36.7277 34.3593 36.8257 33.9699 36.8434C33.8444 36.8518 33.7185 36.8341 33.5999 36.793C33.4812 36.751 33.3721 36.6857 33.2793 36.6007Z" fill="white"/>
</g>
<path d="M23.0313 0.368782C23.1153 0.751446 22.2286 1.25544 21.0619 1.50744C20.7003 1.58958 20.3312 1.63252 19.9606 1.63812C19.3166 1.63812 18.8592 1.52611 18.8032 1.27411C18.7472 1.02211 19.6059 0.387448 20.7726 0.13545C21.9392 -0.116549 22.9566 -0.00454928 23.0313 0.368782Z" fill="#EB4559"/>
<g opacity="0.3">
<path opacity="0.3" d="M20.054 1.63812C20.7708 1.59145 21.4761 1.43465 22.1446 1.17145C22.238 1.55412 22.3499 1.99277 22.4713 2.44078C21.6772 2.45944 20.8855 2.34559 20.1286 2.10479L20.054 1.63812Z" fill="black"/>
</g>
<path d="M11.15 7.26613C11.4113 7.54613 10.9166 8.43279 10.0299 9.24478C9.75704 9.49305 9.46351 9.71798 9.15262 9.91678C8.60195 10.2528 8.13529 10.3741 7.95795 10.1781C7.78062 9.98212 8.20062 9.01147 9.08728 8.2088C9.97395 7.40613 10.926 6.97679 11.15 7.26613Z" fill="#EB4559"/>
<g opacity="0.3">
<path opacity="0.3" d="M9.28326 9.86078C9.91028 9.50145 10.4467 9.00305 10.8513 8.40479C11.1126 8.70345 11.4113 9.02078 11.7846 9.33812C11.1222 9.75531 10.3929 10.0549 9.6286 10.2248L9.28326 9.86078Z" fill="black"/>
</g>
<path d="M1.61127 14.8448C1.97527 14.9661 1.97527 15.9834 1.61127 17.1221C1.49414 17.473 1.34742 17.8137 1.17261 18.1394C0.855273 18.6994 0.50994 19.0728 0.239273 18.9514C-0.0313935 18.8301 -0.124727 17.8128 0.239273 16.6834C0.603273 15.5541 1.23794 14.7234 1.61127 14.8448Z" fill="#EB4559"/>
<g opacity="0.3">
<path opacity="0.3" d="M1.20996 18.0554C1.52963 17.4114 1.747 16.7217 1.85396 16.0114L3.11396 16.3755C2.73344 17.0783 2.23458 17.7092 1.6393 18.2421L1.20996 18.0554Z" fill="black"/>
</g>
<path d="M1.40595 28.3221C1.77928 28.2381 2.29261 29.1155 2.54461 30.2821C2.62852 30.6433 2.67547 31.0129 2.68462 31.3834C2.68462 32.0274 2.57262 32.4941 2.32062 32.5501C2.06862 32.6061 1.38728 31.7475 1.17262 30.5808C0.957949 29.4141 1.02328 28.3875 1.40595 28.3221Z" fill="#EB4559"/>
<g opacity="0.3">
<path opacity="0.3" d="M2.68462 31.2808C2.6877 30.5565 2.52483 29.8416 2.20862 29.1901C2.60062 29.1155 3.02062 29.0128 3.45929 28.8914C3.48673 29.6726 3.3793 30.452 3.14195 31.1968L2.68462 31.2808Z" fill="black"/>
</g>
<path d="M6.12859 44.1888C6.35259 43.8715 7.32326 44.1888 8.31259 44.8328C8.62096 45.0372 8.90853 45.2724 9.17126 45.5328C9.62859 45.9901 9.85259 46.4661 9.70326 46.6248C9.55393 46.7834 8.50859 46.6248 7.51926 45.9901C6.52992 45.3555 5.91392 44.5341 6.12859 44.1888Z" fill="#EB4559"/>
<g opacity="0.3">
<path opacity="0.3" d="M9.10597 45.4861C8.57724 45.0008 7.9758 44.6004 7.3233 44.3008C7.53797 43.9648 7.78063 43.5821 8.01397 43.1901C8.57826 43.7529 9.04502 44.4063 9.3953 45.1221L9.10597 45.4861Z" fill="black"/>
</g>
<path d="M19.4193 48.7528C19.4846 48.3701 20.4926 48.2301 21.6686 48.4354C22.0336 48.5026 22.3926 48.5997 22.7419 48.7248C23.3486 48.9581 23.6752 49.2475 23.6752 49.5088C23.6752 49.7701 22.6019 50.0315 21.4259 49.8261C20.2499 49.6208 19.3539 49.1355 19.4193 48.7528Z" fill="#EB4559"/>
<g opacity="0.3">
<path opacity="0.3" d="M22.6579 48.6968C21.9877 48.4196 21.2632 48.2983 20.5392 48.3421C20.6232 47.9501 20.6792 47.5208 20.7352 47.0728C21.4702 47.3407 22.1526 47.7355 22.7513 48.2395L22.6579 48.6968Z" fill="black"/>
</g>
<path d="M35.4166 49.4155C35.2206 49.0795 35.8833 48.3141 36.9099 47.7075C37.2253 47.5115 37.5599 47.3491 37.9086 47.2221C38.5153 46.9981 39.0006 46.9795 39.1313 47.2221C39.2619 47.4648 38.6553 48.3235 37.6286 48.9395C36.6019 49.5555 35.5753 49.7888 35.4166 49.4155Z" fill="#EB4559"/>
<g opacity="0.3">
<path opacity="0.3" d="M37.7873 47.2501C37.1105 47.5236 36.4806 47.9016 35.9206 48.3701C35.706 48.0341 35.4633 47.6608 35.202 47.2781C35.9497 47.0018 36.7384 46.8534 37.5353 46.8394L37.7873 47.2501Z" fill="black"/>
</g>
<g opacity="0.3">
<path opacity="0.3" d="M16.3019 26.0541C15.8259 27.3701 14.7246 28.1728 13.8473 27.8554C12.9699 27.5381 12.6246 26.2128 13.1006 24.8968C13.5766 23.5808 14.6779 22.7781 15.5646 23.1048C16.4513 23.4314 16.7499 24.7474 16.3019 26.0541Z" fill="black"/>
</g>
<path d="M16.1899 24.4954C15.7139 25.8114 14.6126 26.6141 13.7259 26.2968C12.8392 25.9794 12.5126 24.6448 12.9886 23.3381C13.4646 22.0315 14.5659 21.2195 15.4526 21.5368C16.3392 21.8541 16.6659 23.1794 16.1899 24.4954Z" fill="#EB4559"/>
<g opacity="0.2">
<path opacity="0.2" d="M16.1899 24.4954C15.7139 25.8114 14.6126 26.6141 13.7259 26.2968C12.8392 25.9794 12.5126 24.6448 12.9886 23.3381C13.4646 22.0315 14.5659 21.2195 15.4526 21.5368C16.3392 21.8541 16.6659 23.1794 16.1899 24.4954Z" fill="white"/>
</g>
<g opacity="0.3">
<path opacity="0.3" d="M21.2301 15.4179C22.6132 15.2228 23.628 14.3109 23.4967 13.3823C23.3652 12.4527 22.1375 11.8591 20.7543 12.0541C19.3712 12.2501 18.3564 13.1611 18.4878 14.0907C18.6192 15.0193 19.8469 15.6139 21.2301 15.4179Z" fill="black"/>
</g>
<path d="M20.3526 10.6541C21.7339 10.4675 22.9659 11.0555 23.0966 11.9888C23.2273 12.9221 22.1633 13.8555 20.8286 14.0235C19.4939 14.1915 18.2153 13.6221 18.0846 12.6981C17.9539 11.7741 18.9713 10.8501 20.3526 10.6541Z" fill="#EB4559"/>
<g opacity="0.2">
<path opacity="0.2" d="M20.3526 10.6541C21.7339 10.4675 22.9659 11.0555 23.0966 11.9888C23.2273 12.9221 22.1633 13.8555 20.8286 14.0235C19.4939 14.1915 18.2153 13.6221 18.0846 12.6981C17.9539 11.7741 18.9713 10.8501 20.3526 10.6541Z" fill="white"/>
</g>
<g opacity="0.3">
<path opacity="0.3" d="M18.4206 34.9021C18.3089 35.211 18.1081 35.4798 17.8435 35.6749C17.579 35.869 17.2626 35.981 16.9345 35.9969C16.6063 36.0118 16.2811 35.9288 15.9998 35.7589C15.7186 35.589 15.494 35.3398 15.3544 35.043C15.2149 34.7453 15.1667 34.4131 15.2158 34.0883C15.2649 33.7635 15.4092 33.461 15.6305 33.2174C15.8518 32.9748 16.14 32.803 16.459 32.7246C16.7778 32.6453 17.1129 32.663 17.422 32.7741C17.6281 32.8469 17.8177 32.9608 17.9797 33.1073C18.1417 33.2539 18.273 33.4312 18.3659 33.629C18.4588 33.8278 18.5114 34.0416 18.5209 34.26C18.5303 34.4784 18.4962 34.6968 18.4206 34.9021Z" fill="black"/>
</g>
<path d="M18.7286 34.0621C18.6177 34.3739 18.4166 34.6464 18.1508 34.8433C17.8848 35.0412 17.5664 35.1551 17.2356 35.1709C16.9048 35.1877 16.5768 35.1047 16.293 34.9339C16.0093 34.7631 15.7827 34.512 15.6421 34.2124C15.5013 33.9128 15.453 33.5777 15.5029 33.2501C15.5529 32.9235 15.699 32.6183 15.9228 32.3737C16.1465 32.1292 16.4377 31.9575 16.7595 31.8791C17.0812 31.8007 17.419 31.8203 17.7299 31.9341C17.9353 32.0079 18.1241 32.1217 18.2854 32.2692C18.4467 32.4157 18.5776 32.594 18.6703 32.7909C18.763 32.9888 18.8159 33.2025 18.8259 33.4209C18.8359 33.6393 18.8029 33.8568 18.7286 34.0621Z" fill="#EB4559"/>
<g opacity="0.3">
<path opacity="0.3" d="M18.7286 34.0621C18.6177 34.3739 18.4166 34.6464 18.1508 34.8433C17.8848 35.0412 17.5664 35.1551 17.2356 35.1709C16.9048 35.1877 16.5768 35.1047 16.293 34.9339C16.0093 34.7631 15.7827 34.512 15.6421 34.2124C15.5013 33.9128 15.453 33.5777 15.5029 33.2501C15.5529 32.9235 15.699 32.6183 15.9228 32.3737C16.1465 32.1292 16.4377 31.9575 16.7595 31.8791C17.0812 31.8007 17.419 31.8203 17.7299 31.9341C17.9353 32.0079 18.1241 32.1217 18.2854 32.2692C18.4467 32.4157 18.5776 32.594 18.6703 32.7909C18.763 32.9888 18.8159 33.2025 18.8259 33.4209C18.8359 33.6393 18.8029 33.8568 18.7286 34.0621Z" fill="white"/>
</g>
<g opacity="0.3">
<path opacity="0.3" d="M33.8486 24.7568C33.4899 24.9379 33.086 25.0088 32.6872 24.9612C32.2884 24.9136 31.9124 24.7493 31.6063 24.4889C31.3001 24.2295 31.0773 23.8851 30.9657 23.4996C30.8541 23.1132 30.8586 22.7035 30.9787 22.3199C31.0987 21.9372 31.3291 21.5975 31.6409 21.3445C31.9527 21.0916 32.3322 20.9358 32.732 20.8966C33.1317 20.8583 33.534 20.9376 33.8887 21.1262C34.2432 21.3147 34.5345 21.604 34.726 21.9568C34.8564 22.1976 34.9373 22.4617 34.9637 22.7343C34.9901 23.0068 34.9615 23.2812 34.8797 23.5425C34.7978 23.8039 34.6644 24.0456 34.4873 24.2537C34.3102 24.4628 34.0931 24.6336 33.8486 24.7568Z" fill="black"/>
</g>
<path d="M34.8193 24.2528C34.4606 24.4339 34.0566 24.5048 33.6578 24.4572C33.259 24.4096 32.8831 24.2453 32.5769 23.9859C32.2708 23.7255 32.048 23.3811 31.9364 22.9956C31.8247 22.6092 31.8292 22.1995 31.9494 21.8159C32.0695 21.4332 32.2997 21.0935 32.6115 20.8405C32.9234 20.5876 33.3029 20.4317 33.7026 20.3925C34.1024 20.3543 34.5046 20.4336 34.8593 20.6221C35.2139 20.8107 35.5052 21.1 35.6966 21.4528C35.8284 21.6927 35.9102 21.9577 35.9374 22.2303C35.9645 22.5028 35.9362 22.7781 35.8542 23.0395C35.7723 23.3008 35.6384 23.5435 35.4605 23.7516C35.2827 23.9607 35.0645 24.1306 34.8193 24.2528Z" fill="#EB4559"/>
<g opacity="0.3">
<path opacity="0.3" d="M34.8193 24.2528C34.4606 24.4339 34.0566 24.5048 33.6578 24.4572C33.259 24.4096 32.8831 24.2453 32.5769 23.9859C32.2708 23.7255 32.048 23.3811 31.9364 22.9956C31.8247 22.6092 31.8292 22.1995 31.9494 21.8159C32.0695 21.4332 32.2997 21.0935 32.6115 20.8405C32.9234 20.5876 33.3029 20.4317 33.7026 20.3925C34.1024 20.3543 34.5046 20.4336 34.8593 20.6221C35.2139 20.8107 35.5052 21.1 35.6966 21.4528C35.8284 21.6927 35.9102 21.9577 35.9374 22.2303C35.9645 22.5028 35.9362 22.7781 35.8542 23.0395C35.7723 23.3008 35.6384 23.5435 35.4605 23.7516C35.2827 23.9607 35.0645 24.1306 34.8193 24.2528Z" fill="white"/>
</g>
<g opacity="0.3">
<path opacity="0.3" d="M25.8313 39.3355C25.7089 39.6229 25.481 39.8535 25.1944 39.9776C24.9077 40.1027 24.5842 40.1129 24.2902 40.0065C23.9962 39.9001 23.7541 39.6855 23.6137 39.4064C23.4733 39.1264 23.4452 38.8044 23.5353 38.5048C23.6469 38.2005 23.8742 37.9523 24.1678 37.8141C24.4613 37.676 24.7975 37.6592 25.1033 37.7675C25.4077 37.8785 25.6554 38.1063 25.7919 38.4003C25.9284 38.6952 25.9426 39.0312 25.8313 39.3355Z" fill="black"/>
</g>
<path d="M26.0833 38.7195C26.0009 38.9463 25.8531 39.1441 25.6585 39.2878C25.4639 39.4306 25.2313 39.5128 24.9899 39.524C24.7485 39.5352 24.5093 39.4745 24.3024 39.3494C24.0956 39.2244 23.9303 39.0415 23.8274 38.8231C23.7247 38.6047 23.6889 38.3601 23.7248 38.1212C23.7606 37.8822 23.8665 37.6592 24.0289 37.48C24.1914 37.3017 24.4032 37.1748 24.6376 37.116C24.872 37.0581 25.1185 37.0703 25.346 37.1515C25.6505 37.2635 25.8988 37.4903 26.0368 37.7843C26.175 38.0773 26.1916 38.4133 26.0833 38.7195Z" fill="#EB4559"/>
<g opacity="0.3">
<path opacity="0.3" d="M26.0833 38.7195C26.0009 38.9463 25.8531 39.1441 25.6585 39.2878C25.4639 39.4306 25.2313 39.5128 24.9899 39.524C24.7485 39.5352 24.5093 39.4745 24.3024 39.3494C24.0956 39.2244 23.9303 39.0415 23.8274 38.8231C23.7247 38.6047 23.6889 38.3601 23.7248 38.1212C23.7606 37.8822 23.8665 37.6592 24.0289 37.48C24.1914 37.3017 24.4032 37.1748 24.6376 37.116C24.872 37.0581 25.1185 37.0703 25.346 37.1515C25.6505 37.2635 25.8988 37.4903 26.0368 37.7843C26.175 38.0773 26.1916 38.4133 26.0833 38.7195Z" fill="white"/>
</g>
<path d="M47.8019 37.4688C47.4379 37.3474 47.4473 36.3395 47.8019 35.2195C47.919 34.8713 48.0657 34.5344 48.2406 34.2115C48.5486 33.6608 48.8939 33.3248 49.1739 33.4088C49.4539 33.4928 49.5379 34.5288 49.1739 35.6488C48.8099 36.7688 48.1659 37.5901 47.8019 37.4688Z" fill="#EB4559"/>
<g opacity="0.3">
<path opacity="0.3" d="M48.2033 34.2954C47.8849 34.9301 47.6676 35.6096 47.5593 36.3114L46.3179 35.9568C46.6906 35.254 47.1834 34.623 47.7739 34.0901L48.2033 34.2954Z" fill="black"/>
</g>
<path d="M47.8113 23.9354C47.4379 24.0101 46.9339 23.1421 46.6819 21.9941C46.6027 21.6348 46.5558 21.2698 46.5419 20.9021C46.5419 20.2675 46.6633 19.8101 46.9059 19.7541C47.1486 19.6981 47.7833 20.5475 48.0353 21.6955C48.2873 22.8434 48.1846 23.8514 47.8113 23.9354Z" fill="#EB4559"/>
<g opacity="0.3">
<path opacity="0.3" d="M46.5513 20.9955C46.547 21.7094 46.7066 22.415 47.018 23.0581C46.626 23.1327 46.2153 23.2354 45.7766 23.3568C45.7495 22.5821 45.8569 21.8084 46.094 21.0701L46.5513 20.9955Z" fill="black"/>
</g>
<path d="M46.1033 11.9794C45.814 12.2314 44.946 11.7274 44.1713 10.8408C43.9226 10.5729 43.7035 10.2789 43.518 9.96344C43.1913 9.41277 43.0793 8.95546 43.266 8.78746C43.4526 8.61946 44.4233 9.03946 45.2073 9.92613C45.9913 10.8128 46.3926 11.7274 46.1033 11.9794Z" fill="#EB4559"/>
<g opacity="0.3">
<path opacity="0.3" d="M43.5646 10.0381C43.9505 10.6336 44.4294 11.1628 44.9833 11.6061C44.7033 11.8768 44.3766 12.1848 44.0499 12.5395C43.6396 11.8703 43.349 11.1339 43.1913 10.3648L43.5646 10.0381Z" fill="black"/>
</g>
<path d="M34.7166 5.11015C34.5953 5.47415 33.5873 5.47415 32.4673 5.11015C32.118 5.00001 31.7804 4.85628 31.4593 4.68081C30.8993 4.37281 30.5259 4.02746 30.6473 3.79413C30.7686 3.56079 31.7766 3.43012 32.8966 3.79413C34.0166 4.15813 34.8286 4.74614 34.7166 5.11015Z" fill="#EB4559"/>
<g opacity="0.3">
<path opacity="0.3" d="M31.5432 4.72745C32.1592 5.08771 32.8482 5.30423 33.5592 5.3621C33.4286 5.7261 33.3073 6.13678 33.1953 6.57544C32.5154 6.20864 31.903 5.7289 31.3846 5.15677L31.5432 4.72745Z" fill="black"/>
</g>
<g opacity="0.3">
<path opacity="0.3" d="M31.4873 36.7968C30.4513 37.7301 29.1073 37.9354 28.4726 37.2354C27.8379 36.5354 28.1739 35.2194 29.2006 34.2768C30.2273 33.3341 31.5899 33.1474 32.2246 33.8381C32.8593 34.5288 32.5233 35.8634 31.4873 36.7968Z" fill="black"/>
</g>
<path d="M32.4113 36.4048C31.3753 37.3381 30.0219 37.5341 29.3873 36.8435C28.7526 36.1528 29.0886 34.8181 30.1246 33.8848C31.1606 32.9515 32.5046 32.7461 33.1393 33.4461C33.7739 34.1461 33.4379 35.4621 32.4113 36.4048Z" fill="#EB4559"/>
<g opacity="0.3">
<path opacity="0.3" d="M32.4113 36.4048C31.3753 37.3381 30.0219 37.5341 29.3873 36.8435C28.7526 36.1528 29.0886 34.8181 30.1246 33.8848C31.1606 32.9515 32.5046 32.7461 33.1393 33.4461C33.7739 34.1461 33.4379 35.4621 32.4113 36.4048Z" fill="white"/>
</g>
<g opacity="0.3">
<path opacity="0.3" d="M27.0166 26.6048C26.8467 27.0752 26.5412 27.4849 26.1385 27.7817C25.7359 28.0785 25.2544 28.2493 24.7547 28.2726C24.2551 28.295 23.7597 28.17 23.3314 27.9115C22.9031 27.6529 22.561 27.274 22.3484 26.8213C22.1357 26.3687 22.062 25.8628 22.1367 25.3681C22.2113 24.8734 22.431 24.4124 22.7678 24.0428C23.1046 23.6723 23.5435 23.4109 24.029 23.2905C24.5144 23.1701 25.0248 23.1962 25.4953 23.3661C25.808 23.479 26.0952 23.6517 26.3409 23.8757C26.5865 24.0997 26.7857 24.3695 26.927 24.67C27.0683 24.9705 27.149 25.2963 27.1644 25.6285C27.1797 25.9608 27.1295 26.2921 27.0166 26.6048Z" fill="black"/>
</g>
<path d="M27.5113 25.2234C27.3407 25.6939 27.0344 26.1036 26.6311 26.3995C26.2279 26.6963 25.7458 26.8661 25.2459 26.8885C24.746 26.91 24.2507 26.784 23.8226 26.5245C23.3947 26.2651 23.0533 25.8852 22.8415 25.4316C22.6298 24.978 22.5574 24.4721 22.6334 23.9775C22.7095 23.4828 22.9305 23.0217 23.2685 22.653C23.6066 22.2834 24.0465 22.023 24.5325 21.9045C25.0186 21.785 25.5291 21.813 25.9993 21.9848C26.6289 22.2144 27.1418 22.6838 27.4253 23.2914C27.7088 23.8981 27.7397 24.5934 27.5113 25.2234Z" fill="#EB4559"/>
<g opacity="0.2">
<path opacity="0.2" d="M27.5113 25.2234C27.3407 25.6939 27.0344 26.1036 26.6311 26.3995C26.2279 26.6963 25.7458 26.8661 25.2459 26.8885C24.746 26.91 24.2507 26.784 23.8226 26.5245C23.3947 26.2651 23.0533 25.8852 22.8415 25.4316C22.6298 24.978 22.5574 24.4721 22.6334 23.9775C22.7095 23.4828 22.9305 23.0217 23.2685 22.653C23.6066 22.2834 24.0465 22.023 24.5325 21.9045C25.0186 21.785 25.5291 21.813 25.9993 21.9848C26.6289 22.2144 27.1418 22.6838 27.4253 23.2914C27.7088 23.8981 27.7397 24.5934 27.5113 25.2234Z" fill="white"/>
</g>
<g opacity="0.2">
<path opacity="0.2" d="M28.4633 41.8461C28.4633 42.0608 28.146 42.3501 27.4086 42.6395C26.3821 43.0053 25.3057 43.2135 24.2166 43.2555C23.4503 43.2816 22.6831 43.2527 21.9206 43.1715C19.4377 42.884 17.0506 42.044 14.9348 40.7131C12.819 39.3821 11.0283 37.5948 9.69396 35.4808C9.22272 34.7285 8.80785 33.9426 8.45263 33.1288C8.15993 32.4213 7.91661 31.6952 7.72463 30.9541C7.4296 29.892 7.30668 28.7888 7.36062 27.6875C7.42596 26.9035 7.60329 26.4741 7.81796 26.4461C8.29396 26.4461 8.75129 27.9581 9.88063 30.1794C10.1513 30.7301 10.4873 31.3088 10.814 31.9248C11.1406 32.5408 11.6166 33.1568 12.1113 33.7914C14.1954 36.527 17.0056 38.6224 20.222 39.8395C20.9198 40.0831 21.6302 40.2884 22.35 40.4555C23.0406 40.6328 23.694 40.7915 24.3006 40.8941C26.746 41.3888 28.3793 41.3888 28.4633 41.8461Z" fill="black"/>
</g>
<g opacity="0.2">
<path opacity="0.2" d="M9.71258 20.3421C9.9979 20.4457 10.2466 20.6296 10.428 20.8732C10.6093 21.1158 10.7153 21.407 10.7326 21.7103C10.7501 22.0127 10.6782 22.3142 10.526 22.5765C10.3738 22.8388 10.1478 23.0506 9.8762 23.186C9.6046 23.3213 9.2993 23.3736 8.99821 23.3372C8.69702 23.3008 8.41338 23.1757 8.1822 22.9797C7.9511 22.7828 7.78282 22.5233 7.69817 22.2312C7.61342 21.94 7.61613 21.6301 7.70592 21.3407C7.84209 20.9441 8.1289 20.6165 8.50448 20.4298C8.87996 20.2432 9.31396 20.2114 9.71258 20.3421Z" fill="black"/>
</g>
</svg>
