<svg xmlns="http://www.w3.org/2000/svg" width="76" height="73" fill="none" xmlns:v="https://vecta.io/nano"><path d="M27.634 13.627v6.038h-1.177a2.42 2.42 0 0 0-1.662.659 2.2 2.2 0 0 0-.691 1.585v-5.612a7.37 7.37 0 0 1 3.53-2.67zm24.706 2.67V21.9a2.2 2.2 0 0 0-.691-1.585 2.42 2.42 0 0 0-1.662-.659H48.8v-6.038c1.44.518 2.673 1.452 3.53 2.67z" fill="#40240f"/><path d="M63.153 58.89l.953 3.423h-10.59v-3.367h9.412l.224-.056z" fill="#13969d"/><path d="M60.577 62.314v8.98h-7.06v-8.98h7.06z" fill="#f2c4b2"/><path d="M59.4 45.48l-11.93-3.255-9.248 6.622-9.247-6.622-11.93 3.255-3.765 13.468h9.648v12.346h30.6V58.947h9.412l.224-.056L59.4 45.48zM47.635 67.925h-3.53a2.42 2.42 0 0 1-1.662-.659 2.2 2.2 0 0 1-.691-1.585v-6.734h8.236v6.734a2.2 2.2 0 0 1-.691 1.585 2.42 2.42 0 0 1-1.662.659z" fill="#34c1ad"/><path d="M52.34 21.9v1.56c.001.556-.142 1.103-.418 1.592s-.673.907-1.16 1.213l-1.953 1.246c-3.327-1.444-6.934-2.21-10.59-2.245-3.655.036-7.262.8-10.59 2.245l-1.953-1.246c-.486-.307-.884-.724-1.16-1.213a3.24 3.24 0 0 1-.418-1.592V21.9a2.2 2.2 0 0 1 .691-1.585 2.42 2.42 0 0 1 1.662-.659h1.177v-6.038c3.346-1.342 6.962-1.963 10.59-1.818 3.627-.144 7.242.476 10.59 1.818v6.038h1.176a2.42 2.42 0 0 1 1.662.659 2.2 2.2 0 0 1 .691 1.585z" fill="#f2c4b2"/><path d="M48.81 13.627c-3.346-1.342-6.962-1.963-10.59-1.818-3.627-.145-7.242.476-10.59 1.818-1.44.518-2.673 1.452-3.53 2.67v-5.612c0-2.38.992-4.665 2.757-6.35s4.16-2.63 6.655-2.63h9.412c2.496 0 4.9.946 6.655 2.63s2.757 3.968 2.757 6.35v5.612c-.856-1.22-2.1-2.153-3.53-2.67z" fill="#34c1ad"/><path d="M27.634 15.872v-2.245c-1.44.518-2.673 1.452-3.53 2.67v2.245a7.37 7.37 0 0 1 3.53-2.67zM48.8 13.627v2.245c1.44.518 2.673 1.452 3.53 2.67v-2.245a7.37 7.37 0 0 0-3.53-2.67z" fill="#241408"/><path d="M38.223 14.054c3.627-.144 7.242.476 10.59 1.818v-2.245c-3.346-1.342-6.962-1.963-10.59-1.818-3.627-.144-7.242.476-10.59 1.818v2.245c3.346-1.342 6.962-1.963 10.59-1.818z" fill="#f2a283"/><path d="M49.988 58.947v6.734a2.2 2.2 0 0 1-.691 1.585 2.42 2.42 0 0 1-1.662.659h-3.53a2.42 2.42 0 0 1-1.662-.659 2.2 2.2 0 0 1-.691-1.585v-6.734h8.236zM47.47 42.224l-9.248 6.622-9.247-6.622L33.516 41l4.706 3.367L42.93 41l4.54 1.235zm-4.54-7.88c-1.467.68-3.076 1.032-4.706 1.032a11.21 11.21 0 0 1-4.706-1.032c-1.456-.64-2.742-1.588-3.76-2.77a9.98 9.98 0 0 1-2.122-4.054c3.327-1.444 6.934-2.2 10.6-2.245 3.655.036 7.262.8 10.6 2.245a9.98 9.98 0 0 1-2.122 4.054c-1.02 1.182-2.304 2.128-3.76 2.77z" fill="#13969d"/><path d="M42.93 34.345v6.644l-4.706 3.367-4.706-3.367v-6.644c1.467.68 3.076 1.032 4.706 1.032s3.24-.353 4.706-1.032z" fill="#f2b59d"/><path d="M22.928 62.314h-7.06v8.98h7.06v-8.98z" fill="#f2c4b2"/><path d="M22.928 58.947v3.367H12.34l.94-3.367h9.648z" fill="#13969d"/><path d="M60.577 62.314h-7.06v8.98h3.53v-4.5a2.19 2.19 0 0 1 .69-1.587c.442-.42 1.04-.657 1.664-.657h1.177v-2.245zm-44.707 0h7.06v8.98H19.4v-4.5a2.19 2.19 0 0 0-.69-1.587c-.442-.42-1.04-.657-1.664-.657H15.87v-2.245zm27.06-27.97c-1.467.68-3.076 1.032-4.706 1.032a11.21 11.21 0 0 1-4.706-1.032v6.644l.83.594 8.582-5.457v-1.78z" fill="#f2a283"/><path d="M48.8 20.787v4.5l1.052-.502a2.32 2.32 0 0 0 .95-.828 2.17 2.17 0 0 0 .352-1.18V21.9c0-.298-.124-.583-.345-.794s-.52-.33-.832-.33H48.8zm-21.176 0v4.5l-1.052-.502a2.32 2.32 0 0 1-.95-.828 2.17 2.17 0 0 1-.352-1.18V21.9c0-.298.124-.583.345-.794s.52-.33.832-.33h1.177zm10.59 4.5c.325 0 .588-.502.588-1.122s-.263-1.122-.588-1.122-.588.503-.588 1.122.263 1.122.588 1.122z" fill="#d9896d"/><path d="M41.046 16.284c-.016.005-.033.01-.05.01-.235.04-.415-.316-.415-.56 0-.068.027-1.683 2.353-1.683s2.353 1.615 2.353 1.683a.57.57 0 0 1-.065.285.6.6 0 0 1-.2.221c-.17.1-.338.007-.47-.146-.065-.076-.118-.17-.185-.242-.07-.065-.148-.12-.235-.16a3.54 3.54 0 0 0-.651-.282 1.97 1.97 0 0 0-.923-.027 1.92 1.92 0 0 0-.825.394 2.48 2.48 0 0 1-.687.507zm-5.64 0c.016.005.033.01.05.01.235.04.415-.316.415-.56 0-.068-.027-1.683-2.353-1.683s-2.353 1.615-2.353 1.683a.57.57 0 0 0 .065.285.6.6 0 0 0 .2.221c.17.1.338.007.47-.146.065-.076.118-.17.185-.242.07-.065.148-.12.235-.16a3.54 3.54 0 0 1 .651-.282 1.97 1.97 0 0 1 .923-.027 1.92 1.92 0 0 1 .825.394 2.48 2.48 0 0 0 .687.507zm8.112 7.31c.65 0 1.176-1.005 1.176-2.245s-.527-2.245-1.176-2.245-1.176 1.005-1.176 2.245.527 2.245 1.176 2.245zm-10.59 0c.65 0 1.177-1.005 1.177-2.245s-.527-2.245-1.177-2.245-1.177 1.005-1.177 2.245.527 2.245 1.177 2.245z" fill="#43251a"/><path d="M46.458 8.442H33.516c-.936 0-1.834-.355-2.496-.986a3.29 3.29 0 0 1-1.034-2.381 3.29 3.29 0 0 1 1.034-2.381c.662-.63 1.56-.986 2.496-.986-2.496 0-4.9.946-6.655 2.63s-2.757 3.968-2.757 6.35v5.612c.856-1.22 2.1-2.153 3.53-2.67 3.346-1.342 6.962-1.963 10.59-1.818 3.627-.145 7.242.476 10.59 1.818 1.44.518 2.673 1.452 3.53 2.67v-2.245c0-1.488-.62-2.916-1.723-3.968a6.03 6.03 0 0 0-4.16-1.644z" fill="#21abab"/><path d="M48.81 11.382c-3.346-1.342-6.962-1.963-10.59-1.818-3.627-.145-7.242.476-10.59 1.818-1.44.518-2.673 1.452-3.53 2.67v2.245c.856-1.22 2.1-2.153 3.53-2.67 3.346-1.342 6.962-1.963 10.59-1.818 3.627-.144 7.242.476 10.59 1.818 1.44.518 2.673 1.452 3.53 2.67v-2.245c-.856-1.22-2.1-2.153-3.53-2.67z" fill="#13969d"/><path d="M55.87 61.2v-2.245h-2.353v3.367h10.6l-.313-1.122H55.87zm-35.295 0h-7.922l-.314 1.122h10.6v-3.367h-2.353V61.2z" fill="#107c82"/><path d="M53.517 58.947V51.1a2.41 2.41 0 0 1 1.664.657c.44.42.7.992.7 1.587v5.612h-2.353zm-30.59 0V51.1a2.41 2.41 0 0 0-1.664.657c-.44.42-.7.992-.7 1.587v5.612h2.353z" fill="#21abab"/><path d="M34.827 42.4l.353-.224L33.516 41l-4.54 1.235 9.247 6.622 1.238-.887-4.733-3.763a1.13 1.13 0 0 1-.325-.413c-.073-.16-.106-.334-.096-.508s.062-.344.153-.496.217-.28.37-.378z" fill="#107c82"/><path d="M47.635 67.925h-3.53c-.606-.002-1.188-.227-1.625-.628a2.2 2.2 0 0 1-.719-1.525c-11.07-2.027-18.834-6.826-18.834-12.438v17.957h30.6v-4.49c-1.287 0-2.552-.04-3.798-.107a2.29 2.29 0 0 1-.861.894 2.44 2.44 0 0 1-1.223.335z" fill="#21abab"/><path d="M49.988 58.947h-8.236v2.245h8.236v-2.245zM31.243 26.254a24.09 24.09 0 0 0-3.61 1.267 9.98 9.98 0 0 0 2.122 4.054c1.02 1.182 2.304 2.128 3.76 2.77 1.467.68 3.076 1.032 4.706 1.032a11.21 11.21 0 0 0 4.706-1.032l.235-.122c-6.243-.3-11.253-3.68-11.92-7.97z" fill="#107c82"/><path d="M27.046 42.112v22.04l-3.127.994a.59.59 0 0 0-.291.204c-.072.096-.1.2-.1.33v5.612h1.177v-5.208l2.94-.935 2.94.935v5.208h1.177V65.68c0-.118-.04-.233-.1-.33a.59.59 0 0 0-.291-.204l-3.127-.993v-22.04a2.71 2.71 0 0 1 .86-1.984 3.03 3.03 0 0 1 2.08-.822h2.353v-1.122h-2.353c-1.092 0-2.14.414-2.912 1.15s-1.206 1.736-1.206 2.778zm18.236-3.928H42.93v1.122h2.353c.78 0 1.528.296 2.08.822a2.74 2.74 0 0 1 .86 1.984v16.835H49.4V42.112c0-1.042-.434-2.04-1.206-2.778s-1.82-1.15-2.912-1.15z" fill="#e3e3e3"/></svg>