<svg xmlns="http://www.w3.org/2000/svg" xmlns:xlink="http://www.w3.org/1999/xlink" width="76" height="73" fill="none" xmlns:v="https://vecta.io/nano"><path d="M9.844 55.58l2.353 3.367-5.377 2.93a2.24 2.24 0 0 1-.792.391 2.3 2.3 0 0 1-.89.058 3.71 3.71 0 0 1-1.699-.391 3.52 3.52 0 0 1-1.301-1.113l-.53-.752 8.236-4.5zM2.596 26.848L9.844 21.9v3.367L1.608 30.88v-2.2a2.16 2.16 0 0 1 .261-1.029 2.28 2.28 0 0 1 .727-.8zm63.72-4.948l7.247 4.938a2.28 2.28 0 0 1 .727.8 2.16 2.16 0 0 1 .261 1.029v2.2l-8.236-5.612V21.9zm8.236 38.17l-.53.752a3.52 3.52 0 0 1-1.301 1.113 3.71 3.71 0 0 1-1.699.391 2.3 2.3 0 0 1-.89-.058 2.24 2.24 0 0 1-.793-.391l-5.377-2.93 2.353-3.367 8.236 4.5z" fill="#21abab"/><path d="M19.256 21.9v3.367H9.844V21.9h9.412zM38.08 44.356c10.6 0 15.295-1.122 15.295-1.122v13.468a56.47 56.47 0 0 1-15.295 2.245c-5.185-.046-10.335-.802-15.295-2.245V43.234s4.706 1.122 15.295 1.122zm-25.483 9.652l3.13-1.796 2.353 3.367-5.883 3.367-2.353-3.367 2.753-1.57zm53.72 1.572l-2.353 3.367-5.883-3.367 2.353-3.367 3.13 1.796 2.753 1.57zM59.905 21.9h6.412v3.367h-9.412V21.9h3z" fill="#34c1ad"/><path d="M58.08 55.58l2.412 1.38-.06.1c-4.86 4.085-12.012 7.497-22.354 7.497s-17.495-3.412-22.354-7.497l-.06-.1 2.412-1.38-2.353-3.367-3.13 1.796c-1.676-1.87-3.114-3.923-4.283-6.117a16.93 16.93 0 0 1-2-8.047v-2.222c0-6.308 2.906-8.732 6.67-12.346h6.27V21.9h-3c.6-.685 1.212-1.425 1.824-2.245 3.045-3.983 6.913-7.33 11.365-9.832 1.62-.915 3.47-1.396 5.353-1.392h6.565c1.883-.004 3.733.477 5.353 1.392 4.452 2.503 8.32 5.85 11.365 9.832.612.82 1.224 1.56 1.824 2.245h-3v3.367h6.27c3.765 3.614 6.67 6.038 6.67 12.346v2.222a16.93 16.93 0 0 1-2 8.047 31.03 31.03 0 0 1-4.283 6.117l-3.13-1.796-2.353 3.367zm-4.706 1.122V43.234s-4.706 1.122-15.295 1.122-15.295-1.122-15.295-1.122v13.468a56.55 56.55 0 0 0 15.295 2.245 56.55 56.55 0 0 0 15.295-2.245z" fill="#f5f5f5"/><path d="M72.2 58.786l2.353 1.283V30.89L72.2 29.284v29.502zM3.96 29.284l-2.353 1.604v29.18l2.353-1.283v-29.5z" fill="#107c82"/><path d="M23.76 18.543h1.367c1.545.003 3.04-.532 4.2-1.504l3.918-3.502a5.86 5.86 0 0 1 1.926-1.277c.726-.297 1.507-.45 2.297-.452h1.224c.8.001 1.57.155 2.297.452a5.86 5.86 0 0 1 1.926 1.277c1.094 1.11 2.682 2.48 3.918 3.502 1.162.972 2.655 1.507 4.2 1.504H52.4c.624 0 1.223.237 1.664.658l2.84 2.71h3l-1.824-2.245c-3.045-3.983-6.913-7.33-11.365-9.832-1.62-.915-3.47-1.396-5.353-1.392h-6.565c-1.883-.004-3.733.477-5.353 1.392-4.452 2.503-8.32 5.85-11.365 9.832-.612.82-1.223 1.56-1.824 2.245h3l2.84-2.71c.44-.42 1.04-.658 1.664-.658z" fill="#e3e3e3"/><path d="M51.034 17.42c-1.262 0-2.482-.44-3.43-1.235l-3.84-3.43c-.657-.652-1.445-1.17-2.316-1.526a7.36 7.36 0 0 0-2.757-.543H37.47c-.95.004-1.89.2-2.762.548s-1.66.88-2.318 1.534c-1.176 1.192-2.905 2.657-3.838 3.428-.948.79-2.165 1.226-3.424 1.225h-1.165c-.312 0-.61.118-.832.33s-.345.496-.345.794.124.583.345.794.52.33.832.33h1.165c1.828.003 3.595-.63 4.97-1.778l4-3.573a4.65 4.65 0 0 1 1.536-1.022c.58-.238 1.204-.36 1.835-.36h1.224a4.83 4.83 0 0 1 1.831.357c.58.236 1.1.583 1.535 1.018 1.246 1.265 3.044 2.787 4 3.577 1.377 1.15 3.145 1.784 4.975 1.782H52.2c.312 0 .61-.118.832-.33s.345-.496.345-.794-.124-.583-.345-.794-.52-.33-.832-.33h-1.165z" fill="#d4d4d4"/><path d="M22.786 52.5v4.202c4.96 1.443 10.1 2.2 15.295 2.245 5.185-.046 10.336-.802 15.295-2.245V52.5a52.03 52.03 0 0 1-15.295 1.957A52.03 52.03 0 0 1 22.786 52.5z" fill="#21abab"/><path d="M63.176 25.277h-6.27S65.14 26.4 65.14 38.745c0 7.15-4.588 11.498-11.765 13.755v4.202c-4.96 1.443-10.1 2.2-15.295 2.245-5.185-.046-10.335-.802-15.295-2.245V52.5C15.61 50.243 11.02 45.894 11.02 38.745c0-12.346 8.236-13.468 8.236-13.468h-6.27c-3.765 3.614-6.67 6.038-6.67 12.346v2.222a16.93 16.93 0 0 0 2 8.047c1.17 2.193 2.606 4.247 4.283 6.117l3.13-1.796 2.353 3.367-2.412 1.38.06.1c4.86 4.085 12.012 7.497 22.354 7.497s17.495-3.412 22.354-7.497l.06-.1-2.412-1.38 2.353-3.367 3.13 1.796c1.676-1.87 3.114-3.923 4.283-6.117a16.93 16.93 0 0 0 2-8.047v-2.222c0-6.308-2.906-8.732-6.67-12.346z" fill="#e3e3e3"/><g fill="#f5f5f5"><path d="M29.845 48.846h-1.177v-1.122h-2.353v1.122H25.14V51.1h1.177v1.122h2.353V51.1h1.177v-2.245zM42.787 46.6h-9.412c-.65 0-1.176.502-1.176 1.122s.527 1.122 1.176 1.122h9.412c.65 0 1.177-.502 1.177-1.122s-.527-1.122-1.177-1.122z"/><use xlink:href="#B"/><use xlink:href="#B" y="3.367"/></g><defs ><path id="B" d="M43.963 49.968H32.198c-.65 0-1.177.502-1.177 1.122s.527 1.122 1.177 1.122h11.765c.65 0 1.177-.502 1.177-1.122s-.527-1.122-1.177-1.122z"/></defs></svg>