<svg xmlns="http://www.w3.org/2000/svg" xmlns:xlink="http://www.w3.org/1999/xlink" width="76" height="73" fill="none" xmlns:v="https://vecta.io/nano"><path d="M74.553 7.32H1.608v58.36h72.945V7.32z" fill="#e3e3e3"/><path d="M67.494 24.154H8.667v11.223h58.826V24.154z" fill="#ff5d54"/><path d="M8.667 35.378v17.957h16.47V46.6h42.355V35.378H8.667z" fill="#34c1ad"/><path d="M67.494 46.6H25.14v6.734h42.355V46.6z" fill="#f5f5f5"/><g fill="#21abab"><use xlink:href="#B"/><use xlink:href="#B" x="-16.472"/><path d="M29.845 6.197c0-1.24-1.053-2.245-2.353-2.245S25.14 4.957 25.14 6.197v2.245c0 1.24 1.053 2.245 2.353 2.245s2.353-1.005 2.353-2.245V6.197zm-16.472 0c0-1.24-1.053-2.245-2.353-2.245S8.667 4.957 8.667 6.197v2.245c0 1.24 1.053 2.245 2.353 2.245s2.353-1.005 2.353-2.245V6.197z"/></g><g fill="#f5f5f5"><use xlink:href="#C"/><use xlink:href="#D"/><use xlink:href="#C" x="16.46"/><use xlink:href="#E"/><use xlink:href="#E" x="8.236"/><use xlink:href="#D" x="32.942"/><path d="M58.238 30.004l-.313-.476 9.412-5.612.313.476-9.412 5.612z"/><use xlink:href="#C" y="5.611"/><use xlink:href="#D" y="5.611"/><use xlink:href="#C" x="16.46" y="5.611"/><use xlink:href="#E" y="5.611"/><use xlink:href="#E" x="8.236" y="5.611"/><use xlink:href="#D" x="32.942" y="5.611"/><path d="M58.238 35.616l-.313-.476 9.412-5.612.313.476-9.412 5.612z"/></g><path d="M67.494 23.593H8.667c-.156 0-.306.06-.416.164a.55.55 0 0 0-.172.397v29.18a.55.55 0 0 0 .172.397c.1.105.26.164.416.164h58.826c.156 0 .306-.06.416-.164a.55.55 0 0 0 .172-.397v-29.18a.55.55 0 0 0-.172-.397c-.1-.105-.26-.164-.416-.164zm-.588 5.612H58.67v-4.49h8.236v4.49zM17.49 46.04v-4.49h7.06v4.49h-7.06zm7.06 1.122v5.612h-7.06v-5.612h7.06zm1.177-11.223h7.06v4.49h-7.06v-4.49zm-1.177 4.49h-7.06v-4.49h7.06v4.49zm16.47-5.612h-7.06v-4.49h7.06v4.49zm1.177-4.49h7.06v4.49h-7.06v-4.49zm-9.412 4.49h-7.06v-4.49h7.06v4.49zm1.177 1.122h7.06v4.49h-7.06v-4.49zm8.236 0h7.06v4.49h-7.06v-4.49zm8.236 0h7.06v4.49h-7.06v-4.49zm0-1.122v-4.49h7.06v4.49h-7.06zm0-5.612v-4.49h7.06v4.49h-7.06zm-1.177 0h-7.06v-4.49h7.06v4.49zm-8.236 0h-7.06v-4.49h7.06v4.49zm-8.236 0h-7.06v-4.49h7.06v4.49zm-8.236 0h-7.06v-4.49h7.06v4.49zm0 1.122v4.49h-7.06v-4.49h7.06zm-8.236 4.49h-7.06v-4.49h7.06v4.49zm0 1.122v4.49h-7.06v-4.49h7.06zm0 5.612v4.49h-7.06v-4.49h7.06zm9.412 0h7.06v4.49h-7.06v-4.49zm8.236 0h7.06v4.49h-7.06v-4.49zm8.236 0h7.06v4.49h-7.06v-4.49zm8.236 0h7.06v4.49h-7.06v-4.49zm8.236 0h8.236v4.49H58.67v-4.49zm0-1.122v-4.49h8.236v4.49H58.67zm0-5.612v-4.49h8.236v4.49H58.67zm-42.355-10.1v4.49h-7.06v-4.49h7.06zm-7.06 22.447h7.06v5.612h-7.06v-5.612zm16.47 5.612v-5.612h41.178v5.612H25.727z" fill="#3d3d3d"/><g fill="#13969d"><use xlink:href="#F"/><use xlink:href="#G"/><use xlink:href="#G" x="-21.178"/><use xlink:href="#F" x="-54.12"/></g><path d="M65.14 10.686a2.41 2.41 0 0 1-1.664-.657c-.44-.42-.7-.992-.7-1.587V7.32H61.6v2.245a2.18 2.18 0 0 0 .526 1.405c.338.397.808.672 1.333.78s1.072.04 1.55-.2.862-.6 1.084-1.075c-.303.132-.632.2-.965.202zm-16.47 0a2.41 2.41 0 0 1-1.664-.657c-.44-.42-.7-.992-.7-1.587V7.32H45.14v2.245a2.18 2.18 0 0 0 .526 1.405c.338.397.808.672 1.333.78s1.072.04 1.55-.2.862-.6 1.084-1.075c-.303.132-.632.2-.965.202zm-21.178 0a2.41 2.41 0 0 1-1.664-.657c-.44-.42-.7-.992-.7-1.587V7.32H23.96v2.245a2.18 2.18 0 0 0 .526 1.405c.338.397.808.672 1.333.78s1.072.04 1.55-.2.862-.6 1.084-1.075c-.303.132-.632.2-.965.202zm-16.472 0a2.41 2.41 0 0 1-1.664-.657c-.44-.42-.7-.992-.7-1.587V7.32H7.5v2.245a2.18 2.18 0 0 0 .526 1.405 2.37 2.37 0 0 0 1.333.78c.525.108 1.072.04 1.55-.2s.862-.6 1.084-1.075c-.303.132-.632.2-.965.202z" fill="#bfbfbf"/><path d="M12.197 12.93H7.5v2.245h4.706V12.93zm5.883 3.368H7.5v2.245h10.6v-2.245zm-1.177 3.367H14.55V21.9h2.353v-2.245zm8.237 0h-2.353V21.9h2.353v-2.245zm8.234 0H31.02V21.9h2.353v-2.245zm8.226 0h-2.353V21.9H41.6v-2.245zm8.246 0h-2.353V21.9h2.353v-2.245zm8.234 0h-2.353V21.9h2.353v-2.245zm9.414 0H65.14V21.9h2.353v-2.245z" fill="#13969d"/><path d="M33.963 55.58h-1.177v7.856h1.177V55.58zm7.06 0h-1.177v3.928h-2.353V55.58h-1.176v4.5a.55.55 0 0 0 .172.397c.1.105.26.164.416.164h2.94v2.806h1.177V60.63h1.765v-1.122H41.02V55.58zm8.62 0h-2.15a.57.57 0 0 0-.4.13.52.52 0 0 0-.188.361v6.873a.52.52 0 0 0 .188.361.55.55 0 0 0 .4.13h2.15a3.06 3.06 0 0 0 2.137-.696c.6-.5.95-1.184 1.006-1.928v-2.608c-.056-.744-.418-1.437-1.006-1.928a3.06 3.06 0 0 0-2.137-.696zm1.967 5.232a1.74 1.74 0 0 1-.63 1.206 1.92 1.92 0 0 1-1.337.435H48.08V56.56h1.562c.488-.028.97.128 1.337.436s.595.74.63 1.206v2.608zm6.47-5.232a2.93 2.93 0 0 0-2.037.73c-.55.5-.876 1.17-.904 1.9v5.238h1.176V60.82h3.53v2.618h1.176V58.2c-.028-.72-.353-1.398-.904-1.9a2.93 2.93 0 0 0-2.038-.73zm-1.765 4.2V58.2c0-.447.186-.875.517-1.2a1.81 1.81 0 0 1 1.248-.493 1.81 1.81 0 0 1 1.248.493 1.65 1.65 0 0 1 .517 1.19v1.57h-3.53zm10.6-4.2v1.122c0 .447-.186.875-.517 1.2a1.81 1.81 0 0 1-1.248.493 1.81 1.81 0 0 1-1.248-.493c-.33-.316-.517-.744-.517-1.2V55.58H62.2v1.122c0 .647.234 1.273.663 1.774a2.96 2.96 0 0 0 1.7.974v3.985h1.177V59.45a3.04 3.04 0 0 0 1.7-.974c.44-.5.663-1.128.663-1.774V55.58h-1.177z" fill="#3d3d3d"/><path d="M74.553 65.68H1.608v3.367h72.945V65.68z" fill="#bfbfbf"/><path d="M1.608 65.68v3.367H7.49c0-.595.248-1.166.69-1.587s1.04-.657 1.664-.657h64.71V65.68H1.608z" fill="#a3a3a3"/><defs ><path id="B" d="M67.494 6.197c0-1.24-1.053-2.245-2.353-2.245s-2.353 1.005-2.353 2.245v2.245c0 1.24 1.053 2.245 2.353 2.245s2.353-1.005 2.353-2.245V6.197z"/><path id="C" d="M8.84 29.994l-.344-.456 8.236-5.612.344.456-8.236 5.612z"/><path id="D" d="M17.075 29.994l-.343-.456 8.236-5.612.344.456-8.236 5.612z"/><path id="E" d="M33.546 29.994l-.344-.456 8.236-5.612.343.456-8.236 5.612z"/><path id="F" d="M65.14 7.32V5.075c.002-.383.11-.76.31-1.092-.102-.017-.206-.027-.31-.03-.624 0-1.223.236-1.664.657s-.69.992-.69 1.587v2.245a2.17 2.17 0 0 0 .487 1.374c.318.394.763.675 1.267.8a2.45 2.45 0 0 0 1.516-.109 2.31 2.31 0 0 0 1.127-.973 2.38 2.38 0 0 1-1.459-.74 2.18 2.18 0 0 1-.585-1.474z"/><path id="G" d="M48.67 7.32V5.075c.002-.383.11-.76.31-1.092-.102-.017-.206-.027-.31-.03-.624 0-1.223.236-1.664.657s-.69.992-.69 1.587v2.245a2.17 2.17 0 0 0 .487 1.374c.318.394.764.675 1.267.8a2.45 2.45 0 0 0 1.516-.109 2.31 2.31 0 0 0 1.127-.973 2.38 2.38 0 0 1-1.459-.74 2.18 2.18 0 0 1-.585-1.474z"/></defs></svg>