<svg xmlns="http://www.w3.org/2000/svg" xmlns:xlink="http://www.w3.org/1999/xlink" width="76" height="73" fill="none" xmlns:v="https://vecta.io/nano"><path d="M19.403 16.298h2.42c.312 0 .6-.118.832-.33s.345-.496.345-.794-.124-.583-.345-.794-.52-.33-.832-.33h-4.706a1.21 1.21 0 0 0-.407.079.81.81 0 0 0-.1.042c-.103.047-.198.108-.282.182a.38.38 0 0 0-.05.04 1.15 1.15 0 0 0-.206.267c-.008.016-.01.034-.018.05l-.032.088a1.08 1.08 0 0 0-.068.319c0 .02-.012.038-.012.058v4.5c0 .298.124.583.345.794s.52.33.832.33.6-.118.832-.33.345-.496.345-.794v-.988l9.632 12.863a1.15 1.15 0 0 0 .332.318 1.21 1.21 0 0 0 .436.168 1.22 1.22 0 0 0 .47-.008c.154-.033.3-.095.43-.183s.238-.2.32-.328a1.09 1.09 0 0 0 .16-.422 1.07 1.07 0 0 0-.026-.448 1.1 1.1 0 0 0-.208-.402l-10.44-13.937zm8.523 29.652l-9.632 12.863v-.988c0-.298-.124-.583-.345-.794s-.52-.33-.832-.33-.6.118-.832.33-.345.496-.345.794v4.5c0 .02.01.038.012.058a1.08 1.08 0 0 0 .068.319l.032.087c.007.016.01.034.018.05a1.15 1.15 0 0 0 .206.267c.015.016.034.025.05.04a1.18 1.18 0 0 0 .282.182.98.98 0 0 0 .101.041 1.21 1.21 0 0 0 .407.079h4.706c.312 0 .6-.118.832-.33s.345-.496.345-.794-.124-.583-.345-.794-.52-.33-.832-.33h-2.42L29.84 47.253a1.08 1.08 0 0 0 .174-.823 1.12 1.12 0 0 0-.473-.708 1.22 1.22 0 0 0-.855-.197 1.19 1.19 0 0 0-.759.423zm31.546 10.752c-.312 0-.6.118-.832.33s-.345.496-.345.794v.988l-9.63-12.864a1.15 1.15 0 0 0-.332-.318 1.21 1.21 0 0 0-.436-.169 1.23 1.23 0 0 0-.47.008c-.155.033-.3.095-.43.183s-.238.2-.32.328a1.09 1.09 0 0 0-.16.422c-.023.15-.014.302.026.448a1.08 1.08 0 0 0 .208.402L57.186 61.2h-2.42c-.312 0-.6.118-.832.33s-.345.496-.345.794.124.583.345.794.52.33.832.33h4.706a1.21 1.21 0 0 0 .407-.078.99.99 0 0 0 .101-.042 1.18 1.18 0 0 0 .282-.182c.016-.015.035-.023.05-.04a1.23 1.23 0 0 0 .206-.267c.008-.016.01-.034.018-.05a.82.82 0 0 0 .032-.089 1.03 1.03 0 0 0 .068-.318c0-.02.012-.038.012-.058v-4.5c0-.298-.124-.583-.345-.794s-.52-.33-.832-.33zm1.165-41.585a1.09 1.09 0 0 0-.068-.318.74.74 0 0 0-.032-.089c-.008-.016-.01-.034-.018-.05a1.15 1.15 0 0 0-.206-.267l-.05-.04c-.084-.073-.18-.135-.282-.182l-.1-.042a1.21 1.21 0 0 0-.407-.079h-4.706c-.312 0-.6.118-.832.33s-.345.496-.345.794.124.583.345.794.52.33.832.33h2.42L46.75 30.236c-.097.12-.168.256-.208.402a1.06 1.06 0 0 0-.026.448 1.09 1.09 0 0 0 .16.422 1.11 1.11 0 0 0 .32.328c.13.088.275.15.43.183a1.24 1.24 0 0 0 .47.008 1.21 1.21 0 0 0 .436-.168 1.15 1.15 0 0 0 .332-.318l9.632-12.863v.988c0 .298.124.583.345.794s.52.33.832.33.6-.118.832-.33.345-.496.345-.794v-4.5c0-.02-.01-.038-.012-.058z" fill="#e7544c"/><g fill="#34c1ad"><use xlink:href="#B"/><path d="M7.705 8.442a6.03 6.03 0 0 1 4.16 1.644c1.103 1.052 1.723 2.48 1.723 3.968v5.612a2.2 2.2 0 0 1-.691 1.585 2.42 2.42 0 0 1-1.662.659v6.734a2.2 2.2 0 0 1-.691 1.585 2.42 2.42 0 0 1-1.662.659H6.53a2.42 2.42 0 0 1-1.662-.659 2.2 2.2 0 0 1-.691-1.585V21.9a2.42 2.42 0 0 1-1.662-.659 2.2 2.2 0 0 1-.691-1.585v-5.612c0-1.488.62-2.916 1.723-3.968a6.03 6.03 0 0 1 4.16-1.644z"/><use xlink:href="#C"/><path d="M7.705 48.846a6.03 6.03 0 0 1 4.16 1.644c1.103 1.052 1.723 2.48 1.723 3.968v5.612a2.2 2.2 0 0 1-.691 1.585 2.42 2.42 0 0 1-1.662.659v6.734a2.2 2.2 0 0 1-.691 1.585 2.42 2.42 0 0 1-1.662.659H6.53a2.42 2.42 0 0 1-1.662-.659 2.2 2.2 0 0 1-.691-1.585v-6.734a2.42 2.42 0 0 1-1.662-.659 2.2 2.2 0 0 1-.691-1.585v-5.612c0-1.488.62-2.916 1.723-3.968a6.03 6.03 0 0 1 4.16-1.644zm61.18 0a6.03 6.03 0 0 1 4.16 1.644c1.103 1.052 1.723 2.48 1.723 3.968v5.612a2.2 2.2 0 0 1-.691 1.585 2.42 2.42 0 0 1-1.662.659v6.734a2.2 2.2 0 0 1-.691 1.585 2.42 2.42 0 0 1-1.662.659H67.71a2.42 2.42 0 0 1-1.662-.659 2.2 2.2 0 0 1-.691-1.585v-6.734a2.42 2.42 0 0 1-1.662-.659 2.2 2.2 0 0 1-.691-1.585v-5.612c0-1.488.62-2.916 1.723-3.968a6.03 6.03 0 0 1 4.16-1.644z"/><use xlink:href="#C" x="61.18"/><use xlink:href="#B" x="61.18"/><path d="M68.885 8.442a6.03 6.03 0 0 1 4.16 1.644c1.103 1.052 1.723 2.48 1.723 3.968v5.612a2.2 2.2 0 0 1-.691 1.585 2.42 2.42 0 0 1-1.662.659v6.734a2.2 2.2 0 0 1-.691 1.585 2.42 2.42 0 0 1-1.662.659h-2.353a2.42 2.42 0 0 1-1.662-.659 2.2 2.2 0 0 1-.691-1.585V21.9a2.42 2.42 0 0 1-1.662-.659 2.2 2.2 0 0 1-.691-1.585v-5.612c0-1.488.62-2.916 1.723-3.968a6.03 6.03 0 0 1 4.16-1.644z"/></g><g fill="#21abab"><path d="M5.352 2.83c0-.093.02-.182.028-.274a3.36 3.36 0 0 0-.974 1.336c-.205.515-.274 1.07-.2 1.616a3.27 3.27 0 0 0 .619 1.516 3.48 3.48 0 0 0 1.293 1.061 3.66 3.66 0 0 0 1.664.356 3.65 3.65 0 0 0 1.645-.432c.503-.27.928-.654 1.24-1.118s.497-.994.542-1.543c-.507.43-1.135.712-1.806.8a3.67 3.67 0 0 1-1.977-.258c-.62-.266-1.144-.698-1.512-1.243s-.562-1.18-.56-1.828z"/><path d="M6.53 28.644V21.9a2.42 2.42 0 0 1-1.662-.659 2.2 2.2 0 0 1-.691-1.585v-5.612c0-1.294.468-2.548 1.326-3.55s2.052-1.7 3.38-1.95a6.16 6.16 0 0 0-2.585.05c-.847.2-1.637.576-2.313 1.102a5.66 5.66 0 0 0-1.594 1.942 5.4 5.4 0 0 0-.568 2.406v5.612a2.2 2.2 0 0 0 .691 1.585 2.42 2.42 0 0 0 1.662.659v6.734a2.2 2.2 0 0 0 .691 1.585 2.42 2.42 0 0 0 1.662.659h2.353a2.42 2.42 0 0 1-1.662-.659 2.2 2.2 0 0 1-.691-1.585zm-1.178 14.6c0-.093.02-.182.028-.274a3.36 3.36 0 0 0-.974 1.336 3.2 3.2 0 0 0-.2 1.616 3.27 3.27 0 0 0 .619 1.516 3.48 3.48 0 0 0 1.293 1.061 3.66 3.66 0 0 0 1.664.357 3.65 3.65 0 0 0 1.645-.432c.503-.27.928-.654 1.24-1.12s.497-.994.542-1.543a3.5 3.5 0 0 1-1.806.8 3.67 3.67 0 0 1-1.977-.258 3.47 3.47 0 0 1-1.512-1.243c-.368-.545-.562-1.18-.56-1.828z"/><path d="M6.53 69.048v-6.734a2.42 2.42 0 0 1-1.662-.659 2.2 2.2 0 0 1-.691-1.585v-5.612c0-1.294.468-2.548 1.326-3.55s2.052-1.7 3.38-1.95a6.16 6.16 0 0 0-2.585.05 6 6 0 0 0-2.313 1.102 5.66 5.66 0 0 0-1.594 1.942 5.4 5.4 0 0 0-.568 2.406v5.612a2.2 2.2 0 0 0 .691 1.585 2.42 2.42 0 0 0 1.662.659v6.734a2.2 2.2 0 0 0 .691 1.585 2.42 2.42 0 0 0 1.662.659h2.353a2.42 2.42 0 0 1-1.662-.659 2.2 2.2 0 0 1-.691-1.585zM66.532 2.83c0-.093.02-.182.028-.274a3.36 3.36 0 0 0-.974 1.336 3.2 3.2 0 0 0-.2 1.616 3.27 3.27 0 0 0 .618 1.516 3.48 3.48 0 0 0 1.293 1.061 3.66 3.66 0 0 0 1.664.356 3.65 3.65 0 0 0 1.645-.432c.503-.27.928-.654 1.24-1.118s.497-.994.542-1.543a3.5 3.5 0 0 1-1.806.8 3.67 3.67 0 0 1-1.977-.258 3.47 3.47 0 0 1-1.512-1.243c-.368-.545-.562-1.18-.56-1.828z"/><path d="M67.708 28.644V21.9a2.42 2.42 0 0 1-1.662-.659 2.2 2.2 0 0 1-.691-1.585v-5.612c0-1.294.468-2.548 1.326-3.55s2.052-1.7 3.38-1.95a6.16 6.16 0 0 0-2.585.05c-.847.2-1.637.576-2.313 1.102a5.66 5.66 0 0 0-1.594 1.942c-.374.752-.568 1.574-.567 2.406v5.612a2.2 2.2 0 0 0 .691 1.585 2.42 2.42 0 0 0 1.662.659v6.734a2.2 2.2 0 0 0 .691 1.585 2.42 2.42 0 0 0 1.662.659h2.353a2.42 2.42 0 0 1-1.662-.659 2.2 2.2 0 0 1-.691-1.585zm-1.176 14.6c0-.093.02-.182.028-.274a3.36 3.36 0 0 0-.974 1.336 3.2 3.2 0 0 0-.2 1.616 3.27 3.27 0 0 0 .618 1.516 3.48 3.48 0 0 0 1.293 1.061 3.66 3.66 0 0 0 1.664.357 3.65 3.65 0 0 0 1.645-.432c.503-.27.928-.654 1.24-1.12s.497-.994.542-1.543a3.5 3.5 0 0 1-1.806.8 3.67 3.67 0 0 1-1.977-.258 3.47 3.47 0 0 1-1.512-1.243c-.368-.545-.562-1.18-.56-1.828z"/><path d="M67.708 69.048v-6.734a2.42 2.42 0 0 1-1.662-.659 2.2 2.2 0 0 1-.691-1.585v-5.612c0-1.294.468-2.548 1.326-3.55s2.052-1.69 3.38-1.95a6.16 6.16 0 0 0-2.585.05 6 6 0 0 0-2.313 1.102 5.66 5.66 0 0 0-1.594 1.942c-.374.752-.568 1.574-.567 2.406v5.612a2.2 2.2 0 0 0 .691 1.585 2.42 2.42 0 0 0 1.662.659v6.734a2.2 2.2 0 0 0 .691 1.585 2.42 2.42 0 0 0 1.662.659h2.353a2.42 2.42 0 0 1-1.662-.659 2.2 2.2 0 0 1-.691-1.585z"/></g><path d="M38.295 28.644c2.6 0 4.706-2 4.706-4.5s-2.107-4.5-4.706-4.5-4.706 2-4.706 4.5 2.107 4.5 4.706 4.5zm5.883 7.856v5.612a2.2 2.2 0 0 1-.691 1.585 2.42 2.42 0 0 1-1.662.659V51.1a2.2 2.2 0 0 1-.691 1.585 2.42 2.42 0 0 1-1.662.66H37.12a2.42 2.42 0 0 1-1.662-.66 2.2 2.2 0 0 1-.691-1.585v-6.734a2.42 2.42 0 0 1-1.662-.659 2.2 2.2 0 0 1-.691-1.585V36.5c0-1.488.62-2.916 1.723-3.968a6.03 6.03 0 0 1 4.16-1.644 6.03 6.03 0 0 1 4.16 1.644c1.103 1.052 1.723 2.48 1.723 3.968z" fill="#e7544c"/><path d="M35.942 21.9a4.3 4.3 0 0 1 .422-1.842 4.68 4.68 0 0 0-1.781 1.322 4.39 4.39 0 0 0-.93 1.96 4.29 4.29 0 0 0 .133 2.149c.227.695.627 1.328 1.167 1.843s1.203.897 1.932 1.113a4.92 4.92 0 0 0 2.253.127c.75-.133 1.456-.437 2.056-.888s1.075-1.034 1.386-1.7a4.89 4.89 0 0 1-2.287.391 4.85 4.85 0 0 1-2.203-.703 4.57 4.57 0 0 1-1.58-1.626c-.376-.66-.57-1.4-.568-2.15zm1.176 29.2v-6.734a2.42 2.42 0 0 1-1.662-.659 2.2 2.2 0 0 1-.691-1.585V36.5c0-1.294.468-2.548 1.326-3.55s2.052-1.7 3.38-1.95a6.16 6.16 0 0 0-2.585.05 6 6 0 0 0-2.313 1.102 5.75 5.75 0 0 0-1.594 1.942 5.37 5.37 0 0 0-.568 2.406v5.612a2.2 2.2 0 0 0 .691 1.585 2.42 2.42 0 0 0 1.662.659V51.1a2.2 2.2 0 0 0 .691 1.585 2.42 2.42 0 0 0 1.662.659h2.353a2.42 2.42 0 0 1-1.662-.659 2.2 2.2 0 0 1-.691-1.585z" fill="#c74841"/><defs ><path id="B" d="M7.705 8.442c1.95 0 3.53-1.507 3.53-3.367s-1.58-3.367-3.53-3.367-3.53 1.507-3.53 3.367 1.58 3.367 3.53 3.367z"/><path id="C" d="M7.705 48.846c1.95 0 3.53-1.508 3.53-3.367s-1.58-3.367-3.53-3.367-3.53 1.507-3.53 3.367 1.58 3.367 3.53 3.367z"/></defs></svg>