<svg width="76" height="73" viewBox="0 0 76 73" fill="none" xmlns="http://www.w3.org/2000/svg">
<path d="M19.4034 16.298H21.8235C22.1356 16.298 22.4348 16.1798 22.6555 15.9693C22.8761 15.7588 23.0001 15.4733 23.0001 15.1757C23.0001 14.878 22.8761 14.5925 22.6555 14.3821C22.4348 14.1716 22.1356 14.0533 21.8235 14.0533H17.1174C16.9779 14.056 16.84 14.0826 16.7104 14.1319C16.6758 14.1439 16.6421 14.1578 16.6092 14.1734C16.5063 14.2207 16.4112 14.2819 16.3268 14.3553C16.3092 14.3674 16.2923 14.3805 16.2762 14.3945C16.1943 14.4735 16.125 14.5635 16.0703 14.6616C16.0621 14.6774 16.0597 14.6953 16.0527 14.711C16.0404 14.7396 16.0297 14.7688 16.0209 14.7986C15.9821 14.9011 15.9591 15.0085 15.9527 15.1173C15.9527 15.1375 15.9409 15.1555 15.9409 15.1757V19.665C15.9409 19.9627 16.0649 20.2481 16.2855 20.4586C16.5062 20.6691 16.8054 20.7873 17.1174 20.7873C17.4295 20.7873 17.7287 20.6691 17.9494 20.4586C18.17 20.2481 18.294 19.9627 18.294 19.665V18.6774L27.9262 31.5404C28.0132 31.6665 28.126 31.7746 28.2579 31.8582C28.3897 31.9417 28.5379 31.9991 28.6936 32.0267C28.8492 32.0544 29.0091 32.0517 29.1636 32.0191C29.3181 31.9864 29.4642 31.9243 29.593 31.8365C29.7218 31.7487 29.8307 31.637 29.9131 31.5081C29.9956 31.3792 30.05 31.2357 30.073 31.0863C30.096 30.9369 30.0871 30.7846 30.0469 30.6386C30.0068 30.4925 29.9361 30.3557 29.8392 30.2363L19.4034 16.298Z" fill="#E7544C"/>
<path d="M27.9262 45.9489L18.294 58.812V57.8243C18.294 57.5267 18.17 57.2412 17.9494 57.0307C17.7287 56.8202 17.4295 56.702 17.1174 56.702C16.8054 56.702 16.5062 56.8202 16.2855 57.0307C16.0649 57.2412 15.9409 57.5267 15.9409 57.8243V62.3137C15.9409 62.3339 15.9515 62.3518 15.9527 62.372C15.9591 62.4809 15.9821 62.5882 16.0209 62.6908C16.0299 62.7204 16.0405 62.7497 16.0527 62.7783C16.0597 62.794 16.0621 62.812 16.0703 62.8277C16.125 62.9258 16.1943 63.0158 16.2762 63.0948C16.2915 63.1105 16.3103 63.1195 16.3268 63.1341C16.4112 63.2074 16.5063 63.2687 16.6092 63.3159C16.6421 63.3316 16.6758 63.3454 16.7104 63.3574C16.84 63.4067 16.9779 63.4333 17.1174 63.436H21.8235C22.1356 63.436 22.4348 63.3177 22.6555 63.1073C22.8761 62.8968 23.0001 62.6113 23.0001 62.3137C23.0001 62.016 22.8761 61.7305 22.6555 61.52C22.4348 61.3096 22.1356 61.1913 21.8235 61.1913H19.4034L29.8392 47.2531C30.0065 47.0107 30.0688 46.7159 30.0131 46.4306C29.9574 46.1453 29.788 45.8916 29.5405 45.7229C29.293 45.5541 28.9866 45.4834 28.6856 45.5256C28.3846 45.5677 28.1124 45.7195 27.9262 45.9489Z" fill="#E7544C"/>
<path d="M59.4723 56.7019C59.1603 56.7019 58.8611 56.8202 58.6404 57.0307C58.4198 57.2411 58.2958 57.5266 58.2958 57.8243V58.8119L48.6636 45.9489C48.5766 45.8227 48.4637 45.7147 48.3319 45.6311C48.2 45.5475 48.0518 45.4902 47.8962 45.4626C47.7406 45.4349 47.5807 45.4375 47.4262 45.4702C47.2716 45.5029 47.1256 45.565 46.9968 45.6528C46.868 45.7406 46.7591 45.8523 46.6766 45.9812C46.5942 46.1101 46.5398 46.2535 46.5168 46.4029C46.4938 46.5524 46.5027 46.7046 46.5428 46.8507C46.583 46.9968 46.6537 47.1336 46.7506 47.253L57.1863 61.1913H54.7662C54.4542 61.1913 54.1549 61.3095 53.9343 61.52C53.7137 61.7305 53.5897 62.0159 53.5897 62.3136C53.5897 62.6113 53.7137 62.8967 53.9343 63.1072C54.1549 63.3177 54.4542 63.4359 54.7662 63.4359H59.4723C59.6119 63.4333 59.7498 63.4067 59.8794 63.3574C59.9139 63.3454 59.9477 63.3315 59.9806 63.3158C60.0835 63.2686 60.1786 63.2074 60.263 63.134C60.2794 63.1194 60.2983 63.1105 60.3136 63.0947C60.3954 63.0157 60.4648 62.9258 60.5194 62.8276C60.5277 62.8119 60.53 62.794 60.5371 62.7782C60.5494 62.7493 60.56 62.7197 60.5689 62.6896C60.6083 62.5876 60.6313 62.4805 60.6371 62.372C60.6371 62.3518 60.6489 62.3338 60.6489 62.3136V57.8243C60.6489 57.5266 60.5249 57.2411 60.3043 57.0307C60.0836 56.8202 59.7844 56.7019 59.4723 56.7019Z" fill="#E7544C"/>
<path d="M60.6371 15.1173C60.6313 15.0088 60.6083 14.9017 60.5689 14.7997C60.5602 14.7695 60.5496 14.7399 60.5371 14.711C60.5289 14.6953 60.5277 14.6774 60.5194 14.6616C60.4648 14.5635 60.3954 14.4735 60.3136 14.3945C60.2975 14.3805 60.2806 14.3674 60.263 14.3553C60.1786 14.2819 60.0835 14.2207 59.9806 14.1734C59.9477 14.1588 59.9147 14.1443 59.8794 14.1319C59.7498 14.0826 59.6119 14.056 59.4723 14.0533H54.7662C54.4542 14.0533 54.1549 14.1716 53.9343 14.3821C53.7137 14.5925 53.5897 14.878 53.5897 15.1757C53.5897 15.4733 53.7137 15.7588 53.9343 15.9693C54.1549 16.1798 54.4542 16.298 54.7662 16.298H57.1863L46.7506 30.2363C46.6537 30.3557 46.583 30.4925 46.5428 30.6386C46.5027 30.7846 46.4938 30.9369 46.5168 31.0863C46.5398 31.2357 46.5942 31.3792 46.6766 31.5081C46.7591 31.637 46.868 31.7487 46.9968 31.8365C47.1256 31.9243 47.2716 31.9864 47.4262 32.0191C47.5807 32.0517 47.7406 32.0544 47.8962 32.0267C48.0518 31.9991 48.2 31.9417 48.3319 31.8582C48.4637 31.7746 48.5766 31.6665 48.6636 31.5404L58.2958 18.6774V19.665C58.2958 19.9627 58.4198 20.2481 58.6404 20.4586C58.8611 20.6691 59.1603 20.7873 59.4723 20.7873C59.7844 20.7873 60.0836 20.6691 60.3043 20.4586C60.5249 20.2481 60.6489 19.9627 60.6489 19.665V15.1757C60.6489 15.1555 60.6383 15.1375 60.6371 15.1173Z" fill="#E7544C"/>
<path d="M7.70523 8.44164C9.65456 8.44164 11.2348 6.93418 11.2348 5.07464C11.2348 3.2151 9.65456 1.70764 7.70523 1.70764C5.7559 1.70764 4.17566 3.2151 4.17566 5.07464C4.17566 6.93418 5.7559 8.44164 7.70523 8.44164Z" fill="#34C1AD"/>
<path d="M7.70526 8.44165C9.26543 8.44165 10.7617 9.03288 11.8649 10.0853C12.9681 11.1377 13.5879 12.565 13.5879 14.0533V19.665C13.586 20.2597 13.3375 20.8297 12.8966 21.2502C12.4558 21.6708 11.8583 21.9079 11.2348 21.9096V28.6436C11.233 29.2384 10.9845 29.8083 10.5436 30.2289C10.1027 30.6495 9.50528 30.8865 8.88178 30.8883H6.52873C5.90524 30.8865 5.30781 30.6495 4.86693 30.2289C4.42605 29.8083 4.17754 29.2384 4.17568 28.6436V21.9096C3.55219 21.9079 2.95476 21.6708 2.51388 21.2502C2.073 20.8297 1.82449 20.2597 1.82263 19.665V14.0533C1.82263 12.565 2.44241 11.1377 3.54561 10.0853C4.64882 9.03288 6.14509 8.44165 7.70526 8.44165Z" fill="#34C1AD"/>
<path d="M7.70523 48.8456C9.65456 48.8456 11.2348 47.3381 11.2348 45.4786C11.2348 43.619 9.65456 42.1116 7.70523 42.1116C5.7559 42.1116 4.17566 43.619 4.17566 45.4786C4.17566 47.3381 5.7559 48.8456 7.70523 48.8456Z" fill="#34C1AD"/>
<path d="M7.70526 48.8456C9.26543 48.8456 10.7617 49.4368 11.8649 50.4892C12.9681 51.5416 13.5879 52.9689 13.5879 54.4572V60.0689C13.586 60.6637 13.3375 61.2336 12.8966 61.6542C12.4558 62.0747 11.8583 62.3118 11.2348 62.3136V69.0476C11.233 69.6423 10.9845 70.2122 10.5436 70.6328C10.1027 71.0534 9.50528 71.2905 8.88178 71.2922H6.52873C5.90524 71.2905 5.30781 71.0534 4.86693 70.6328C4.42605 70.2122 4.17754 69.6423 4.17568 69.0476V62.3136C3.55219 62.3118 2.95476 62.0747 2.51388 61.6542C2.073 61.2336 1.82449 60.6637 1.82263 60.0689V54.4572C1.82263 52.9689 2.44241 51.5416 3.54561 50.4892C4.64882 49.4368 6.14509 48.8456 7.70526 48.8456Z" fill="#34C1AD"/>
<path d="M68.8846 48.8456C70.4447 48.8456 71.941 49.4368 73.0442 50.4892C74.1474 51.5416 74.7672 52.9689 74.7672 54.4572V60.0689C74.7653 60.6637 74.5168 61.2336 74.076 61.6542C73.6351 62.0747 73.0376 62.3118 72.4142 62.3136V69.0476C72.4123 69.6423 72.1638 70.2122 71.7229 70.6328C71.282 71.0534 70.6846 71.2905 70.0611 71.2922H67.7081C67.0846 71.2905 66.4871 71.0534 66.0463 70.6328C65.6054 70.2122 65.3569 69.6423 65.355 69.0476V62.3136C64.7315 62.3118 64.1341 62.0747 63.6932 61.6542C63.2523 61.2336 63.0038 60.6637 63.002 60.0689V54.4572C63.002 52.9689 63.6217 51.5416 64.7249 50.4892C65.8281 49.4368 67.3244 48.8456 68.8846 48.8456Z" fill="#34C1AD"/>
<path d="M68.8846 48.8456C70.8339 48.8456 72.4141 47.3381 72.4141 45.4786C72.4141 43.619 70.8339 42.1116 68.8846 42.1116C66.9352 42.1116 65.355 43.619 65.355 45.4786C65.355 47.3381 66.9352 48.8456 68.8846 48.8456Z" fill="#34C1AD"/>
<path d="M68.8846 8.44164C70.8339 8.44164 72.4141 6.93418 72.4141 5.07464C72.4141 3.2151 70.8339 1.70764 68.8846 1.70764C66.9352 1.70764 65.355 3.2151 65.355 5.07464C65.355 6.93418 66.9352 8.44164 68.8846 8.44164Z" fill="#34C1AD"/>
<path d="M68.8846 8.44165C70.4447 8.44165 71.941 9.03288 73.0442 10.0853C74.1474 11.1377 74.7672 12.565 74.7672 14.0533V19.665C74.7653 20.2597 74.5168 20.8297 74.076 21.2502C73.6351 21.6708 73.0376 21.9079 72.4142 21.9096V28.6436C72.4123 29.2384 72.1638 29.8083 71.7229 30.2289C71.282 30.6495 70.6846 30.8865 70.0611 30.8883H67.7081C67.0846 30.8865 66.4871 30.6495 66.0463 30.2289C65.6054 29.8083 65.3569 29.2384 65.355 28.6436V21.9096C64.7315 21.9079 64.1341 21.6708 63.6932 21.2502C63.2523 20.8297 63.0038 20.2597 63.002 19.665V14.0533C63.002 12.565 63.6217 11.1377 64.7249 10.0853C65.8281 9.03288 67.3244 8.44165 68.8846 8.44165Z" fill="#34C1AD"/>
<path d="M5.35221 2.83C5.35221 2.73685 5.37338 2.64818 5.38044 2.55615C4.94594 2.91852 4.6115 3.37724 4.40657 3.89192C4.20164 4.4066 4.13251 4.96146 4.20527 5.50762C4.27803 6.05378 4.49045 6.5745 4.82382 7.02393C5.15719 7.47335 5.60128 7.83769 6.11699 8.08486C6.6327 8.33203 7.20421 8.45445 7.78118 8.44134C8.35816 8.42822 8.92291 8.27998 9.42569 8.00967C9.92848 7.73935 10.3539 7.35526 10.6644 6.8912C10.975 6.42714 11.1612 5.89737 11.2066 5.34852C10.6992 5.77924 10.0719 6.06058 9.40049 6.15854C8.72908 6.2565 8.04231 6.16689 7.42314 5.90053C6.80398 5.63417 6.27892 5.20246 5.91142 4.65757C5.54391 4.11268 5.34969 3.47792 5.35221 2.83Z" fill="#21ABAB"/>
<path d="M6.52873 28.6436V21.9096C5.90524 21.9078 5.30781 21.6707 4.86693 21.2502C4.42605 20.8296 4.17754 20.2597 4.17568 19.6649V14.0532C4.1754 12.7596 4.64368 11.5056 5.50126 10.5034C6.35885 9.50126 7.55306 8.81254 8.88178 8.55381C8.02699 8.38736 7.1441 8.40437 6.29705 8.60359C5.45 8.80281 4.66001 9.17927 3.98429 9.70568C3.30858 10.2321 2.76407 10.8953 2.39019 11.6472C2.01632 12.3992 1.82245 13.221 1.82263 14.0532V19.6649C1.82449 20.2597 2.073 20.8296 2.51388 21.2502C2.95476 21.6707 3.55219 21.9078 4.17568 21.9096V28.6436C4.17754 29.2383 4.42605 29.8082 4.86693 30.2288C5.30781 30.6494 5.90524 30.8864 6.52873 30.8882H8.88178C8.25829 30.8864 7.66086 30.6494 7.21998 30.2288C6.7791 29.8082 6.53059 29.2383 6.52873 28.6436Z" fill="#21ABAB"/>
<path d="M5.35221 43.2339C5.35221 43.1408 5.37338 43.0521 5.38044 42.9601C4.94594 43.3224 4.6115 43.7812 4.40657 44.2959C4.20164 44.8105 4.13251 45.3654 4.20527 45.9115C4.27803 46.4577 4.49045 46.9784 4.82382 47.4279C5.15719 47.8773 5.60128 48.2416 6.11699 48.4888C6.6327 48.736 7.20421 48.8584 7.78118 48.8453C8.35816 48.8322 8.92291 48.6839 9.42569 48.4136C9.92848 48.1433 10.3539 47.7592 10.6644 47.2951C10.975 46.8311 11.1612 46.3013 11.2066 45.7524C10.6992 46.1832 10.0719 46.4645 9.40049 46.5625C8.72908 46.6604 8.04231 46.5708 7.42314 46.3045C6.80398 46.0381 6.27892 45.6064 5.91142 45.0615C5.54391 44.5166 5.34969 43.8819 5.35221 43.2339Z" fill="#21ABAB"/>
<path d="M6.52873 69.0476V62.3136C5.90524 62.3118 5.30781 62.0748 4.86693 61.6542C4.42605 61.2336 4.17754 60.6637 4.17568 60.069V54.4573C4.1754 53.1636 4.64368 51.9096 5.50126 50.9075C6.35885 49.9053 7.55306 49.2166 8.88178 48.9579C8.02699 48.7914 7.1441 48.8084 6.29705 49.0076C5.45 49.2069 4.66001 49.5833 3.98429 50.1097C3.30858 50.6361 2.76407 51.2993 2.39019 52.0513C2.01632 52.8032 1.82245 53.6251 1.82263 54.4573V60.069C1.82449 60.6637 2.073 61.2336 2.51388 61.6542C2.95476 62.0748 3.55219 62.3118 4.17568 62.3136V69.0476C4.17754 69.6424 4.42605 70.2123 4.86693 70.6329C5.30781 71.0534 5.90524 71.2905 6.52873 71.2923H8.88178C8.25829 71.2905 7.66086 71.0534 7.21998 70.6329C6.7791 70.2123 6.53059 69.6424 6.52873 69.0476Z" fill="#21ABAB"/>
<path d="M66.5315 2.83C66.5315 2.73685 66.5527 2.64818 66.5598 2.55615C66.1253 2.91852 65.7908 3.37724 65.5859 3.89192C65.381 4.4066 65.3118 4.96146 65.3846 5.50762C65.4574 6.05378 65.6698 6.5745 66.0031 7.02393C66.3365 7.47335 66.7806 7.83769 67.2963 8.08486C67.812 8.33203 68.3835 8.45445 68.9605 8.44134C69.5375 8.42822 70.1022 8.27998 70.605 8.00967C71.1078 7.73935 71.5332 7.35526 71.8438 6.8912C72.1543 6.42714 72.3405 5.89737 72.3859 5.34852C71.8785 5.77924 71.2512 6.06058 70.5798 6.15854C69.9084 6.2565 69.2216 6.16689 68.6025 5.90053C67.9833 5.63417 67.4582 5.20246 67.0907 4.65757C66.7232 4.11268 66.529 3.47792 66.5315 2.83Z" fill="#21ABAB"/>
<path d="M67.7081 28.6436V21.9096C67.0846 21.9078 66.4871 21.6707 66.0463 21.2502C65.6054 20.8296 65.3569 20.2597 65.355 19.6649V14.0532C65.3547 12.7596 65.823 11.5056 66.6806 10.5034C67.5382 9.50126 68.7324 8.81254 70.0611 8.55381C69.2063 8.38736 68.3234 8.40437 67.4764 8.60359C66.6293 8.80281 65.8393 9.17927 65.1636 9.70568C64.4879 10.2321 63.9434 10.8953 63.5695 11.6472C63.1956 12.3992 63.0018 13.221 63.002 14.0532V19.6649C63.0038 20.2597 63.2523 20.8296 63.6932 21.2502C64.1341 21.6707 64.7315 21.9078 65.355 21.9096V28.6436C65.3569 29.2383 65.6054 29.8082 66.0463 30.2288C66.4871 30.6494 67.0846 30.8864 67.7081 30.8882H70.0611C69.4376 30.8864 68.8402 30.6494 68.3993 30.2288C67.9584 29.8082 67.7099 29.2383 67.7081 28.6436Z" fill="#21ABAB"/>
<path d="M66.5315 43.2339C66.5315 43.1408 66.5527 43.0521 66.5598 42.9601C66.1253 43.3224 65.7908 43.7812 65.5859 44.2959C65.381 44.8105 65.3118 45.3654 65.3846 45.9115C65.4574 46.4577 65.6698 46.9784 66.0031 47.4279C66.3365 47.8773 66.7806 48.2416 67.2963 48.4888C67.812 48.736 68.3835 48.8584 68.9605 48.8453C69.5375 48.8322 70.1022 48.6839 70.605 48.4136C71.1078 48.1433 71.5332 47.7592 71.8438 47.2951C72.1543 46.8311 72.3405 46.3013 72.3859 45.7524C71.8785 46.1832 71.2512 46.4645 70.5798 46.5625C69.9084 46.6604 69.2216 46.5708 68.6025 46.3045C67.9833 46.0381 67.4582 45.6064 67.0907 45.0615C66.7232 44.5166 66.529 43.8819 66.5315 43.2339Z" fill="#21ABAB"/>
<path d="M67.7081 69.0476V62.3136C67.0846 62.3118 66.4871 62.0748 66.0463 61.6542C65.6054 61.2336 65.3569 60.6637 65.355 60.069V54.4573C65.3547 53.1636 65.823 51.9096 66.6806 50.9075C67.5382 49.9053 68.7324 49.2166 70.0611 48.9579C69.2063 48.7914 68.3234 48.8084 67.4764 49.0076C66.6293 49.2069 65.8393 49.5833 65.1636 50.1097C64.4879 50.6361 63.9434 51.2993 63.5695 52.0513C63.1956 52.8032 63.0018 53.6251 63.002 54.4573V60.069C63.0038 60.6637 63.2523 61.2336 63.6932 61.6542C64.1341 62.0748 64.7315 62.3118 65.355 62.3136V69.0476C65.3569 69.6424 65.6054 70.2123 66.0463 70.6329C66.4871 71.0534 67.0846 71.2905 67.7081 71.2923H70.0611C69.4376 71.2905 68.8402 71.0534 68.3993 70.6329C67.9584 70.2123 67.7099 69.6424 67.7081 69.0476Z" fill="#21ABAB"/>
<path d="M38.2949 28.6436C40.894 28.6436 43.001 26.6336 43.001 24.1542C43.001 21.6749 40.894 19.6649 38.2949 19.6649C35.6958 19.6649 33.5888 21.6749 33.5888 24.1542C33.5888 26.6336 35.6958 28.6436 38.2949 28.6436Z" fill="#E7544C"/>
<path d="M44.1775 36.5V42.1116C44.1757 42.7064 43.9272 43.2763 43.4863 43.6969C43.0454 44.1175 42.448 44.3545 41.8245 44.3563V51.0903C41.8226 51.6851 41.5741 52.255 41.1332 52.6755C40.6924 53.0961 40.0949 53.3332 39.4714 53.335H37.1184C36.4949 53.3332 35.8975 53.0961 35.4566 52.6755C35.0157 52.255 34.7672 51.6851 34.7653 51.0903V44.3563C34.1418 44.3545 33.5444 44.1175 33.1035 43.6969C32.6627 43.2763 32.4142 42.7064 32.4123 42.1116V36.5C32.4123 35.0117 33.0321 33.5843 34.1353 32.5319C35.2385 31.4795 36.7347 30.8883 38.2949 30.8883C39.8551 30.8883 41.3514 31.4795 42.4546 32.5319C43.5578 33.5843 44.1775 35.0117 44.1775 36.5Z" fill="#E7544C"/>
<path d="M35.9418 21.9096C35.9438 21.274 36.0878 20.6462 36.3642 20.0679C35.667 20.3643 35.0559 20.8181 34.5835 21.3901C34.1111 21.9621 33.7917 22.6351 33.6527 23.3511C33.5138 24.0671 33.5595 24.8046 33.7859 25.5C34.0124 26.1954 34.4127 26.8278 34.9525 27.3427C35.4922 27.8576 36.1552 28.2395 36.8842 28.4555C37.6131 28.6716 38.3862 28.7152 39.1368 28.5826C39.8874 28.4501 40.5929 28.1454 41.1925 27.6947C41.7921 27.2441 42.2678 26.6611 42.5786 25.996C41.8628 26.3073 41.0765 26.4419 40.2919 26.3874C39.5073 26.3329 38.7497 26.0911 38.0888 25.6841C37.4279 25.2772 36.8848 24.7182 36.5096 24.0586C36.1345 23.399 35.9392 22.66 35.9418 21.9096Z" fill="#C74841"/>
<path d="M37.1184 51.0902V44.3562C36.4949 44.3544 35.8975 44.1174 35.4566 43.6968C35.0157 43.2762 34.7672 42.7063 34.7653 42.1116V36.4999C34.7651 35.2062 35.2333 33.9522 36.0909 32.9501C36.9485 31.9479 38.1427 31.2592 39.4714 31.0005C38.6167 30.834 37.7338 30.851 36.8867 31.0502C36.0397 31.2495 35.2497 31.6259 34.574 32.1523C33.8982 32.6787 33.3537 33.3419 32.9799 34.0939C32.606 34.8458 32.4121 35.6677 32.4123 36.4999V42.1116C32.4142 42.7063 32.6627 43.2762 33.1035 43.6968C33.5444 44.1174 34.1418 44.3544 34.7653 44.3562V51.0902C34.7672 51.685 35.0157 52.2549 35.4566 52.6755C35.8975 53.096 36.4949 53.3331 37.1184 53.3349H39.4714C38.8479 53.3331 38.2505 53.096 37.8096 52.6755C37.3688 52.2549 37.1203 51.685 37.1184 51.0902Z" fill="#C74841"/>
</svg>
