<svg xmlns="http://www.w3.org/2000/svg" xmlns:xlink="http://www.w3.org/1999/xlink" width="550" height="550" fill="none" xmlns:v="https://vecta.io/nano"><style><![CDATA[.B{fill:#263238}.C{fill:#eb996e}.D{fill:#ffbe9d}.E{fill:#279ebb}.F{fill:#455a64}.G{fill:#ec4c60}]]></style><path d="M55.88 265.034s-12.265 1.925-4.873 28.732S64.493 334.4 64.493 334.4s1.034 6.083-3.883 5.973-15.015-3.905-18.326 1.452c-3.42 5.566-.22 12.1 7.612 18.942S74.35 383.053 75.9 384.46s2.618 4.345-.737 4.818-27.4-1.914-27.863 9.537 24.497 26.807 27.192 28.534 3.135 3.124 2.563 4.675-8.547 0-15.4-.396-14.86.34-14.564 6.963 13.54 23.1 51.535 34.925l17.974 4.312 12.99-13.255c26.06-30.052 28.6-51.073 25.3-56.86s-10.44-2.2-16.05 1.76-11.56 9.493-12.87 8.47-1.66-2.43-.286-5.324 14.465-29.106 8.04-38.588-25.53 5.192-28.6 6.6-3.685-1.76-3.168-3.707l9.515-33.858c3.07-9.91 2.32-17.193-3.53-20.108-5.643-2.86-12.243 5.72-16.324 8.404s-6.457-3.036-6.457-3.036-2.1-14.916-9.9-41.58S55.638 265.1 55.638 265.1" fill-opacity=".38" class="E"/><g fill="#e0e0e0"><path d="M116.666 482.273L93.06 397.628l-21.55-76.802-8.46-29.557-.462-1.65-.132-.572s.077.187.187.55l.517 1.64 1.903 6.28 6.842 23.2L93.6 397.474l23.44 84.7"/><path d="M56.2 347.677c.416.164.814.37 1.188.616l3.113 1.87c2.607 1.617 6.16 3.938 10.02 6.6l9.9 6.787 3.003 2.035a6.25 6.25 0 0 1 1.1.792c-.42-.153-.818-.356-1.188-.605-.748-.418-1.815-1.1-3.113-1.88-2.596-1.64-6.105-4.015-9.977-6.6l-12.914-8.724a5.53 5.53 0 0 1-1.133-.88zm29.754 17.765c-.132-.077 4.334-7.6 9.988-16.808s10.33-16.588 10.472-16.5-4.334 7.6-9.988 16.808l-10.472 16.5zM96.7 412.115c.3-.354.614-.678.968-.968l2.75-2.486c2.3-2.112 5.5-5.027 8.888-8.382s6.38-6.48 8.514-8.8l2.54-2.706a6.16 6.16 0 0 1 .98-.957c-.232.394-.505.762-.814 1.1a89.86 89.86 0 0 1-2.398 2.838c-2.068 2.354-5.005 5.5-8.415 8.9s-6.6 6.248-9.03 8.272l-2.87 2.365c-.334.32-.707.598-1.1.825zm-30.447-10.142a4.57 4.57 0 0 1 1.232.275l3.3.957 10.8 3.3c4.2 1.287 8.008 2.596 10.747 3.52l3.234 1.1a5.41 5.41 0 0 1 1.166.484 6.02 6.02 0 0 1-1.243-.209l-3.3-.957-10.802-3.355-10.736-3.5-3.3-1.1a5.45 5.45 0 0 1-1.09-.506zM70.5 444.4a8.72 8.72 0 0 1 1.562.363l4.224 1.2 13.87 4.2 13.827 4.4 4.17 1.375a9.66 9.66 0 0 1 1.507.583 9.99 9.99 0 0 1-1.573-.363l-4.224-1.2-13.87-4.2-13.827-4.4-4.17-1.375c-.516-.147-1.017-.342-1.496-.583z"/><path d="M108.812 455.906a10.06 10.06 0 0 1 1.188-1.254l3.377-3.3 10.934-11 10.56-11.363 3.146-3.498a9.21 9.21 0 0 1 1.21-1.232c-.305.5-.65.955-1.034 1.386l-3.014 3.608c-2.585 3.025-6.248 7.128-10.45 11.495s-8.162 8.184-11.077 10.9l-3.498 3.157a10.35 10.35 0 0 1-1.342 1.111zm163.174-227.513c-.65-.014-1.288-.172-1.87-.462a4.38 4.38 0 0 1 1.903-.23c1.1 0 1.892.187 1.87.45s-.87.363-1.903.242zm-1.826 3.62c-.704-.76-1.22-1.463-1.1-1.54s.814.374 1.617 1.045 1.32 1.353 1.1 1.55-.902-.286-1.617-1.056zm-3.73 1.618a4.41 4.41 0 0 1 .12-1.925 4.39 4.39 0 0 1 .561 1.848c.198 1.023.143 1.892-.12 1.914s-.517-.792-.56-1.837zm-3.893-1.167c.638-.825 1.232-1.452 1.33-1.386a4.52 4.52 0 0 1-.76 1.77c-.506.913-1.1 1.53-1.32 1.386s.1-.935.748-1.77zm-2.233-3.388c.615-.2 1.268-.282 1.914-.2a4.59 4.59 0 0 1-1.716.87c-.98.374-1.837.473-1.914.22s.693-.65 1.716-.88zm.462-4.037c.935.484 1.65.957 1.606 1.1-.65-.01-1.3-.155-1.88-.43-.98-.352-1.705-.825-1.595-1.1s.946-.044 1.87.43zm2.948-2.838a4.49 4.49 0 0 1 .55 1.848c-.1.055-.627-.638-1.166-1.54s-.78-1.716-.54-1.837.748.616 1.155 1.53zm4.06-.198c-.308 1-.65 1.793-.77 1.76a4.68 4.68 0 0 1 .099-1.914c.165-1.034.506-1.826.77-1.77s.2.924-.1 1.925zm3.267 2.398c-.88.572-1.65.957-1.727.858s.517-.726 1.3-1.408 1.562-1.1 1.727-.858-.43.858-1.3 1.408zm57.233-110.87c-2.497-.32-4.52-.814-4.5-1.1s2.1-.54 4.6-.56 4.532.462 4.5 1.1-2.1.87-4.598.56zm-4.39 8.735c-1.705-1.848-2.948-3.52-2.75-3.73s1.947.924 3.894 2.52 3.18 3.3 2.74 3.73-2.167-.67-3.883-2.52zm-8.987 3.883c-.12-2.52 0-4.587.297-4.62s.902 1.947 1.364 4.4.32 4.543-.308 4.62-1.232-1.848-1.353-4.4zm-9.372-2.805c1.518-2.002 2.96-3.5 3.2-3.3s-.572 2.057-1.826 4.257-2.673 3.696-3.2 3.3.297-2.2 1.826-4.257zm-5.4-8.163c2.464-.55 4.532-.78 4.6-.517s-1.77 1.22-4.125 2.112-4.4 1.1-4.6.517 1.672-1.55 4.125-2.112zm1.122-9.723c2.2 1.1 3.982 2.3 3.86 2.574s-2.134-.2-4.5-1.045-4.114-1.98-3.86-2.563 2.277-.1 4.5 1.034zm7.106-6.72c.98 2.32 1.573 4.312 1.32 4.4s-1.507-1.53-2.805-3.696-1.87-4.158-1.3-4.4 1.815 1.375 2.794 3.696zm9.78-.594c-.748 2.4-1.573 4.323-1.86 4.257s-.165-2.2.23-4.63 1.232-4.4 1.848-4.246.517 2.178-.22 4.62zm7.854 5.83c-2.112 1.375-3.97 2.3-4.147 2.068s1.243-1.75 3.146-3.4 3.773-2.574 4.147-2.068-1.034 2.035-3.146 3.4zM488.158 230.34c-1.026-.025-2.035-.268-2.96-.715 0-.198 1.364-.363 3.014-.374s2.98.297 2.948.715-1.375.572-3.003.374zm-2.882 5.72c-1.1-1.2-1.925-2.3-1.793-2.442s1.265.605 2.54 1.65 2.1 2.2 1.804 2.442-1.43-.44-2.552-1.65zm-5.886 2.54a7.09 7.09 0 0 1 .198-3.025 7.18 7.18 0 0 1 .891 2.904c.297 1.617.2 2.98-.198 3.025s-.814-1.254-.9-2.904zm-6.137-1.825c1-1.32 1.936-2.3 2.1-2.2a6.98 6.98 0 0 1-1.188 2.794c-.803 1.44-1.75 2.42-2.1 2.2s.187-1.485 1.188-2.794zm-3.553-5.357c.97-.325 1.998-.437 3.014-.33a7.18 7.18 0 0 1-2.695 1.375c-1.55.583-2.904.737-3.025.34s1.122-1.012 2.706-1.386zm.76-6.368c.95.382 1.8.955 2.53 1.683a7 7 0 0 1-2.959-.682c-1.562-.54-2.695-1.298-2.53-1.683s1.496-.066 2.96.682zm4.652-4.4a7.22 7.22 0 0 1 .858 2.904c-.165.088-1-1-1.826-2.42s-1.232-2.717-.87-2.904 1.2.902 1.837 2.42zm6.402-.386a7.34 7.34 0 0 1-1.2 2.783c-.175-1-.127-2.047.143-3.036.264-1.628.814-2.882 1.22-2.783s.33 1.452-.154 3.036zm5.148 3.816a7.17 7.17 0 0 1-2.717 1.353c-.1-.154.814-1.155 2.068-2.2s2.464-1.694 2.717-1.364-.682 1.3-2.068 2.2z"/></g><path d="M509.586 482.273c0 .154-105.04.286-234.575.286s-234.597-.132-234.597-.286 105.017-.286 234.597-.286l234.575.286z" class="B"/><path d="M499.598 291.016c-1.045-.385-4.554.308-8.404 1.276 5.5-2.2 7.546-4.17 7.14-5.62-.682-2.486-13.75 1.155-19.8 2.992 4.983-1.584 14.52-4.686 16.5-6.017 2.673-1.826-1.1-2.915-4.4-2.926-3.773 0-25.718 3.014-32.087 3.564-4.4.374-4.532-3.53-4.532-3.53.935-9.24-3.3-16.93-5.4-18.48s-4.95.847-4.037 3.597c.748 2.2.87 6.303.825 9.372-.02 2.518-.47 5.014-1.33 7.38-1 2.74-1.958 5.016-2.816 6.94l-20.658 11.77-52.8 24.937-74.745-43.065-2.65.605-18.128 39.303L357.5 374a19.15 19.15 0 0 0 9.644 2.714c3.398.033 6.744-.84 9.694-2.527l61.6-37.928 24.376-14.707 26.796-17.556c7.887-3.806 10.857-5.94 10.054-7.37-1.1-1.903-.583-1.22-15.884 3.685-.022.044 21.758-7.14 15.818-9.295z" class="D"/><path d="M475.805 303.8c.1.385 4.873-.924 10.626-2.926s10.296-3.927 10.142-4.3-4.906.935-10.626 2.926-10.252 3.916-10.142 4.3zm-4.323-6.315c.1.385 5.258-.726 11.495-2.475s11.2-3.498 11.1-3.883-5.258.715-11.495 2.475-11.2 3.487-11.1 3.883zm-3.377-5.445c.1.385 4.994-.583 10.912-2.2s10.648-3.18 10.55-3.564-4.994.572-10.923 2.2-10.648 3.168-10.538 3.564z" class="C"/><path d="M325.226 296.494l-53.042-36.64c-5.676-3.124-23.683-5.4-25.3-5.786l-32.252-7.018-49.28 1.474-14.135 8.503-35.76 16.5c-9.735 4.477-17.417 12.47-21.505 22.374l-22.583 55.198 56.1 16.577 1.738 58.18-12.936 56.42h164.054L271.7 341.836l17.083 3.762 36.443-49.104z" class="B"/><path d="M128.447 344.234a18.4 18.4 0 0 1-1.727 1.1 14.46 14.46 0 0 1-5.236 1.925 19.68 19.68 0 0 1-8.184-1.188 59.74 59.74 0 0 1-9.317-4.048c-3.2-1.672-6.193-3.355-8.998-4.708a48.99 48.99 0 0 0-7.7-3.069c-1.794-.543-3.635-.912-5.5-1.1-.66-.077-1.177-.1-1.518-.12h-.528a15.88 15.88 0 0 1 2.046.066c1.866.18 3.7.55 5.5 1.1a47.83 47.83 0 0 1 7.7 3.036c2.816 1.342 5.808 3.025 9 4.697a60.25 60.25 0 0 0 9.273 4.048 19.6 19.6 0 0 0 8.107 1.22 14.58 14.58 0 0 0 5.214-1.837l1.3-.77.55-.352zm-2.387-27.17h-1.474c-.924 0-2.266-.143-3.916-.308a105.53 105.53 0 0 1-12.771-2.156 104.11 104.11 0 0 1-12.44-3.696c-1.562-.583-2.805-1.1-3.663-1.44l-.98-.418-.34-.154.352.1 1 .385c.858.352 2.123.814 3.685 1.375 8.147 2.902 16.604 4.848 25.2 5.797 1.65.187 2.98.308 3.916.374l1.1.1.33.033zm35.255-57.21a21.16 21.16 0 0 1-1.309 1.837 25.58 25.58 0 0 1-4.4 4.312 39.28 39.28 0 0 1-7.821 4.686 79.92 79.92 0 0 1-10.494 3.828l-10.692 3.2c-2.892.924-5.716 2.053-8.448 3.377a37.15 37.15 0 0 0-5.258 3.135c-.605.407-1.023.78-1.33 1.012l-.473.34s.594-.54 1.75-1.42a35.5 35.5 0 0 1 5.247-3.2c2.73-1.353 5.556-2.497 8.46-3.42 3.3-1.1 6.897-2.1 10.692-3.212a81.2 81.2 0 0 0 10.461-3.806 38.48 38.48 0 0 0 7.8-4.62 26.11 26.11 0 0 0 4.4-4.257c.484-.54.78-1.023 1.023-1.32l.385-.462zm100.87 7.513a3.45 3.45 0 0 1-.43-.23l-1.2-.682a30.3 30.3 0 0 0-4.686-2.024 50.96 50.96 0 0 0-7.326-1.881l-9.185-1.408-16.72-2.365-5.07-.748-1.375-.2-.473-.088h.484l1.375.176 5.082.67 16.73 2.3 9.185 1.43c2.495.454 4.95 1.098 7.348 1.925 1.615.566 3.18 1.27 4.675 2.1l1.595 1.023zm-22.847 11.132l-1.1.495-3.168 1.32a133.14 133.14 0 0 1-11.946 4.114 129.8 129.8 0 0 1-18.282 4.037 127.95 127.95 0 0 1-22.902.803c-8.13-.264-15.884-.616-22.913-.176-6.235.282-12.406 1.392-18.348 3.3a45.63 45.63 0 0 0-11.286 5.5c-1.2.88-2.2 1.562-2.728 2.08s-.935.76-.935.76l.902-.792c.583-.528 1.507-1.22 2.717-2.112 3.477-2.388 7.273-4.277 11.275-5.6 5.954-1.938 12.14-3.08 18.392-3.4 7.04-.45 14.806-.1 22.935.165a128.72 128.72 0 0 0 22.87-.78c6.173-.898 12.276-2.232 18.26-3.993 5.126-1.474 9.174-2.97 11.957-4.048l3.18-1.287 1.122-.374zm15.466 9.867l-.176.077-.54.198c-.45.176-1.1.385-1.98.638-2.208.638-4.5.986-6.787 1.034-2.298.01-4.585-.32-6.787-.98l-1.97-.67-.528-.2c-.12 0-.176-.077-.176-.088l.187.055.54.165 2 .605c2.196.6 4.464.916 6.743.913a29.03 29.03 0 0 0 6.754-.968l2-.572.54-.165.198-.033zm-31.8 28.523s-4.84 1.023-12.738 2.2c-3.95.594-8.668 1.177-13.926 1.705s-11 .913-17.127 1.1-11.902.2-17.182.1-10.032-.385-14.014-.693c-7.964-.605-12.86-1.276-12.86-1.276l.902.077 2.552.253c2.2.242 5.434.517 9.416.792a305.52 305.52 0 0 0 14.003.649 311.38 311.38 0 0 0 17.17-.1c6.082-.2 11.87-.638 17.127-1.1s9.966-1.1 13.915-1.66 7.14-1.1 9.34-1.474l2.53-.44.9-.12zm39.48-2.86h-5.324a155.41 155.41 0 0 1-12.749-.55 137.21 137.21 0 0 1-12.661-1.683l-3.795-.737-1.023-.23-.352-.088h.363l1.034.187 3.806.682c3.212.54 7.7 1.177 12.64 1.617s9.47.56 12.738.605h4.96a2.28 2.28 0 0 1 .363.198zm-50.37 41.558l-.825.132-2.376.33-3.773.418-5.016.34-6.105.132h-3.388l-3.608-.12c-4.917-.198-10.33-.572-15.994-1.1l-15.983-1.298c-4.917-.33-9.35-.506-13.068-.45h-2.662l-2.365.12c-1.474.055-2.75.12-3.784.253l-2.387.242-.836.066.836-.1 2.376-.275c1.034-.143 2.3-.22 3.795-.297l2.365-.132h2.662c3.73-.077 8.162.12 13.1.418s10.307.803 15.983 1.276l15.983 1.1 3.597.12h3.388c2.2 0 4.235-.055 6.094-.1s3.542-.22 5.016-.308 2.74-.242 3.773-.374l2.387-.297.825-.077zm59.357-11.836c-.145.03-.293.052-.44.066l-1.287.132-4.73.396c-4.004.264-9.548.462-15.675.308s-11.65-.65-15.63-1.1l-4.708-.638-1.276-.2c-.148-.02-.295-.05-.44-.088h.45l1.276.165c1.1.154 2.728.352 4.72.572 3.982.45 9.504.913 15.62 1.1a170.66 170.66 0 0 0 15.653-.253l4.73-.32 1.287-.1.45-.033zm.714 36.64l-1.463-.088c-.968 0-2.387-.198-4.224-.253-3.674-.187-8.987-.23-15.543.1s-14.3 1.1-22.957 2.2l-27.984 3.872a244.25 244.25 0 0 1-28.17 2.145 129.1 129.1 0 0 1-22.99-1.672 92.63 92.63 0 0 1-15.08-3.795c-.87-.275-1.64-.572-2.288-.836l-1.66-.66-1.375-.55s.484.165 1.386.506l1.672.65c.66.253 1.42.54 2.3.814a94.21 94.21 0 0 0 15.07 3.729 130.35 130.35 0 0 0 22.968 1.617c9.417-.2 18.817-.924 28.15-2.2l27.984-3.86c8.613-1.1 16.4-1.892 22.968-2.2 5.18-.267 10.373-.267 15.554 0l5.687.484zM216.7 418s-4.84.825-12.75 1.672c-3.95.43-8.657.814-13.904 1.1a286.95 286.95 0 0 1-17.083.407c-6.083-.033-11.836-.308-17.083-.65a233.19 233.19 0 0 1-13.893-1.32c-7.887-.957-12.727-1.848-12.727-1.848l.9.1 2.53.374 4.004.56 5.313.66c3.95.462 8.657.902 13.893 1.265s11 .583 17.072.638 11.825-.132 17.072-.396 9.9-.65 13.904-1.1c1.98-.176 3.762-.407 5.324-.583l4.015-.506 2.54-.33c.627 0 .88-.055.88-.055zm54.88-7.183l-.54.176-1.54.462-5.73 1.617a253.62 253.62 0 0 1-19.162 4.301 249.21 249.21 0 0 1-19.448 2.772l-5.93.528-1.617.1h-.56l.56-.066 1.606-.143 5.918-.594a284.3 284.3 0 0 0 19.426-2.838c7.546-1.375 14.3-2.98 19.162-4.235l5.753-1.55 1.55-.43.55-.1zm-93.292 49.247a72.57 72.57 0 0 1-7.843.77 84.82 84.82 0 0 1-8.558 0c-3.493-.184-6.974-.55-10.428-1.1a95.79 95.79 0 0 1-10.219-2.343c-3.1-.913-5.83-1.87-8.085-2.794a72.5 72.5 0 0 1-7.172-3.3l.506.22 1.42.66a36.16 36.16 0 0 0 2.266 1.012c.902.363 1.892.836 3.036 1.254 2.255.902 5.005 1.848 8.085 2.75a98.6 98.6 0 0 0 10.197 2.32 102.58 102.58 0 0 0 10.406 1.1c3.212.143 6.105.154 8.536 0 1.22 0 2.32-.132 3.3-.198a54.68 54.68 0 0 0 2.475-.22l1.562-.165.517.033zm96.987-2.564l-1 .176-2.882.462-10.615 1.595c-8.976 1.287-21.406 2.87-35.2 4.235s-26.268 2.2-35.32 2.75l-10.725.528-2.915.1h-1.012l1.012-.066 2.915-.154 10.714-.594a944.98 944.98 0 0 0 35.3-2.816 919.2 919.2 0 0 0 35.2-4.18l13.52-1.936 1-.1zm34.86-170.037s-.286.803-.946 2.2c-.95 1.955-2.053 3.83-3.3 5.6a72.16 72.16 0 0 1-6.072 7.524c-2.442 2.695-5.247 5.5-8.085 8.624a73.84 73.84 0 0 0-7.359 9.218c-1.8 2.666-3.255 5.55-4.334 8.58-.718 2.045-1.187 4.168-1.397 6.325-.1.77-.066 1.364-.1 1.77a2.82 2.82 0 0 0 0 .616 21.61 21.61 0 0 1 .066-2.387 25.55 25.55 0 0 1 1.331-6.369 38.24 38.24 0 0 1 4.312-8.635 71.85 71.85 0 0 1 7.37-9.262l8.096-8.613c2.186-2.36 4.22-4.854 6.094-7.47a41.96 41.96 0 0 0 3.3-5.577c.363-.67.572-1.232.76-1.595s.264-.56.264-.56zm-46.43 17.37l.34-.242 1-.682 3.608-2.618 5.05-4.268a75.86 75.86 0 0 0 5.599-5.841c1.736-2.068 3.366-4.224 4.884-6.457l3.42-5.654 2.002-3.982.517-1.1.187-.374c-.76 1.88-1.622 3.716-2.585 5.5a65.9 65.9 0 0 1-3.388 5.698 71.83 71.83 0 0 1-4.884 6.48c-1.762 2.055-3.64 4.008-5.62 5.852l-5.082 4.246a54.25 54.25 0 0 1-5.049 3.443z" fill="#fff"/><path d="M191.642 352l.242-.12.726-.275c.65-.22 1.573-.627 2.76-1.177 3.278-1.65 6.286-3.792 8.92-6.347a70.42 70.42 0 0 0 10.208-12.683 177.86 177.86 0 0 0 9.955-17.347 300.49 300.49 0 0 0 14.135-33.484l4.95-13.96.1-.242a.91.91 0 0 1-.055.253c-.066.198-.132.44-.23.748l-.902 2.86-3.53 10.46a279.78 279.78 0 0 1-14.025 33.594 178.38 178.38 0 0 1-10 17.38 70.12 70.12 0 0 1-10.362 12.639 34.96 34.96 0 0 1-9.086 6.26c-.9.42-1.843.785-2.794 1.1l-.748.23-.264.1zm-1.682 21.318a2.99 2.99 0 0 1 .55-.418l1.628-1.1 5.874-4.3c4.884-3.718 11.308-9.273 18.205-15.62 3.465-3.157 6.787-6.15 9.647-9.02a74.97 74.97 0 0 0 7.117-8.074 45.45 45.45 0 0 0 3.894-6.116c.418-.748.682-1.364.9-1.76a4.73 4.73 0 0 1 .33-.616c-.055.23-.135.45-.242.66-.176.407-.407 1.034-.803 1.804a40.79 40.79 0 0 1-3.784 6.237 70.91 70.91 0 0 1-7.073 8.195c-2.86 2.893-6.17 5.907-9.636 9.064a236.24 236.24 0 0 1-18.337 15.532 113.27 113.27 0 0 1-5.973 4.17c-.726.473-1.298.814-1.683 1.1-.194.107-.396.195-.605.264zm-27.16 107.79s0-.088.12-.23.23-.385.396-.638l1.628-2.398c1.452-2.046 3.707-4.906 6.677-8.283l23.562-25.982 23.716-25.872 7.227-7.8 2-2.1.517-.54a1.11 1.11 0 0 1 .198-.176 1.17 1.17 0 0 1-.154.21l-.484.572-1.914 2.2-7.172 7.93-23.595 25.97-23.672 25.872c-2.992 3.3-5.28 6.16-6.787 8.173l-2.134 2.937-.12.154zm94.072-181.203a10.48 10.48 0 0 1-.385-1.54l-.32-1.826-.286-2.442-.143-2.97.088-3.42c.347-5.237 1.625-10.37 3.773-15.158.517-1.1 1-2.134 1.53-3.058s1.023-1.793 1.518-2.563.98-1.43 1.397-2.024a16.83 16.83 0 0 1 1.1-1.463 10.29 10.29 0 0 1 1.1-1.177c-.26.458-.558.9-.9 1.298-.308.407-.682.902-1.1 1.507s-.88 1.265-1.32 2.046-.98 1.628-1.463 2.574-.968 1.97-1.474 3.047c-2.066 4.76-3.315 9.83-3.696 15.004-.066 1.188-.154 2.32-.132 3.388s0 2.046.088 2.948l.2 2.43c.066.715.143 1.33.23 1.826.102.518.162 1.045.176 1.573zm14.663 36.168c-.12.055-1.936-3.95-4.048-8.954a94.38 94.38 0 0 1-3.586-9.141c.12-.055 1.936 3.95 4.048 8.943a94.32 94.32 0 0 1 3.586 9.152zm-144.122-31.966c-.077 0-.87-1.397-2.354-3.586a50.2 50.2 0 0 0-14.685-14.3l-3.663-2.2a5.69 5.69 0 0 1 1.1.451c.682.308 1.628.814 2.783 1.485a44.73 44.73 0 0 1 8.24 6.325c2.5 2.42 4.715 5.117 6.6 8.04.704 1.1 1.243 2.068 1.562 2.728a6.48 6.48 0 0 1 .418 1.056zm39.61-23.836a3.38 3.38 0 0 1 0-1.034 8.18 8.18 0 0 1 .616-2.431c.393-.957.968-1.827 1.694-2.563v-.055.066a2.34 2.34 0 0 1 .154.44s-.1-.132-.253-.396h.165a10.06 10.06 0 0 0-1.584 2.574c-.42 1.1-.686 2.235-.792 3.4zm13.376 6.918a3.72 3.72 0 0 1-.209-1.001 9.67 9.67 0 0 1 .066-2.486 9.04 9.04 0 0 1 .693-2.376 3.56 3.56 0 0 1 .506-.902 16.1 16.1 0 0 0-.99 3.3c-.14 1.15-.162 2.3-.066 3.465zM194.92 286a15.61 15.61 0 0 0-.385-2.805c-.293-.9-.66-1.77-1.1-2.607.202.198.37.428.495.682a7.22 7.22 0 0 1 .792 1.87c.184.656.276 1.332.275 2.013.023.285-.003.57-.077.847zm12.727-5.5a15.93 15.93 0 0 0-1.518-2.563 16.08 16.08 0 0 0-2.123-2.1 2.53 2.53 0 0 1 .76.462 7.77 7.77 0 0 1 1.53 1.496 8.14 8.14 0 0 1 1.1 1.848c.128.267.213.553.253.847zm8.756-8.68a5.61 5.61 0 0 0-1.737-2.75 5.58 5.58 0 0 0-2.97-1.32h.264a3.32 3.32 0 0 1 .715.088 5.01 5.01 0 0 1 2.123 1.1c.616.524 1.092 1.193 1.386 1.947a3.39 3.39 0 0 1 .198.693.62.62 0 0 1 .022.242zm4.697-15.96a6.41 6.41 0 0 0-2.65-1.265 6.59 6.59 0 0 0-2.926.231 4.19 4.19 0 0 1 2.97-.44 4.12 4.12 0 0 1 2.607 1.474zm-62.832 13.64a2.44 2.44 0 0 1 .22-.858c.25-.672.622-1.3 1.1-1.826a5.84 5.84 0 0 1 1.716-1.287c.263-.144.55-.236.847-.275a8.13 8.13 0 0 0-2.409 1.705 8.6 8.6 0 0 0-1.474 2.541zm-3.168-10.615c.12-.296.288-.57.495-.814a7.49 7.49 0 0 1 1.694-1.573c.64-.436 1.345-.767 2.1-.98.305-.102.624-.158.946-.165a11.65 11.65 0 0 0-2.926 1.32c-.86.634-1.632 1.377-2.3 2.2z" class="F"/><path d="M130.03 320.848s0-.055-.066 0c-.047.105-.077.216-.088.33l-.165 1.353-.396 5.016-.935 16.6-.693 16.62-.165 5.038-.055 1.364c.016.16.016.323 0 .484a1.27 1.27 0 0 1 0-.484v-6.413c0-4.257.22-10.142.54-16.632s.704-12.364 1.1-16.6c.198-2.123.385-3.84.56-5.016a13.04 13.04 0 0 1 .132-1.309.83.83 0 0 1 .143-.341c.077-.12.1.01.088-.01zM241.1 117.205c-8.415-2.563-17.182 4.96-25.806 3.3-5.247-1.023-9.196-5.214-13.86-7.82-6.974-3.894-16.83-4.52-23.958-.902s-11.704 7.48-12.672 15.4c-6.5-3.718-17.303 4.4-20.977 12.3s-2.76 16.016-.67 24.442a114.65 114.65 0 0 0 18.964 40.37c.792 1.1 2.046 2.2 3.3 1.683a2.89 2.89 0 0 0 1.243-2.311c1.243-7.7.264-15.587-.407-23.375s-1-15.807 1.463-23.22 8.26-14.2 15.928-15.697c5.665-1.1 11.54.726 16.577 3.542s9.45 6.6 14.3 9.823 10.175 5.93 15.94 6.182 11.946-2.475 14.4-7.7-.297-12.65-5.95-13.838a11.35 11.35 0 0 0 8.417-17.57c-1.45-2.2-3.617-3.812-6.13-4.584l-.1-.022z" class="B"/><path d="M215.17 252.46l-.825-16.698s22-4.213 21.505-26.4c-.242-10.68-2.53-32.648-4.84-52.503a41.23 41.23 0 0 0-14.077-26.519c-7.857-6.757-17.97-10.308-28.328-9.946l-2.134.077c-22.968 2.2-33.968 22.858-31.185 45.75l5.29 89.1c.43 7.206 3.69 13.95 9.073 18.76s12.45 7.295 19.66 6.913 13.96-3.6 18.805-8.943 7.38-12.386 7.056-19.59z" class="D"/><path d="M214.38 235.752s-13.937 1.628-29.128-7.194c0 0 7.38 15.686 29.38 12.914l-.253-5.72z" class="C"/><path d="M225.995 171.92c.04.825-.246 1.632-.795 2.25a3.15 3.15 0 0 1-2.142 1.051 3.04 3.04 0 0 1-1.192-.102c-.386-.114-.746-.303-1.06-.557a3.01 3.01 0 0 1-.76-.923c-.2-.355-.306-.745-.343-1.146-.036-.824.25-1.63.8-2.246a3.17 3.17 0 0 1 2.138-1.054 3.03 3.03 0 0 1 1.194.099 3 3 0 0 1 1.06.555c.313.255.572.57.76.926a3.02 3.02 0 0 1 .34 1.148zm.605-4.027c-.374.43-2.827-1.254-6.226-1.1s-5.83 1.925-6.215 1.518c-.187-.176.187-.935 1.243-1.77a8.7 8.7 0 0 1 4.961-1.716c1.767-.068 3.508.43 4.972 1.42 1.1.726 1.485 1.463 1.265 1.65zm-33.275 5.533c.04.825-.246 1.632-.795 2.25a3.15 3.15 0 0 1-2.142 1.051c-.4.045-.807.01-1.195-.103a2.99 2.99 0 0 1-1.06-.56 3.03 3.03 0 0 1-.76-.928c-.2-.356-.305-.748-.34-1.15a3.15 3.15 0 0 1 .791-2.245c.547-.617 1.313-.996 2.135-1.055a3.04 3.04 0 0 1 2.259.662c.314.255.572.57.763.926a3.02 3.02 0 0 1 .344 1.15zm-.077-3.718c-.374.418-2.838-1.265-6.226-1.1s-5.83 1.914-6.215 1.507c-.187-.176.176-.935 1.243-1.76a8.67 8.67 0 0 1 4.95-1.727 8.41 8.41 0 0 1 4.983 1.419c1.067.737 1.452 1.463 1.265 1.66zm13.222 24.772c0-.198 2.08-.638 5.5-1.188.858-.12 1.672-.32 1.804-.924a4.54 4.54 0 0 0-.671-2.552l-2.805-6.523c-3.894-9.284-6.743-16.93-6.37-17.083s3.84 7.25 7.7 16.5l2.695 6.6c.584 1.026.787 2.226.572 3.388-.117.3-.3.6-.542.818s-.528.4-.844.502a5.63 5.63 0 0 1-1.463.253c-3.42.308-5.555.43-5.577.2zm2.233 11.88c-.462.297-2.3-2.904-6.347-3.608s-7.25 1.606-7.535 1.166c-.154-.176.407-1.1 1.826-1.914a9.13 9.13 0 0 1 6.182-1.1c2.05.34 3.9 1.463 5.126 3.135.88 1.2.98 2.2.748 2.32zm-30.843-45.485c.187-.968 3.608-1.045 7.48-2.134s6.897-2.64 7.546-1.903c.297.352-.132 1.298-1.276 2.387a13.48 13.48 0 0 1-11.451 3.069c-1.54-.363-2.376-.968-2.3-1.42zm38.125-4.378c.737-.638 2.882.616 5.632 1.2s5.203.517 5.588 1.42c.154.43-.363 1.1-1.53 1.628a8.03 8.03 0 0 1-4.84.308c-1.62-.35-3.1-1.195-4.202-2.42-.814-.98-.98-1.826-.65-2.145z" class="B"/><path d="M157.663 182.6c-.385-.143-15.4-3.96-14.3 11.143s15.972 11 15.972 10.538-1.672-21.68-1.672-21.68z" class="D"/><path d="M154.297 198.858c-.077 0-.253.21-.682.44a2.64 2.64 0 0 1-1.969.176c-1.64-.484-3.146-2.926-3.4-5.643a8.94 8.94 0 0 1 .484-3.817c.107-.488.33-.945.653-1.328s.732-.683 1.195-.872c.298-.1.62-.092.913.02a1.35 1.35 0 0 1 .693.596c.23.407.154.715.23.737s.308-.275.143-.89c-.108-.368-.34-.687-.66-.902a1.92 1.92 0 0 0-.708-.29c-.253-.05-.514-.048-.766.004a3.69 3.69 0 0 0-1.629.925c-.455.443-.788.996-.967 1.605-.55 1.35-.767 2.816-.627 4.268.297 3.036 2.046 5.775 4.28 6.26.413.095.842.092 1.253-.004a2.79 2.79 0 0 0 1.123-.557c.44-.352.495-.704.45-.726z" class="C"/><path d="M235.532 152.12a31.89 31.89 0 0 1-14.952.751 31.9 31.9 0 0 1-13.648-6.152c-5.5-4.4-9.9-10.78-16.742-12.617-2.32-.535-4.726-.602-7.073-.197a17.97 17.97 0 0 0-6.6 2.551 34.69 34.69 0 0 0-10.076 9.9c4.664 11.088 2.2 23.738-.264 35.508-.136 1.333-.714 2.584-1.64 3.553-1.738 1.43-4.455.45-6.072-1.1-2.585-2.53-3.685-6.182-4.455-9.713a62.52 62.52 0 0 1-.715-24.541c1.427-8.168 5.213-15.738 10.9-21.78 7.402-7.328 17.36-11.496 27.775-11.627 10.372-.044 20.495 3.182 28.93 9.218 3.905 2.74 7.535 6.094 9.658 10.373" class="B"/><path d="M247.643 122.32a3.4 3.4 0 0 1-.088 1.309 6.15 6.15 0 0 1-2.002 3.19 9.6 9.6 0 0 1-5.588 2.09 16.73 16.73 0 0 1-3.762-.1c-1.428-.194-2.78-.763-3.916-1.65-.636-.5-1.15-1.138-1.502-1.867a5.35 5.35 0 0 1-.533-2.335 4.69 4.69 0 0 1 3.069-3.982c.855-.356 1.782-.507 2.706-.44a4.92 4.92 0 0 1 2.64 1.1 6.9 6.9 0 0 1 1.787 2.335c.422.898.645 1.876.655 2.868a7.97 7.97 0 0 1-2.2 5.632 12.17 12.17 0 0 1-5.368 3.3c-4.158 1.3-8.8.67-12.98-.946-4.033-1.664-7.86-3.786-11.407-6.325a71.15 71.15 0 0 0-10.362-6.116c-3.266-1.567-6.863-2.322-10.483-2.2-3.146.212-6.206 1.113-8.965 2.64a26.86 26.86 0 0 0-9.713 9.471 36.09 36.09 0 0 0-1.815 3.3c-.385.792-.56 1.188-.583 1.177s0-.12.088-.32.187-.517.363-.913a28.03 28.03 0 0 1 1.694-3.366 26.39 26.39 0 0 1 9.713-9.79 21.72 21.72 0 0 1 9.174-2.794c3.726-.157 7.434.598 10.802 2.2 3.666 1.742 7.177 3.796 10.494 6.138 3.512 2.504 7.3 4.6 11.286 6.248 3.94 1.7 8.332 2.036 12.485.957a11.47 11.47 0 0 0 5.06-3.091c1.32-1.377 2.047-3.22 2.024-5.126-.008-.896-.208-1.78-.587-2.594s-.93-1.533-1.613-2.114a4.52 4.52 0 0 0-2.268-.947 4.56 4.56 0 0 0-2.43.375c-.735.25-1.383.706-1.868 1.3a4.07 4.07 0 0 0-.87 2.1 4.85 4.85 0 0 0 .472 2.092c.312.653.768 1.228 1.332 1.68a7.7 7.7 0 0 0 3.652 1.584 16.53 16.53 0 0 0 3.652.154 9.4 9.4 0 0 0 5.423-1.892 6.17 6.17 0 0 0 2.046-3.003 11.1 11.1 0 0 0 .286-1.353zm-106.05 30.26c1.52.5 3.08.836 4.664 1.034 1.713.104 3.43-.134 5.05-.704a21.77 21.77 0 0 0 5.577-2.926 17.66 17.66 0 0 0 6.413-9.24c.38-1.558.663-3.137.847-4.73a4.04 4.04 0 0 1 .121 1.309 14.94 14.94 0 0 1-.451 3.553c-.966 3.895-3.26 7.33-6.5 9.713a21.29 21.29 0 0 1-5.808 2.981 12.66 12.66 0 0 1-5.302.572c-1.2-.13-2.37-.443-3.476-.924a4.08 4.08 0 0 1-1.144-.638zm1.045 10.924c0-.143 1.793.187 4.642-.077 3.7-.308 7.27-1.6 10.305-3.77a20.71 20.71 0 0 0 6.932-8.505c1.177-2.607 1.44-4.4 1.584-4.4a3.85 3.85 0 0 1-.12 1.265 17.65 17.65 0 0 1-.98 3.3c-1.427 3.576-3.852 6.665-6.986 8.9s-6.845 3.522-10.7 3.706c-1.154.056-2.3.001-3.454-.165a4.09 4.09 0 0 1-1.232-.253z" class="F"/><path d="M182.468 184.547a.38.38 0 0 1-.297-.056.4.4 0 0 1-.108-.109c-.028-.043-.048-.092-.057-.143a.37.37 0 0 1 .03-.21.39.39 0 0 1 .139-.161c.062-.038.134-.058.205-.058s.143.023.203.064a.37.37 0 0 1 .161.374.37.37 0 0 1-.093.19.4.4 0 0 1-.183.11zm6.435-1.694a.44.44 0 0 1-.31-.093c-.088-.07-.146-.17-.163-.28a.45.45 0 0 1 .02-.323c.046-.1.13-.183.232-.227a.4.4 0 0 1 .314.1.43.43 0 0 1 .159.284.45.45 0 0 1-.016.326c-.048.102-.132.182-.237.224zm4.367-.253c-.198 0-.407-.2-.462-.55s.066-.627.275-.66.407.2.462.54-.066.67-.275.67zm-7.47 5.918c-.2 0-.385-.1-.385-.23s.154-.242.363-.253.385.1.385.23-.154.242-.363.253zm5.908-1.595c-.107.007-.2-.03-.3-.1a.41.41 0 0 1-.139-.275.43.43 0 0 1 .069-.297c.06-.087.148-.15.25-.176.054-.003.107.004.157.022s.097.046.138.08.07.08.094.128a.41.41 0 0 1 .04.154c.017.103-.008.2-.067.295a.41.41 0 0 1-.252.167zm30.866-4.785c-.102.01-.205-.02-.288-.08s-.142-.15-.166-.25a.43.43 0 0 1 .036-.296c.046-.1.124-.162.22-.2.105-.016.212.01.298.072a.41.41 0 0 1 .164.258.4.4 0 0 1 .015.154c-.005.052-.02.102-.045.15a.38.38 0 0 1-.234.193zm4.41-.56a.44.44 0 0 1-.44-.418.43.43 0 0 1 .308-.517.41.41 0 0 1 .165.03.45.45 0 0 1 .142.09c.042.04.074.086.097.137s.035.107.036.163a.44.44 0 0 1-.052.319c-.057.097-.148.167-.256.198zm-8.315.803c-.044.015-.1.02-.138.018a.34.34 0 0 1-.132-.039.32.32 0 0 1-.107-.087c-.03-.036-.05-.078-.063-.123-.016-.092.005-.186.058-.263a.36.36 0 0 1 .228-.144.36.36 0 0 1 .44.232.36.36 0 0 1-.058.263c-.054.076-.136.128-.228.144zm3.43 4.312c-.1.037-.2.035-.308-.005a.42.42 0 0 1-.22-.215c-.052-.096-.065-.207-.036-.3s.097-.195.2-.25a.44.44 0 0 1 .299.024.47.47 0 0 1 .215.2c.045.083.055.2.028.298s-.084.2-.168.25zm3.752-.88c-.1-.017-.17-.066-.223-.14a.35.35 0 0 1-.063-.255c.03-.088.1-.163.172-.208a.38.38 0 0 1 .266-.04c.1.02.17.075.223.15a.37.37 0 0 1 .065.262.39.39 0 0 1-.173.207.35.35 0 0 1-.267.024z" class="C"/><path d="M257.323 386.353c-1.1-.55-5.05-.253-9.394.297 6.336-1.628 8.8-3.575 8.58-5.225-.43-2.827-15.246-.55-22.143.67 5.687-1.1 16.555-3.234 18.876-4.4 3.18-1.65-.803-3.3-4.488-3.795-4.147-.517-28.6-.066-35.695-.308-4.862-.154-4.5-4.4-4.5-4.4 2.2-10.02-1.375-19.02-3.498-21s-5.5.275-4.895 3.4c.517 2.54.1 7.04-.33 10.395-.36 2.76-1.183 5.442-2.43 7.93-.847 1.65-1.64 3.135-2.41 4.477l-75.812 15.785 7.47-22.87-46.574-13.96-17.292 45.22a35.98 35.98 0 0 0 11.44 41.195 35.99 35.99 0 0 0 33.726 5.72l100.166-32.33 36.51-13.87c9.14-3.146 12.694-5.093 12-6.765-.935-2.2-.473-1.408-17.908 1.947-.01.033 24.85-4.983 18.612-8.13z" class="D"/><path d="M229.526 397.265c.077.44 5.5-.374 12.1-1.804s11.814-2.96 11.704-3.388-5.5.374-12.1 1.804-11.78 2.948-11.704 3.388zm-3.926-7.502c.066.44 5.863-.1 12.936-1.2s12.77-2.365 12.694-2.805-5.863.1-12.936 1.2-12.804 2.365-12.694 2.805zm-2.982-6.413c.066.44 5.555 0 12.265-.935s12.1-2.1 12.045-2.54-5.5 0-12.265.935-12.1 2.1-12.045 2.54zm-102.872 6.743a5.26 5.26 0 0 1-1.1.605l-2.915 1.507c-2.475 1.254-5.863 3.036-9.537 5.126s-6.952 4.08-9.295 5.555l-2.794 1.738a4.67 4.67 0 0 1-1.1.583 4.67 4.67 0 0 1 .935-.77c.616-.462 1.54-1.1 2.684-1.892 2.3-1.562 5.5-3.62 9.24-5.72s7.117-3.817 9.647-4.983c1.254-.594 2.277-1.1 3.003-1.342.4-.2.805-.327 1.232-.407z" class="C"/><use xlink:href="#B" class="E"/><use xlink:href="#B" opacity=".16" fill="#000"/><path d="M487.487 321.728c-.03.108-.074.212-.132.308-.142.297-.3.58-.506.847a10.51 10.51 0 0 1-2.541 2.552 13.21 13.21 0 0 1-4.917 2.112 30.17 30.17 0 0 1-6.512.44c-2.3 0-4.488-.132-6.457 0a22.17 22.17 0 0 0-5.16.825c-1.536.495-2.992 1.2-4.323 2.123 0 0 .066-.1.23-.264.24-.22.493-.427.76-.616a11.87 11.87 0 0 1 3.212-1.628 20.69 20.69 0 0 1 5.247-.968c2.013-.143 4.213-.055 6.5 0 2.142.086 4.287-.043 6.402-.385 1.707-.325 3.333-.982 4.785-1.936a14.04 14.04 0 0 0 3.4-3.4zM489.5 347.7c-.314.296-.66.553-1.034.77-.415.287-.844.552-1.287.792l-1.76.946a33.25 33.25 0 0 1-4.84 1.958 35.72 35.72 0 0 1-12.617 1.639 33.33 33.33 0 0 1-5.18-.66c-.726-.12-1.375-.32-1.947-.462a13.68 13.68 0 0 1-1.441-.44 5.24 5.24 0 0 1-1.199-.484c0-.1 1.77.484 4.664 1 1.694.294 3.407.47 5.126.528 2.098.064 4.198-.032 6.28-.286a41.14 41.14 0 0 0 6.16-1.33 37.62 37.62 0 0 0 4.818-1.815l4.257-2.145zm14.047 23c0 .055-.605 0-1.66.187a11.82 11.82 0 0 0-4.224 1.53 33.39 33.39 0 0 0-5.335 4.114c-2 1.94-4.123 3.75-6.358 5.412a27.74 27.74 0 0 1-7.469 3.718c-2.183.695-4.463 1.048-6.754 1.045a17.44 17.44 0 0 1-4.565-.638l-1.188-.418c-.143-.037-.277-.1-.396-.187a23.74 23.74 0 0 0 6.149.836c2.243-.036 4.467-.407 6.6-1.1 2.607-.872 5.075-2.118 7.326-3.696a67.73 67.73 0 0 0 6.336-5.346 31.59 31.59 0 0 1 5.5-4.07 11.25 11.25 0 0 1 4.4-1.397 8.2 8.2 0 0 1 1.254 0l.385.01zm-26.63-71.203c-.017.125-.05.248-.1.363-.116.344-.26.68-.43 1-.638 1.177-1.524 2.2-2.596 3.003-1.596 1.175-3.403 2.03-5.324 2.52-2.328.594-4.708.963-7.106 1.1l-7.084.77a21.57 21.57 0 0 0-5.5 1.727 15.65 15.65 0 0 0-4.246 3.179 1.26 1.26 0 0 1 .198-.33 7.18 7.18 0 0 1 .682-.825c.924-.96 1.998-1.768 3.18-2.387a20.56 20.56 0 0 1 5.577-1.881c2.363-.408 4.745-.684 7.14-.825a39.69 39.69 0 0 0 7.007-1.1c1.864-.416 3.638-1.165 5.236-2.2a9.9 9.9 0 0 0 2.64-2.794l.726-1.3zm-46.816.023s.088.066.264.1a1.02 1.02 0 0 0 .386-.014c.126-.03.245-.086.35-.162a5.73 5.73 0 0 0 1.001-.858l1.298-1.22a82.89 82.89 0 0 1 7.91-6.666 29.7 29.7 0 0 1 9.273-4.61 17.57 17.57 0 0 1 3.102-.561c.382-.067.773-.067 1.155 0 0 .1-1.64.187-4.147.968a32.52 32.52 0 0 0-9.053 4.675c-3.3 2.332-5.962 4.796-7.964 6.512l-1.375 1.144a5.48 5.48 0 0 1-1.1.814 1.12 1.12 0 0 1-.436.139 1.11 1.11 0 0 1-.455-.051c-.2-.1-.275-.22-.2-.22zm-.473-28.755a3.82 3.82 0 0 1-.737 1.023 14.1 14.1 0 0 1-2.53 2.332 13.11 13.11 0 0 1-4.63 2.2 16.22 16.22 0 0 1-6.26-.055 41.53 41.53 0 0 0-6.094-.77c-1.667-.038-3.332.1-4.972.385-2.816.528-4.455 1.254-4.488 1.155a3.91 3.91 0 0 1 1.1-.55 21.13 21.13 0 0 1 3.3-1.001 23.48 23.48 0 0 1 5.071-.517 38.57 38.57 0 0 1 6.182.726c1.988.42 4.037.457 6.04.1 1.618-.364 3.153-1.032 4.52-1.97a26.64 26.64 0 0 0 3.498-3.069z" fill="#fafafa"/><path d="M425.634 277.365c-7.7-2.1-13.365-4.4-21.22-4.74l-85.162 10.912-8.855 58.564s28.27 57.783 33.638 64.78c10.043 13.1-25.3 67.045-24.2 75.35h152.548s-1.496-116.28-10.56-169.96c-1.584-9.427-6.985-19.173-14.157-24.3a72.31 72.31 0 0 0-22.033-10.604z" class="G"/><g class="B"><path d="M403.513 453.684a2.94 2.94 0 0 1-.484-.407L401.7 452l-4.84-4.642a258.46 258.46 0 0 0-16.73-14.454c-6.775-5.357-13.2-9.823-17.963-12.925l-7.183-4.6a3.12 3.12 0 0 1-.506-.374c.2.07.393.162.572.275l1.595.9c1.375.78 3.3 1.97 5.742 3.476a214.2 214.2 0 0 1 34.76 27.423c2.024 2 3.63 3.63 4.72 4.785l1.232 1.342c.156.147.293.313.407.495zM393.48 332.827c-1.243-.968-1.287-3.003-.077-4.554s3.2-2.002 4.4-1.034 1.287 3.014.077 4.565-3.157 2.002-4.4 1.023zm31.593-47.51c-.76 1.386-2.134 2.1-3.08 1.584s-1.1-2.057-.34-3.443 2.134-2.1 3.08-1.584 1.1 2.057.34 3.443zm-12.44 67.342a2.39 2.39 0 0 1-1.133-.684 2.38 2.38 0 0 1-.595-1.182 2.39 2.39 0 0 1 .126-1.317 2.4 2.4 0 0 1 .81-1.048c.363-.266.793-.424 1.242-.456a2.4 2.4 0 0 1 1.295.277 2.39 2.39 0 0 1 .948.923 2.3 2.3 0 0 1 .3 1.287 2.65 2.65 0 0 1-1.047 1.72 2.64 2.64 0 0 1-1.956.481zM373 328.7a2.8 2.8 0 0 1-1.553.465 2.81 2.81 0 0 1-1.551-.473c-.46-.305-.817-.74-1.03-1.25a2.82 2.82 0 0 1-.166-1.613c.105-.542.367-1.042.754-1.435s.882-.665 1.422-.78a2.81 2.81 0 0 1 2.885 1.148 2.84 2.84 0 0 1-.759 3.938zm-25.598 55.958c-1.43-.693-1.837-2.783-.913-4.686s2.816-2.882 4.235-2.2 1.837 2.783.924 4.686-2.827 2.893-4.246 2.2zm16.5 4.982c-1.408.715-2.98.45-3.487-.583s.2-2.43 1.628-3.146 2.98-.44 3.487.583-.2 2.442-1.628 3.146zm-7.14 18.954a2.49 2.49 0 0 1-.92.685 2.47 2.47 0 0 1-1.13.2 2.48 2.48 0 0 1-1.099-.328 2.5 2.5 0 0 1-.834-.787 2.55 2.55 0 0 1-.447-1.091c-.06-.394-.028-.797.095-1.175.128-.352.33-.672.595-.938s.583-.47.934-.602c.675-.263 1.408-.34 2.123-.22.275.026.54.1.783.24a1.99 1.99 0 0 1 .625.53 2.09 2.09 0 0 1 .22 1.584 4.14 4.14 0 0 1-.946 1.903zm25.157 7.766c.226.386.337.828.32 1.275a2.35 2.35 0 0 1-.409 1.248c-.252.37-.603.66-1.012.84s-.862.236-1.303.168a2.38 2.38 0 0 1-1.193-.554c-.337-.294-.584-.677-.712-1.105s-.133-.883-.013-1.314a2.37 2.37 0 0 1 .691-1.118 2.63 2.63 0 0 1 3.63.561zm-39.182 51.964a2.66 2.66 0 0 1-2.533-1.445 2.66 2.66 0 0 1 .314-2.9 2.66 2.66 0 0 1 2.782-.87 2.66 2.66 0 0 1 1.285.817c.34.392.558.873.627 1.387.067.727-.154 1.452-.618 2.016a2.77 2.77 0 0 1-1.857.998zm16.83-30.79a2.31 2.31 0 0 1 .006 1.185c-.106.39-.318.74-.6 1.015a4.13 4.13 0 0 1-1.406.86 4.11 4.11 0 0 1-1.63.24c-.55-.007-1.096-.125-1.6-.35a4 4 0 0 1-1.327-.958 2.2 2.2 0 0 1-.44-2.288c.317-.694.86-1.26 1.54-1.606a3.88 3.88 0 0 1 2.046-.517c.717.03 1.4.263 2.002.67a3.41 3.41 0 0 1 1.42 1.75zm6.226 25.575a3.56 3.56 0 0 1-4.427-3.546c.018-.735.262-1.446.7-2.037s1.05-1.03 1.746-1.26 1.45-.24 2.153-.025 1.323.64 1.774 1.218a3.56 3.56 0 0 1 .749 2.019c.117.838-.1 1.687-.604 2.367a3.22 3.22 0 0 1-2.09 1.263zm24.19-11.23c-.256.295-.58.52-.945.662a2.39 2.39 0 0 1-1.145.141 3.41 3.41 0 0 1-1.27-.466 3.57 3.57 0 0 1-1-.926 3.41 3.41 0 0 1-.552-1.236 3.43 3.43 0 0 1-.026-1.354 2.41 2.41 0 0 1 1.43-1.716 3.42 3.42 0 0 1 2.2-.099c.655.166 1.23.555 1.628 1.1.376.555.55 1.223.495 1.892a3.41 3.41 0 0 1-.825 2.002zm.967 22.66c-1.32-.87-1.452-2.992-.286-4.73s3.157-2.43 4.477-1.55 1.44 2.992.286 4.73-3.168 2.43-4.477 1.55zm32.957 1.484a3.56 3.56 0 0 1-1.101-1.851 3.57 3.57 0 0 1 .166-2.147c.276-.682.756-1.262 1.374-1.66s1.343-.595 2.078-.566a3.57 3.57 0 0 1 3.256 2.504c.218.702.213 1.454-.012 2.154a3.56 3.56 0 0 1-1.25 1.753 3.23 3.23 0 0 1-2.293.828c-.843-.035-1.64-.4-2.217-1.015zm39.753.704c-1.474.572-3.003.176-3.4-.88s.462-2.365 1.936-2.937 3.003-.176 3.4.88-.462 2.365-1.936 2.937zM323.62 178.134c-2.882 3.817-5.808 7.7-7.634 12.1s-2.475 9.515-.737 13.97c.858 2.2 2.255 4.158 2.706 6.457.836 4.4-1.947 8.514-3.3 12.75a21.1 21.1 0 0 0-.656 9.851 21.09 21.09 0 0 0 3.901 9.069c3.355 4.4 8.37 7.315 13.585 9.163 9.647 3.42 21.813 2.937 28.413-4.873m40.975-76.913c1.837 9.7 15.72 13.618 17.04 23.386.572 4.2-1.452 8.338-1.33 12.573.165 5.676 4.092 10.472 6.083 15.807 4.103 11-.67 23.936-9.504 31.636s-20.9 10.747-32.648 10.934"/><path d="M403.7 175.02c-.583-4.763-5.5-7.755-10.208-8.8s-9.68-.968-14.025-3.014c-3.84-1.815-6.743-5.115-10.142-7.7-4.202-3.136-9.164-5.096-14.375-5.68a29.54 29.54 0 0 0-15.275 2.357c-4.792 2.127-8.93 5.493-11.993 9.75s-4.934 9.252-5.426 14.473c-.66 7.018 1.705 14.817 7.7 18.502 6.963 4.257 15.95 1.705 23.617-1.1s16.4-5.786 23.705-2.145c4.4 2.2 7.392 6.402 10.472 10.252s6.798 7.7 11.65 8.58 10.68-2.805 10.12-7.7"/></g><path d="M357.5 295.086l-3.4-21.406c.01.055-17.732-.275-24.706-22.308-3.465-11-5.665-29.436-6.974-44.627-1.177-13.662 5.29-31.625 18.997-32.22l43.725 4.323c2.01-.09 3.978.577 5.516 1.87s2.534 3.12 2.79 5.114l11.726 102.75a24.06 24.06 0 0 1-4.939 17.541c-3.882 4.973-9.563 8.22-15.818 9.046a24.06 24.06 0 0 1-17.544-4.568c-5.028-3.752-8.392-9.32-9.373-15.518z" class="D"/><path d="M339.9 217.8c-.418-.33-2.365 1.628-5.5 2.1s-5.632-.76-5.918-.33c-.143.198.33.825 1.43 1.397a8.08 8.08 0 0 0 4.807.726c1.62-.237 3.123-.985 4.3-2.134.9-.9 1.056-1.617.9-1.75zm29.502-2.74c-.44-.297-2.266 1.77-5.346 2.42s-5.665-.407-5.918 0c-.132.198.374.792 1.507 1.298 1.53.64 3.22.8 4.84.43a7.7 7.7 0 0 0 4.158-2.387c.78-.88.957-1.628.76-1.76zm-18.7 21.44c0-.176-2-.22-5.192-.154-.803 0-1.584 0-1.804-.528-.2-.813-.128-1.664.176-2.442l1.452-6.402c1.97-9.12 3.3-16.555 2.893-16.632s-2.255 7.25-4.235 16.357l-1.33 6.424c-.355 1.037-.335 2.166.055 3.2.158.263.374.486.63.655s.55.275.854.313c.457.062.92.062 1.375 0 3.18-.32 5.148-.605 5.126-.78z" class="B"/><path d="M354.1 273.68c10.648-1.44 20.7-5.804 29.007-12.606-.242.1-5.93 16.95-27.907 17.886l-1.1-5.28z" class="C"/><path d="M367.63 206.448c-.594-.693-3.388.814-6.996 1.716s-6.765 1.034-6.952 1.925c-.066.418.704 1 2.123 1.33a12.56 12.56 0 0 0 5.632-.165 12.59 12.59 0 0 0 4.994-2.607c1.067-1 1.463-1.848 1.2-2.2zm-28.104 4.906c-.528-.726-2.728-.066-5.335-.12s-4.796-.638-5.324.088c-.242.352.088 1.1 1.023 1.793a7.43 7.43 0 0 0 4.3 1.32c.768.145 1.56.103 2.307-.12a4.88 4.88 0 0 0 1.994-1.167c.946-.704 1.276-1.43 1.045-1.793zm66.66 41.503c-6.017 2.2-7.05-.87-12.342-4.477a20.61 20.61 0 0 1-6.355-7.09c-1.536-2.827-2.388-5.975-2.5-9.2-.143-5.643 1.98-11.737-.737-16.687-3.597-6.6-13.64-7.205-17.27-13.728-2.112-3.795-1.485-8.7-3.784-12.386-2.2-3.454-6.4-4.994-10.395-5.786s-8.217-1.1-11.78-3.113-6.26-6.37-4.74-10.153c17.16-.546 34.323.954 51.128 4.466 3.894.814 8.008 1.87 10.68 4.818 2.838 3.113 3.4 7.6 3.85 11.78l6.424 61.204m4.983-47.828a17.53 17.53 0 0 1 2.918-10.792 17.51 17.51 0 0 1 8.853-6.828 17.52 17.52 0 0 1 11.18-.08 17.51 17.51 0 0 1 8.95 6.7c4.103 5.896 4.202 13.816 2.255 20.724-2.3 8.228-8.36 16.335-16.84 17.237-7.986.847-15.4-5.148-18.887-12.397s-3.762-15.543-4.015-23.573" class="B"/><g class="F"><path d="M422.488 234.905a4.07 4.07 0 0 0 .979-1.496 11.19 11.19 0 0 0 1.001-4.763c-.035-2.424-.474-4.826-1.298-7.106-.858-2.585-2.2-5.225-3.3-8.074-1.14-2.615-1.74-5.432-1.77-8.283.077-2.574.935-4.895 1.155-6.952a8.64 8.64 0 0 0-.605-4.851c-.517-1.1-1.1-1.44-1.1-1.397s.374.517.76 1.55a9.07 9.07 0 0 1 .253 4.598c-.286 1.958-1.22 4.224-1.375 7.018a21.27 21.27 0 0 0 1.76 8.668l3.3 8.03c.83 2.178 1.32 4.47 1.452 6.798a14.49 14.49 0 0 1-1.2 6.26zm-3.806-27.148c-.066.077 1.243 1.474 3.982 2.86 3.596 1.805 7.652 2.484 11.64 1.948s7.72-2.262 10.713-4.95a11.07 11.07 0 0 0 3.08-3.806c-.143-.1-1.232 1.42-3.542 3.3a20.81 20.81 0 0 1-10.384 4.511 20.8 20.8 0 0 1-11.209-1.596c-2.76-1.22-4.17-2.4-4.28-2.266zm1.66 3.366c.588 1.253 1.422 2.376 2.453 3.3a25.02 25.02 0 0 0 8.185 5.457c3.064 1.26 6.346 1.9 9.657 1.88a10.7 10.7 0 0 0 4.026-.583c0-.176-1.55 0-4.015-.132a28.34 28.34 0 0 1-17.369-7.139 39.59 39.59 0 0 0-2.937-2.783zm-.935 31.977s.077-.1.198-.32c.187-.32.35-.656.484-1a12.04 12.04 0 0 0 .891-4.169 14.13 14.13 0 0 0-1.375-6.6c-1.302-2.774-3.547-4.996-6.336-6.27-2.96-1.474-6.6-2.255-9.317-4.928a6.85 6.85 0 0 1-1.554-2.337 6.84 6.84 0 0 1-.481-2.767 30.6 30.6 0 0 1 1.1-6.16 17.02 17.02 0 0 0 .222-6.955c-.405-2.3-1.28-4.5-2.576-6.465a14.91 14.91 0 0 0-5.5-4.994 18.09 18.09 0 0 0-7.348-1.804c-2.53-.187-5.016-.143-7.38-.484a14.06 14.06 0 0 1-6.479-2.354 10.05 10.05 0 0 1-3.498-5.5c-.553-2.176-1.244-4.314-2.068-6.402a22.93 22.93 0 0 0-7.7-9.746 18.05 18.05 0 0 0-10.307-3.3c-3.05-.043-6.037.886-8.525 2.65-1.868 1.323-3.38 3.1-4.4 5.137a11.65 11.65 0 0 0-1.177 4.092 5.68 5.68 0 0 0 0 1.485c.155-1.882.674-3.717 1.53-5.4a13.72 13.72 0 0 1 4.345-4.851c2.413-1.638 5.28-2.48 8.195-2.4a17.5 17.5 0 0 1 9.834 3.3 22.07 22.07 0 0 1 7.348 9.427 52.29 52.29 0 0 1 2.002 6.325c.564 2.376 1.908 4.494 3.817 6.017a14.97 14.97 0 0 0 6.93 2.563c2.475.352 4.972.308 7.447.495 2.415.066 4.788.643 6.963 1.694a13.82 13.82 0 0 1 5.093 4.653 16.06 16.06 0 0 1 2.427 6.112c.378 2.182.3 4.42-.227 6.57-.566 2.074-.916 4.2-1.045 6.347a7.7 7.7 0 0 0 .567 3.091 7.69 7.69 0 0 0 1.754 2.607c2.96 2.86 6.732 3.575 9.614 4.983a12.32 12.32 0 0 1 6.127 5.863 13.81 13.81 0 0 1 1.485 6.347 15.45 15.45 0 0 1-1.078 5.456z"/><path d="M408.298 180.4a2.47 2.47 0 0 0 .1-1.1 4.83 4.83 0 0 0-1.199-2.882 7.83 7.83 0 0 0-4.246-2.541 12.1 12.1 0 0 0-6.512.77c-2.3.814-4.6 2.134-7.216 3.058s-5.687 1.463-8.35 0-4.4-4.4-6.072-7.392c-1.74-3.16-3.967-6.026-6.6-8.492a31.54 31.54 0 0 0-18.7-8.437 18.08 18.08 0 0 0-8.976 1.606c-2.445 1.158-4.5 3-5.95 5.28-1.192 1.896-1.748 4.124-1.584 6.358a10.39 10.39 0 0 0 1.397 4.642 8.12 8.12 0 0 0 2.09 2.321 3.55 3.55 0 0 0 .935.55 11.27 11.27 0 0 1-2.695-3.069 10.39 10.39 0 0 1-1.254-4.554 10.08 10.08 0 0 1 1.628-5.951 13.55 13.55 0 0 1 5.709-4.906c2.685-1.194 5.63-1.686 8.558-1.43a30.97 30.97 0 0 1 18.139 8.25 33.37 33.37 0 0 1 6.457 8.25c1.727 2.926 3.465 6.072 6.48 7.7 1.443.77 3.076 1.12 4.708 1a15.53 15.53 0 0 0 4.4-.99c2.695-1 4.96-2.343 7.172-3.168 1.932-.848 4.057-1.156 6.15-.9a7.4 7.4 0 0 1 4.07 2.255 4.85 4.85 0 0 1 1.298 2.64c.077.682-.01 1.056.055 1.122zm15.994 57.266c-.052.397-.155.785-.308 1.155a21.53 21.53 0 0 1-1.32 2.981 22.34 22.34 0 0 1-17.237 11.583 20.67 20.67 0 0 1-3.3.099 5.28 5.28 0 0 1-1.188-.143c0-.1 1.705.066 4.4-.308a23.17 23.17 0 0 0 9.863-3.711 23.16 23.16 0 0 0 7.198-7.696c1.32-2.354 1.804-4.026 1.892-3.96z"/></g><path d="M374.132 255.695a4.89 4.89 0 0 1-1.386.12 15.57 15.57 0 0 1-3.773-.44 17.07 17.07 0 0 1-5.203-2.2 15.78 15.78 0 0 1-4.906-4.873 14.7 14.7 0 0 1-2.1-6.6c-.143-1.894.097-3.798.704-5.6a12.12 12.12 0 0 1 1.749-3.377 8.05 8.05 0 0 1 .66-.792c.165-.165.253-.253.275-.242a17.45 17.45 0 0 0-2.299 4.532c-.584 1.957-.753 4.015-.498 6.04a14.7 14.7 0 0 0 1.983 5.729 15.54 15.54 0 0 0 4.708 4.72 17.25 17.25 0 0 0 5.016 2.2c1.658.42 3.353.683 5.06.78zm-22.232-46.41c0 .066-.286.253-.847.308-.753.054-1.503-.152-2.123-.583a3.21 3.21 0 0 1-1.265-1.804c-.143-.55-.066-.902 0-.902s.33 1.353 1.595 2.2c.806.465 1.7.733 2.64.78zm-9.448 1.914c-.132-.1.43-1 .54-2.2s-.242-2.2-.088-2.3.803.924.66 2.354-1.012 2.288-1.1 2.145zm1.848-1.98c-.154-.077.165-.858.143-1.86s-.33-1.77-.187-1.848.76.67.76 1.848-.616 1.958-.715 1.86z" class="C"/><use xlink:href="#C" class="E"/><use xlink:href="#C" opacity=".16" fill="#000"/><path d="M411.4 308.506l1-1.97a33.36 33.36 0 0 0 2.2-5.5c.88-2.818 1.187-5.784.902-8.723-.216-1.72-.652-3.407-1.298-5.016l-2.112-5.258a21.39 21.39 0 0 1-.946-10.912 11.15 11.15 0 0 0 .231-4.62 6.6 6.6 0 0 0-2.2-3.3 10.75 10.75 0 0 0-5.346-2.365c-1.386-.2-2.2-.1-2.2-.176a1.94 1.94 0 0 1 .561-.077c.55-.058 1.1-.058 1.65 0a10.55 10.55 0 0 1 5.577 2.277c1.134.888 1.965 2.106 2.376 3.487a11.42 11.42 0 0 1-.176 4.829c-.6 3.566-.257 7.225.968 10.626.65 1.815 1.44 3.53 2.1 5.258a20.42 20.42 0 0 1 1.298 5.159c.263 3.006-.092 6.036-1.045 8.9a29.86 29.86 0 0 1-2.431 5.5c-.352.616-.638 1.1-.847 1.397s-.187.495-.253.484zm-5.83-34.023c-.414.436-.862.837-1.342 1.2l-3.916 2.96a84.39 84.39 0 0 1-14.102 7.986c-4.95 2.2-10.1 3.915-15.4 5.093a18.68 18.68 0 0 1-4.906.429c-.448-.03-.892-.093-1.33-.187-.308-.066-.462-.1-.45-.132s.638.077 1.782.088a19.42 19.42 0 0 0 4.818-.594 91.93 91.93 0 0 0 15.235-5.225 94.19 94.19 0 0 0 14.124-7.799c1.716-1.1 3.07-2.134 4.004-2.805.465-.38.96-.718 1.485-1.012zm-11.176 16.73a4.76 4.76 0 0 1-1.012.572c-.66.34-1.65.77-2.893 1.254-6.527 2.518-13.548 3.496-20.515 2.86-1.052-.094-2.098-.24-3.135-.44a5.02 5.02 0 0 1-1.1-.275c0-.1 1.64.154 4.3.308 6.896.42 13.807-.523 20.34-2.772 2.486-.924 3.982-1.595 4.026-1.507z" class="B"/><path d="M376.52 318.626s-.264-.23-.66-.704c-.548-.7-1.033-1.426-1.452-2.2-.64-1.127-1.164-2.32-1.562-3.553-.485-1.516-.805-3.08-.957-4.664a22.47 22.47 0 0 1 .11-4.752 19.2 19.2 0 0 1 .924-3.773 14.8 14.8 0 0 1 1.1-2.398c.14-.288.312-.558.517-.803.1.055-.55 1.243-1.177 3.3a21.77 21.77 0 0 0-.78 3.718 23.84 23.84 0 0 0-.066 4.642c.152 1.542.446 3.067.88 4.554a24.64 24.64 0 0 0 1.419 3.52c.935 1.98 1.793 3.047 1.705 3.113zm3.486-29.976a5 5 0 0 1 .913 3.509c.042 1.253-.377 2.478-1.177 3.443.262-1.144.464-2.3.605-3.465a29.76 29.76 0 0 0-.34-3.487zm-11.418-14.222a11.14 11.14 0 0 0-1.1 2.299 21.05 21.05 0 0 0-.605 6.16 36.89 36.89 0 0 0 1.617 8.668 7.96 7.96 0 0 1-1.1-2.398 22.25 22.25 0 0 1-1.1-6.248c-.104-2.135.167-4.272.803-6.314a4.02 4.02 0 0 1 1.485-2.167zm24.398 8.492c-.715-.63-1.32-1.373-1.793-2.2a20.57 20.57 0 0 1-3.124-13.2 9.04 9.04 0 0 1 .605-2.783c-.38 3.172-.245 6.386.396 9.515a29.41 29.41 0 0 0 3.916 8.668zm4.026 7.788a48.48 48.48 0 0 0 .462-5.104 50.89 50.89 0 0 0-.693-5.071 11.83 11.83 0 0 1 1.265 5.06c.04 1.76-.314 3.508-1.034 5.114zm3.838 24.057a2.85 2.85 0 0 1-.869-.44c-.767-.463-1.485-1-2.145-1.606-2.224-1.983-3.894-4.5-4.85-7.333a17.2 17.2 0 0 1-.596-8.77 14.25 14.25 0 0 1 .737-2.585c.095-.315.24-.612.43-.88.1 0-.44 1.33-.76 3.53-.438 2.855-.184 5.772.74 8.507s2.493 5.2 4.573 7.212c1.595 1.573 2.805 2.277 2.74 2.365zm6.876-40.337c-.452 1.7-.5 3.485-.1 5.203a25.26 25.26 0 0 0 1.97 5.368 28.77 28.77 0 0 1 2.42 6.688c.888 4.27.595 8.7-.847 12.815-.444 1.23-.992 2.418-1.64 3.553a7.35 7.35 0 0 1-.814 1.188 48.07 48.07 0 0 0 2.068-4.873 24.67 24.67 0 0 0 .67-12.562 30.3 30.3 0 0 0-2.332-6.6 23.78 23.78 0 0 1-1.892-5.5 10.06 10.06 0 0 1 0-3.927 6.77 6.77 0 0 1 .319-1.023c.1-.22.165-.33.187-.33zM357.203 309.1c-.242-.405-.433-.837-.572-1.287a15.76 15.76 0 0 1-.561-1.551l-.605-2.1a36.41 36.41 0 0 1-.98-5.6c-.207-2.316-.226-4.644-.055-6.963.202-2.317.596-4.612 1.177-6.864.493-1.828 1.125-3.615 1.892-5.346.297-.76.65-1.397.935-1.98a14.6 14.6 0 0 1 .792-1.441c.213-.416.472-.806.77-1.166.1.055-.924 1.77-2.123 4.74a39.7 39.7 0 0 0-1.738 5.346 41.46 41.46 0 0 0-1.1 13.64 40.87 40.87 0 0 0 .847 5.5l1.32 5.06z" fill="#fafafa"/><path d="M413.6 378.224s-.55-11.23-3.883-16.27-21.56-27.06-21.56-27.06a4.9 4.9 0 0 0-2.777-.473c-.953.118-1.85.51-2.58 1.133-2.453 2.2.12 6.06 2.3 10.186s5.06 8.8 5.06 8.8-30.46-33.715-34.078-32.24-2.937 3.3-1.683 5.016 11.66 14.784 11.66 14.784-15.41-19.734-19.558-17.6-1.66 3.553-.264 6.314 10.626 14.586 10.626 14.586-10.79-12.573-13.42-10.164-1.683 3.355.836 6.81l8.217 11s-5.368-2.387-6.765-.12-.088 3.608 3.157 6.138 16.808 12.793 22.088 18.216 17.72 17.622 17.72 17.622l28.05-10.703-3.146-5.973z" class="D"/><g class="C"><path d="M388.696 394.955l-17.72-17.7c-4.598-4.72-15.653-13.2-20.372-16.885l-1.705-1.32c-3.3-2.552-4.565-3.905-3.168-6.17.583-.935 1.936-1.2 3.938-.803a16.23 16.23 0 0 1 2.772.869l-8.162-10.912-.418-.583c-2.2-2.97-2.915-3.97-.418-6.26.245-.217.564-.33.89-.32h.1c1.518.088 4.08 1.88 7.612 5.324 1.782 1.738 3.366 3.487 4.213 4.4-2.057-2.64-8.855-11.407-10.02-13.74-.292-.563-.618-1.107-.98-1.628-.638-.968-1.2-1.804-.98-2.64s.89-1.364 2.2-2.08c.946-.506 2.574.1 4.818 1.815a56.23 56.23 0 0 1 6.523 6.116c1.88 2.002 3.685 4.07 5.115 5.764l-8.59-10.857c-.353-.378-.62-.83-.78-1.322a3.54 3.54 0 0 1-.145-1.527c.23-.858 1.1-1.584 2.618-2.2a1.14 1.14 0 0 1 .286 0c1.892 0 7.986 5.247 18.15 15.61 7.282 7.414 14.3 15.07 15.52 16.445-.616-1.023-3.036-5.005-4.906-8.547l-.76-1.397c-.947-1.586-1.725-3.267-2.32-5.016-.462-1.705-.22-2.915.78-3.806a4.94 4.94 0 0 1 2.596-1.135c.958-.117 1.93.048 2.794.475.176.22 18.25 22.1 21.56 27.07s3.872 15.96 3.894 16.27l3.113 6.017-28.06 10.68zm-40.7-43.032c-.418-.04-.84.026-1.223.194a2.48 2.48 0 0 0-.977.763 2.6 2.6 0 0 0-.154 2.948 13.73 13.73 0 0 0 3.3 3.157l1.705 1.32c4.72 3.64 15.774 12.166 20.383 16.896l17.7 17.7 27.995-10.692-3.08-5.984c0-.1-.594-11.286-3.894-16.247s-21.197-26.642-21.55-27.06c-.856-.417-1.815-.578-2.76-.46s-1.836.506-2.564 1.12c-.98.88-1.22 2.068-.76 3.74.596 1.75 1.374 3.43 2.32 5.016l.748 1.397c2.2 4.07 5.038 8.745 5.07 8.8-.385-.33-29.36-32.23-33.87-32.23a.65.65 0 0 0-.264 0c-1.507.627-2.354 1.342-2.596 2.2a3.52 3.52 0 0 0 .155 1.498 3.5 3.5 0 0 0 .769 1.296c1.012 1.386 8.03 10.164 10.66 13.453l1 1.243-1-1.243c-1.43-1.76-4.213-5.126-7.216-8.316-3.586-3.817-8.14-8.085-10.56-8.085a1.41 1.41 0 0 0-.726.165c-1.342.704-2.046 1.353-2.2 2.046s.32 1.595.98 2.585a16.94 16.94 0 0 1 .99 1.639c1.364 2.728 10.505 14.366 10.604 14.476-.088-.1-8.8-10.24-12.42-10.46-.173-.02-.348-.002-.515.05s-.32.136-.453.248c-2.464 2.266-1.793 3.18.43 6.193l.418.583 8.283 11.077h-.1a13.6 13.6 0 0 0-4.642-1.023z"/><path d="M373.9 353.628a26.27 26.27 0 0 1-1.716-2.75 65.71 65.71 0 0 0-4.4-6.391l-5.093-5.93c-.74-.803-1.36-1.707-1.848-2.684.077 0 .814.946 2.2 2.42l5.236 5.84c1.647 2.055 3.118 4.244 4.4 6.545a14.3 14.3 0 0 1 1.221 2.948zm-7.325 3.872a14.55 14.55 0 0 1-1.694-2.2l-4.026-5.203-4.3-4.96a15.09 15.09 0 0 1-1.782-2.079c.757.516 1.45 1.118 2.068 1.793 3.153 3.095 5.963 6.522 8.382 10.22a11.52 11.52 0 0 1 1.353 2.43zm-4.092 6.105a40.36 40.36 0 0 1-5.17-5.148l-3.432-3.84a16.41 16.41 0 0 1-1.386-1.628c.176-.187 2.54 2.1 5.236 5.082 1.704 1.738 3.3 3.586 4.752 5.533z"/></g><path opacity=".1" d="M382.855 399.993s22.055 54.835 37.5 65.56 34.672 7.47 44.957-2.2c0 0-13.904 12.562-29.04 1.1s-53.416-64.46-53.416-64.46zm37.72-62.458c-1.287 10.912 1.683 20.8.825 31.67-.32 4.17-.88 8.415 0 12.507 1.628 7.7 9.108 15.323 15.07 20.438-4.268-21.12-9.658-44-15.895-64.614z" fill="#000"/><path d="M420.046 458.16a2.67 2.67 0 0 1-1.5.293 2.66 2.66 0 0 1-1.416-.58 2.67 2.67 0 0 1-.867-1.259c-.16-.497-.173-1.028-.035-1.53s.42-.953.8-1.298a2.67 2.67 0 0 1 1.388-.642 2.68 2.68 0 0 1 2.655 1.241c.18.316.297.663.343 1.024s.02.727-.077 1.077a2.78 2.78 0 0 1-.483.966c-.223.286-.5.527-.817.706zm-19.58-24.463a2.4 2.4 0 0 1-1.294.335 2.38 2.38 0 0 1-1.27-.41 2.4 2.4 0 0 1-.856-1.026c-.183-.417-.242-.876-.174-1.326a2.4 2.4 0 0 1 1.687-1.934c.435-.13.898-.134 1.335-.01a2.4 2.4 0 0 1 1.134.707 2.64 2.64 0 0 1 .47 1.946c-.105.686-.476 1.302-1.03 1.717z" class="B"/><path d="M448.8 288.948a14.23 14.23 0 0 0-7.832-3.443c-13.76-2.046-29.557 6.6-25.3 29.876l11.495 48.4 9.35 38.423-20.482-18.964-35.52 13.563s39.424 54.032 52.107 64.812 21.68 8.558 32.68 1.782c0 0 13.596-6.193 13.486-45.1-.088-33.627-7.425-107.35-29.986-129.35z" class="G"/><g class="B"><path d="M473.253 453.046l-.275.627-.836 1.837a26.87 26.87 0 0 1-4.477 6.292 26.41 26.41 0 0 1-10.23 6.6 22.25 22.25 0 0 1-7.546 1.342 20.18 20.18 0 0 1-8.349-1.98c-5.5-2.563-10.615-6.996-15.3-12.287s-9.57-11.088-14.542-17.303c-9.9-12.452-20.515-26.4-31.416-41.25l-.22-.297.352-.143 1.66-.627 34.023-12.98.12.12 20.416 18.92-.418.253-6.743-28.083-5.324-21.67-3.42-13.98-.9-3.696-.2-.957a1.23 1.23 0 0 1-.066-.319 1.23 1.23 0 0 1 .066.319c.066.23.143.54.253.946l.968 3.674 3.553 13.948 5.445 21.66 7.03 28.864-.616-.572-20.46-18.865.286.055-33.858 12.936-1.628.67.132-.44c10.9 14.84 21.46 28.8 31.36 41.26 4.96 6.215 9.746 12.1 14.476 17.325s9.702 9.68 15.125 12.232a19.86 19.86 0 0 0 8.195 1.98 21.79 21.79 0 0 0 7.436-1.287 26.2 26.2 0 0 0 10.164-6.49 27.19 27.19 0 0 0 4.532-6.193l.9-1.804c.22-.484.34-.638.34-.638zM441.42 290.74c0 .1-1.97.12-5.06.76a33.82 33.82 0 0 0-5.28 1.562 21.4 21.4 0 0 0-5.852 3.3 15.64 15.64 0 0 0-3.97 5.313c-.762 1.676-1.373 3.418-1.826 5.203l-.858 3.64c-.068.457-.2.903-.363 1.33a6.58 6.58 0 0 1 .143-1.364l.693-3.707a28.15 28.15 0 0 1 1.727-5.324 15.68 15.68 0 0 1 4.092-5.5 21.13 21.13 0 0 1 6.017-3.3 31.07 31.07 0 0 1 5.401-1.474c1.24-.218 2.493-.35 3.75-.396.458-.082.924-.098 1.386-.044z"/><path d="M464.662 413.688c-.618-1.554-1.416-3.03-2.376-4.4a19.55 19.55 0 0 0-9.735-6.754c-3.9-1.103-7.952-1.476-11.98-1.1-1.55.1-2.805.264-3.674.363-.446.084-.9.12-1.353.1a5.74 5.74 0 0 1 1.32-.33c1.214-.242 2.44-.422 3.674-.54a30.42 30.42 0 0 1 12.188 1.001c3.98 1.2 7.456 3.686 9.9 7.05a13.47 13.47 0 0 1 1.716 3.3 5.43 5.43 0 0 1 .319 1.298zm-16.962 4.466c-.1 0-.44-1.1-1.188-2.816a29.04 29.04 0 0 0-8.943-11.385l-2.453-1.826a10.52 10.52 0 0 1 2.695 1.496 25.22 25.22 0 0 1 9.075 11.56 10.64 10.64 0 0 1 .814 2.97zm-23.44-96.866a2.92 2.92 0 0 1-1.428-.935c-.373-.447-.604-.994-.663-1.573s.053-1.162.327-1.675a2.93 2.93 0 0 1 1.205-1.208c.514-.273 1.097-.388 1.675-.33s1.127.3 1.573.66.774.87.938 1.427a2.92 2.92 0 0 1-.019 1.707 2.89 2.89 0 0 1-3.608 1.926zm28.258 1.75a3.3 3.3 0 0 1-1.85.683 3.26 3.26 0 0 1-1.9-.494 3.31 3.31 0 0 1-1.286-1.496c-.267-.617-.337-1.3-.204-1.96a3.3 3.3 0 0 1 .95-1.728c.485-.466 1.102-.77 1.767-.876a3.29 3.29 0 0 1 1.95.287 3.32 3.32 0 0 1 1.44 1.35 3.07 3.07 0 0 1 .442 2.295 3.04 3.04 0 0 1-1.3 1.94zM440.154 345.4c-1.573-.12-2.74-1.793-2.596-3.74s1.53-3.443 3.113-3.3 2.74 1.76 2.63 3.74-1.562 3.4-3.146 3.3zm21.066 9.724c-.502.243-1.065.332-1.617.256s-1.07-.313-1.488-.683a2.84 2.84 0 0 1-.86-1.394 2.81 2.81 0 0 1 .057-1.636 2.82 2.82 0 0 1 .953-1.33c.444-.34.976-.54 1.533-.578s1.112.1 1.595.368a2.83 2.83 0 0 1 1.124 1.191 2.85 2.85 0 0 1 .287 1.073c.024.372-.025.746-.145 1.1s-.3.68-.558.96a2.82 2.82 0 0 1-.882.673zM439.538 373.9c-.388.464-.908.802-1.5.97a3.03 3.03 0 0 1-1.777-.035c-.575-.2-1.08-.547-1.45-1.026a3.03 3.03 0 0 1-.624-1.664c-.037-.603.108-1.205.417-1.727a3.03 3.03 0 0 1 1.316-1.194c.548-.258 1.16-.344 1.76-.25a3.03 3.03 0 0 1 1.596.781c.58.518.934 1.244.98 2.022a2.95 2.95 0 0 1-.728 2.125zm18.512 9.703c.452.302.805.733 1.015 1.234a2.77 2.77 0 0 1-.575 3.008 2.78 2.78 0 0 1-1.4.772c-.532.115-1.087.07-1.594-.13a2.77 2.77 0 0 1-1.256-.988c-.312-.446-.5-.973-.503-1.517s.13-1.08.42-1.543c.407-.625 1.045-1.064 1.774-1.22s1.492-.02 2.12.384zm12.63 20.9c-.45-.06-.875-.245-1.222-.536a2.4 2.4 0 0 1-.747-1.106c-.14-.433-.153-.896-.04-1.335a2.4 2.4 0 0 1 1.869-1.755c.446-.086.907-.043 1.33.123s.8.448 1.057.814.428.8.46 1.254a2.65 2.65 0 0 1-2.706 2.541zm-14.686 17.314a2.54 2.54 0 0 1-1.234-.726c-.334-.355-.558-.8-.646-1.278a2.55 2.55 0 0 1 .147-1.425c.185-.45.497-.84.896-1.118a2.55 2.55 0 0 1 1.357-.457 2.52 2.52 0 0 1 1.388.35 2.53 2.53 0 0 1 .98 1.045c.22.435.3.924.258 1.4a2.73 2.73 0 0 1-1.12 1.747c-.6.412-1.317.575-2.025.453zm-9.526 14.883c-.448.4-1 .68-1.6.767a3.06 3.06 0 0 1-1.763-.27c-.547-.265-1.003-.687-1.308-1.213s-.444-1.13-.4-1.738a3.03 3.03 0 0 1 .645-1.663 3.02 3.02 0 0 1 1.466-1.014c.58-.184 1.2-.2 1.783-.016a3.03 3.03 0 0 1 1.485.988c.5.6.768 1.36.713 2.14s-.42 1.506-1 2.017zm-1.76 18.084a3.43 3.43 0 0 1 2.015.386 3.42 3.42 0 0 1 1.431 1.47 3.43 3.43 0 0 1 .334 2.024c-.1.693-.407 1.34-.885 1.85a3.43 3.43 0 0 1-3.827.822 3.42 3.42 0 0 1-1.566-1.326 3.41 3.41 0 0 1-.527-1.982 3.16 3.16 0 0 1 .846-2.243c.566-.608 1.35-.968 2.18-1.002zm-21.34-25.036a2.34 2.34 0 0 1-.306 1.107 2.33 2.33 0 0 1-.794.83 3.17 3.17 0 0 1-1.267.412c-.447.046-.898-.004-1.324-.147s-.816-.375-1.145-.68-.6-.678-.763-1.092a2.32 2.32 0 0 1-.13-1.137 2.33 2.33 0 0 1 .427-1.063 3.73 3.73 0 0 1 1.694-1.33c.538-.262 1.154-.312 1.727-.143.56.212 1.022.624 1.298 1.155a3.74 3.74 0 0 1 .583 2.1zm7.062-14.993a2.35 2.35 0 0 1-.936-.9 2.34 2.34 0 0 1-.312-1.259c.016-.44.156-.868.404-1.233a2.35 2.35 0 0 1 1-.83 2.33 2.33 0 0 1 1.287-.168 2.36 2.36 0 0 1 1.18.54c.335.286.58.666.7 1.087a2.35 2.35 0 0 1 .023 1.298 2.62 2.62 0 0 1-1.379 1.416c-.627.272-1.337.3-1.976.047zm-23.518-9.108a2.39 2.39 0 0 1-.778.878c-.33.222-.708.36-1.103.398a3.96 3.96 0 0 1-4.18-3.245c-.073-.402-.04-.816.095-1.2a2.37 2.37 0 0 1 .675-.999c.6-.455 1.352-.697 2.113-.7a3.41 3.41 0 0 1 2.1.732 3.46 3.46 0 0 1 1.226 1.854c.196.735.143 1.515-.147 2.218v.055zm61.28 34.693c.375.208.685.517.893.892a2.29 2.29 0 0 1 .284 1.231 5.84 5.84 0 0 1-4.048 5.401 2.3 2.3 0 0 1-1.265.071c-.42-.095-.805-.306-1.1-.6a2.75 2.75 0 0 1-.512-1.099 2.76 2.76 0 0 1 .006-1.21c.183-.96.6-1.866 1.188-2.64a6.05 6.05 0 0 1 2.2-1.87 2.76 2.76 0 0 1 1.164-.352 2.7 2.7 0 0 1 1.2.187z"/></g><path d="M327.8 275.594s-32.076 1.77-35.684 33.77c-2.343 20.8-21.33 102.597-12.254 113.3 9.35 11 29.568 23.848 43.494 3.894s27.632-95.7 27.632-95.7L320.1 314.94l7.7-39.347z" class="G"/><path d="M327.15 296.824s-9.053-13.43-9.23-16.137.176-8.48 1.023-8.657c0 0-.847-2.2.165-3.388s3.223-3.223 3.223-3.223-.682-3.388.682-4.235 10.34-8.48 10.34-8.48 3.73-7.634 5.764-7.8 5.6-.34 6.952.67 7.128 5.918 7.128 5.918h2.706c.858 0 3.564 5.104 3.564 5.104s2.882.34 3.564 1.87-1.353 20.515-1.353 20.515l-6.787 21.538-5.5 29.843-27.84-14.982 5.6-18.557z" class="D"/><g class="C"><path d="M327.15 296.824c-.01.105-.03.21-.066.308l-.264.924-1.1 3.63-4.092 13.74-.077-.187 27.874 14.905-.352.176 5.5-29.843 6.776-21.538.473-4.74.847-10.087.143-4.928a1.79 1.79 0 0 0-.338-1.01c-.212-.295-.508-.518-.85-.64a7.22 7.22 0 0 0-2.2-.671h-.143l-.066-.132-2.32-3.85a7.59 7.59 0 0 0-.682-.847c-.053-.057-.112-.11-.176-.154a.37.37 0 0 0-.132-.088c-.165-.018-.33-.018-.495 0h-2.3l-.077-.066-5.302-4.4-1.298-1.1a3.31 3.31 0 0 0-1.342-.825c-1.045-.27-2.122-.393-3.2-.363h-1.617a4.83 4.83 0 0 0-1.463.264 7.77 7.77 0 0 0-2.101 2.2c-1.155 1.697-2.19 3.473-3.102 5.313l-7.172 5.973-3.42 2.673c-.38.536-.57 1.18-.54 1.837-.02.67.03 1.342.154 2.002v.12l-.088.077c-1.1.968-2.057 1.936-2.96 2.915s-.77 2.365-.396 3.476l.077.23h-.22c-.146.143-.246.327-.286.528a3.98 3.98 0 0 0-.187.737c-.103.505-.18 1.015-.23 1.53a39.39 39.39 0 0 0-.209 2.959 26.36 26.36 0 0 0 0 2.783c.196.837.496 1.646.89 2.41 1.518 3.014 3.058 5.5 4.3 7.49l2.882 4.576.748 1.177a2.95 2.95 0 0 1 .242.418s-.1-.12-.286-.385l-.792-1.155a160.01 160.01 0 0 1-2.97-4.521l-4.4-7.47c-.425-.79-.742-1.633-.946-2.508a26.66 26.66 0 0 1-.055-2.827c0-.968.088-1.97.187-2.992.05-.52.128-1.038.23-1.55.046-.267.11-.532.187-.792l.165-.407c.04-.085.096-.162.166-.224a.69.69 0 0 1 .241-.139l-.132.253a5.43 5.43 0 0 1-.352-1.969c-.007-.376.06-.75.198-1.1.147-.328.352-.626.605-.88l2.97-2.948-.066.198a11.13 11.13 0 0 1-.176-2.101 3.42 3.42 0 0 1 .66-2.134l3.454-2.728 7.14-5.984-.066.077a44.55 44.55 0 0 1 3.124-5.39 8.11 8.11 0 0 1 2.288-2.376c.544-.19 1.118-.278 1.694-.264l1.64-.055a11.76 11.76 0 0 1 3.366.385c.29.086.566.208.825.363a6.81 6.81 0 0 1 .682.539l1.298 1.1 5.324 4.4-.176-.066h2.2a3.06 3.06 0 0 1 .605 0 .74.74 0 0 1 .363.176 2.09 2.09 0 0 1 .231.22c.267.283.514.584.737.902.856 1.264 1.646 2.57 2.365 3.916l-.22-.143c.842.103 1.66.35 2.42.726a3.57 3.57 0 0 1 1.1.814 1.98 1.98 0 0 1 .44 1.298c.044 1.67 0 3.34-.132 5.005a341.55 341.55 0 0 1-.847 10.109l-.473 4.74-6.787 21.538-5.632 30.162-.297-.165-27.918-15.114v-.12l4.224-13.64 1.1-3.63.297-.935c.056-.04.116-.077.176-.1z"/><path d="M357.643 265.606c-.442.113-.905.122-1.352.026s-.864-.292-1.222-.576a7.61 7.61 0 0 1-2.046-2.068 14.73 14.73 0 0 1-1.848-3.025 8.42 8.42 0 0 1-.363-3.542 8.3 8.3 0 0 1 .473-2.871 3.48 3.48 0 0 1 1.21-1.562c.396-.264.67-.297.682-.264a3.85 3.85 0 0 0-1.507 1.97 8.4 8.4 0 0 0-.33 2.739c-.094 1.113.03 2.234.363 3.3a16.91 16.91 0 0 0 1.749 2.926 8.21 8.21 0 0 0 1.837 2.035c.694.5 1.505.813 2.354.913zm2.772 11.187a5.79 5.79 0 0 1-2.2-.539 8.92 8.92 0 0 1-2.2-1.1c-.838-.613-1.523-1.4-2.002-2.332-.797-1.693-1.047-3.593-.715-5.434.055-.766.26-1.514.605-2.2-.02.737-.1 1.472-.2 2.2-.195 1.752.1 3.523.825 5.126a7.7 7.7 0 0 0 3.85 3.377c.7.258 1.383.56 2.046.902zM351.88 294.9c-1.312-2.247-2.782-4.397-4.4-6.435a56.56 56.56 0 0 0-5.643-5.357 7.41 7.41 0 0 1 1.991 1.177 23.51 23.51 0 0 1 4.092 3.806 24.1 24.1 0 0 1 3.09 4.653 6.97 6.97 0 0 1 .869 2.156zm1.56-2.75c-.1 0-.198-.803-.748-1.958a10.99 10.99 0 0 0-3.124-3.839 27.03 27.03 0 0 0-4.29-2.673 8.76 8.76 0 0 1-1.848-1.1 6.75 6.75 0 0 1 2.024.693c1.596.66 3.098 1.53 4.466 2.585 1.4 1.077 2.475 2.5 3.146 4.125a3.85 3.85 0 0 1 .374 2.167zm-4.08 8.777s-.253.66-1.1 1.42a7.52 7.52 0 0 1-3.859 1.881 7.51 7.51 0 0 1-4.259-.539c-1.012-.462-1.507-.957-1.463-1a15.36 15.36 0 0 1 1.606.616 8.14 8.14 0 0 0 4.012.35c1.345-.22 2.613-.776 3.688-1.615.88-.638 1.298-1.166 1.375-1.1z"/></g><path d="M332.52 253.517a25.81 25.81 0 0 1 4.257-2.673 5.71 5.71 0 0 1 2.024-.55c.835.014 1.657.21 2.41.572 3.524 1.474 6.712 3.65 9.372 6.39.9.832 1.588 1.865 2.013 3.014.23.91.31 1.848.242 2.783 0 2.2-.036 4.378-.1 6.534a5.58 5.58 0 0 1-.352 2.266 3 3 0 0 1-.893 1.02 2.99 2.99 0 0 1-2.605.435 3.01 3.01 0 0 1-1.177-.674" class="D"/><path d="M347.7 272.635c.43.323.925.546 1.452.65a3.14 3.14 0 0 0 1.804-.275c.366-.16.69-.407.937-.72s.42-.68.493-1.074a20.14 20.14 0 0 0 .132-3.047v-3.564c.075-1.285.034-2.573-.12-3.85-.373-1.3-1.113-2.486-2.134-3.388a28.6 28.6 0 0 0-6.38-4.895 27.64 27.64 0 0 0-3.168-1.529 4.13 4.13 0 0 0-2.882-.286c-1.405.46-2.73 1.135-3.927 2.002-.44.337-.916.624-1.42.858a10.75 10.75 0 0 1 1.287-1.034c1.176-.96 2.513-1.705 3.95-2.2.495-.17 1.02-.233 1.54-.187.556.06 1.1.197 1.617.407 1.13.438 2.232.945 3.3 1.518a28.17 28.17 0 0 1 6.534 4.961 7.57 7.57 0 0 1 2.277 3.663c.157 1.32.2 2.654.1 3.982L353 268.18c.02 1.05-.055 2.1-.22 3.135-.098.444-.3.86-.595 1.208a2.82 2.82 0 0 1-1.088.794 3.29 3.29 0 0 1-1.969.198c-.405-.088-.782-.274-1.1-.54-.253-.176-.34-.33-.33-.34z" class="C"/><path d="M340.88 278.938a5.35 5.35 0 0 0 6.138 1.1l.517-6.6a8.11 8.11 0 0 0-.187-3.3c-.3-.746-.716-1.44-1.232-2.057-1.82-2.54-3.832-4.938-6.017-7.172a5.69 5.69 0 0 0-7.535-1.606 35.33 35.33 0 0 0-11 7.392" class="D"/><path d="M321.52 266.706s.1-.154.33-.396l1.034-1.034a33.45 33.45 0 0 1 4.246-3.3l3.223-1.88a21.64 21.64 0 0 1 3.982-1.65 4.82 4.82 0 0 1 2.409 0 6.22 6.22 0 0 1 2.2 1.1 29.33 29.33 0 0 1 3.608 3.597l3.3 4.18a16.24 16.24 0 0 1 1.441 2.123 5.26 5.26 0 0 1 .54 2.442l-.67 8.15v.12h-.088a5.5 5.5 0 0 1-2.445.506 5.48 5.48 0 0 1-2.417-.627 4.8 4.8 0 0 1-1.1-.781c-.2-.22-.297-.352-.286-.363.453.366.944.683 1.463.946.716.344 1.5.522 2.294.522a5.29 5.29 0 0 0 2.293-.522l-.1.165.528-8.118c.024-.763-.146-1.52-.495-2.2a15.29 15.29 0 0 0-1.408-2.035l-3.3-4.147c-1.07-1.27-2.245-2.452-3.5-3.53a5.78 5.78 0 0 0-2.024-1.1 4.28 4.28 0 0 0-2.145 0c-1.342.393-2.642.916-3.883 1.562-1.188.583-2.266 1.2-3.223 1.793a39.19 39.19 0 0 0-4.312 3.146c-.47.47-.96.913-1.474 1.33zm10.856 11.89c.088 0 .066.693-.605 1.397a11.68 11.68 0 0 1-2.882 2.2 8.67 8.67 0 0 1-4.917 1.32c1.6-.494 3.142-1.104 4.642-1.826 1.022-.57 1.983-1.24 2.87-2.002a5.05 5.05 0 0 0 .89-1.09z" class="C"/><path d="M331.298 276.364c.19.513.513.965.936 1.31s.933.57 1.473.65c-.03.783.114 1.563.425 2.283s.777 1.36 1.368 1.875a2.65 2.65 0 0 0 1.595.737c1.2 0 2.068-1.1 2.684-2.1l2.013-3.718c.186-.217.326-.47.408-.742a2.05 2.05 0 0 0 .075-.845 2.06 2.06 0 0 0-.273-.802 2.04 2.04 0 0 0-.573-.625l-4.5-4.4a7.46 7.46 0 0 0-2.277-1.705 7.35 7.35 0 0 0-3.872 0c-4.19.737-8.03 1.694-11.616 4.004" class="D"/><path d="M319.1 272.217s.12-.12.374-.297c.372-.263.758-.505 1.155-.726 1.454-.812 2.993-1.464 4.587-1.947a42.6 42.6 0 0 1 7.249-1.529c.745-.065 1.494.03 2.2.275a6.07 6.07 0 0 1 1.914 1.309l4.4 4.4a10.38 10.38 0 0 1 1.1 1.177 1.98 1.98 0 0 1 .295.824c.036.292.006.6-.086.87a6.32 6.32 0 0 1-.627 1.408l-1.287 2.52a8.23 8.23 0 0 1-1.562 2.2 2.9 2.9 0 0 1-1.188.67 2.12 2.12 0 0 1-1.309-.088 4.32 4.32 0 0 1-1.76-1.496c-.728-1-1.078-2.245-1-3.487l.12.154a3.05 3.05 0 0 1-1.166-.447c-.353-.226-.657-.524-.9-.873a2.27 2.27 0 0 1-.286-.572c0-.132-.055-.2 0-.2s.12.264.45.693a3.05 3.05 0 0 0 1.98 1.1h.132v.154a5.07 5.07 0 0 0 1.034 3.223 3.81 3.81 0 0 0 1.595 1.309c.345.12.72.136 1.074.044a1.85 1.85 0 0 0 .917-.56c.6-.648 1.088-1.392 1.44-2.2l1.342-2.497c.462-.858.946-1.815.44-2.54-.307-.396-.65-.765-1.023-1.1l-4.4-4.4a5.8 5.8 0 0 0-1.727-1.21c-.634-.227-1.3-.313-1.98-.253a46.23 46.23 0 0 0-7.161 1.386 27.04 27.04 0 0 0-4.609 1.76 16.37 16.37 0 0 1-1.749.957zm12.924 6.623c0 .066-.308.308-.946.45-.844.157-1.714.1-2.53-.165a6.61 6.61 0 0 1-3.025-1.76c.1-.176 1.452.638 3.2 1.2a6.73 6.73 0 0 0 2.3.32c.594-.033.968-.132 1-.055z" class="C"/><path d="M279.84 405.306v-.495l.055-1.496c.17-1.903.54-3.784 1.1-5.6a47.81 47.81 0 0 1 3.553-8.37c1.617-3.157 3.762-6.6 5.973-10.483 2.28-4.32 4.212-8.814 5.775-13.442 1.826-4.94 3.64-10.33 6.193-15.74 4.906-10.88 9.9-23.1 15.147-35.96l.12-.297.275.154 6.92 3.663 26.136 13.87v.22l-4.114 15.763c-.616 2.53-1.18 5.013-1.694 7.447l-1.54 7.106c-1.1 4.587-2.2 8.877-2.904 12.947s-1.606 7.788-2.464 11.154c-1.727 6.7-3.3 12-4.4 15.62l-1.298 4.147a27.08 27.08 0 0 0-.352 1.1l-.132.363a1.9 1.9 0 0 1 .088-.374l.297-1.1 1.2-4.17c1.045-3.64 2.585-8.932 4.268-15.653.825-3.366 1.705-7.073 2.387-11.143s1.782-8.393 2.85-12.98c.54-2.288 1.012-4.653 1.518-7.095s1.1-4.928 1.672-7.47c1.2-5.082 2.607-10.35 4.092-15.785l.132.308-32.824-17.413.396-.143-15.202 35.948c-2.563 5.4-4.4 10.747-6.237 15.697a92.73 92.73 0 0 1-5.863 13.475c-2.2 3.883-4.4 7.293-6.05 10.428a50.52 50.52 0 0 0-3.619 8.294 30.04 30.04 0 0 0-1.221 5.555c0 .638-.077 1.1-.1 1.485s-.132.473-.132.473zm18.447 4.19c-1.496.506-3.234-.65-3.872-2.563s.055-3.872 1.562-4.4 3.234.65 3.872 2.563-.066 3.905-1.562 4.4zm15.213-29.172a2.19 2.19 0 0 1 .432 1.113c.04.404-.034.8-.212 1.175a4.18 4.18 0 0 1-5.346 1.991 2.19 2.19 0 0 1-.928-.748c-.236-.33-.374-.718-.403-1.122-.03-.768.217-1.52.693-2.123.427-.595 1.02-1.05 1.705-1.3.686-.252 1.432-.298 2.145-.132a3.3 3.3 0 0 1 1.914 1.155zm5.148 30.558a3.55 3.55 0 0 1-2.1-.383 3.54 3.54 0 0 1-1.85-3.626 3.53 3.53 0 0 1 .922-1.927c.5-.533 1.148-.896 1.86-1.046a3.55 3.55 0 0 1 2.124.215c.67.288 1.234.775 1.616 1.396a3.54 3.54 0 0 1 .519 2.071c.024.846-.287 1.668-.867 2.286a3.21 3.21 0 0 1-2.224 1.014zm14.817-49.51a2.33 2.33 0 0 1 .646.96c.13.37.166.766.102 1.152a3.52 3.52 0 0 1-.54 1.276 3.51 3.51 0 0 1-.996.965 3.47 3.47 0 0 1-1.29.502 3.49 3.49 0 0 1-1.385-.037c-.377-.1-.72-.312-1-.6a2.4 2.4 0 0 1-.596-.994 3.49 3.49 0 0 1 .088-2.2 2.81 2.81 0 0 1 1.1-1.518c.558-.337 1.213-.472 1.86-.385a3.47 3.47 0 0 1 2.013.869zm-15.28-17.072a3.31 3.31 0 0 1 .383 1.936 3.25 3.25 0 0 1-.8 1.808c-.45.508-1.03.87-1.682 1.034a3.3 3.3 0 0 1-3.512-5.092 3.3 3.3 0 0 1 1.564-1.204 3.05 3.05 0 0 1 2.332-.074 3.06 3.06 0 0 1 1.705 1.592zm14.817-6.996a2.2 2.2 0 0 1-2.409.66 6.21 6.21 0 0 1-3.212-2.232c-.802-1.07-1.24-2.37-1.243-3.708a2.21 2.21 0 0 1 .324-1.265c.235-.38.578-.68.985-.858a2.83 2.83 0 0 1 1.222-.056c.406.07.793.228 1.132.463a7.45 7.45 0 0 1 2.2 1.98 7.38 7.38 0 0 1 1.287 2.629 2.86 2.86 0 0 1 .12 1.225 2.87 2.87 0 0 1-.406 1.162zm-37.96 14.344a3.16 3.16 0 0 1 .891 2.068 4.1 4.1 0 0 1-.418 2.21c-.342.683-.867 1.26-1.518 1.66-.64.447-1.426.64-2.2.54-.405-.073-.782-.257-1.087-.534s-.527-.632-.64-1.028a4.46 4.46 0 0 1 .306-3.192 4.47 4.47 0 0 1 2.367-2.165c.386-.15.806-.2 1.213-.1s.784.268 1.086.55zm4.158-18.05a3.31 3.31 0 0 1-1.7.955c-.643.138-1.335.075-1.952-.183s-1.14-.695-1.503-1.257-.545-1.22-.525-1.888a3.29 3.29 0 0 1 .638-1.852c.396-.538.945-.945 1.575-1.165a3.3 3.3 0 0 1 1.959-.066c.644.177 1.22.544 1.65 1.056.565.6.87 1.403.845 2.228a3.11 3.11 0 0 1-.977 2.172zm6.006-27.797c1.474-.583 3.498 1.012 4.5 3.575s.66 5.104-.814 5.687-3.487-1.012-4.5-3.564-.65-5.07.814-5.698zm8.37-12.386a3.31 3.31 0 0 1-.046 1.967 3.29 3.29 0 0 1-1.157 1.59c-.538.4-1.186.627-1.857.65s-1.332-.16-1.897-.522a3.3 3.3 0 0 1-1.262-1.508c-.258-.62-.32-1.303-.18-1.96a3.3 3.3 0 0 1 2.736-2.573 3.09 3.09 0 0 1 3.663 2.354zm103.07-156.354c-.98-.025-1.944-.257-2.827-.682.927-.325 1.914-.448 2.893-.363 1.584 0 2.85.297 2.827.693s-1.32.55-2.893.352zm-2.75 5.5c-1.1-1.155-1.848-2.2-1.727-2.343s1.22.583 2.442 1.584 2.002 2.057 1.727 2.354-1.364-.43-2.442-1.595zm-5.643 2.44c-.146-.97-.082-1.96.187-2.904a6.81 6.81 0 0 1 .847 2.783c.297 1.562.2 2.86-.187 2.904s-.77-1.2-.847-2.783zm-5.896-1.76c.957-1.254 1.86-2.2 2.013-2.1a6.79 6.79 0 0 1-1.1 2.673c-.78 1.386-1.683 2.332-2.013 2.112s.143-1.42 1.1-2.684zm-3.378-5.125a6.67 6.67 0 0 1 2.893-.319 7.1 7.1 0 0 1-2.596 1.32c-1.474.56-2.772.704-2.893.33s1.056-.98 2.596-1.33zm.705-6.105c1.408.726 2.497 1.44 2.42 1.606a6.95 6.95 0 0 1-2.838-.65c-1.485-.528-2.574-1.243-2.42-1.617s1.43-.066 2.838.66zm4.465-4.224a6.9 6.9 0 0 1 .825 2.783c-.165.088-.957-.957-1.76-2.32s-1.177-2.607-.825-2.783 1.144.858 1.76 2.32zm6.15-.374a7.04 7.04 0 0 1-1.166 2.673c-.162-.97-.113-1.965.143-2.915.253-1.562.77-2.76 1.166-2.662s.308 1.397-.143 2.904zm4.928 3.663c-.768.613-1.656 1.055-2.607 1.298-.1-.143.78-1.1 1.98-2.134s2.365-1.617 2.596-1.298-.65 1.276-1.97 2.134zm-121.154 56a7.92 7.92 0 0 1-2.816-.737c.936-.285 1.917-.393 2.893-.32 1.584 0 2.85.308 2.816.737s-1.33.572-2.893.32zm-3.464 5.082a8.06 8.06 0 0 1-1.188-2.662c.132-.088 1.1.847 2.057 2.068s1.54 2.42 1.177 2.662-1.276-.682-2.046-2.068zm-6.14.472a8.01 8.01 0 0 1 1.342-2.585 7.7 7.7 0 0 1-.33 2.893c-.33 1.54-.935 2.706-1.342 2.585s-.264-1.43.33-2.893zm-4.2-4.52c.913-.355 1.88-.544 2.86-.56a8.12 8.12 0 0 1-2.475 1.551c-1.408.704-2.695.957-2.86.56s.957-1.1 2.475-1.55zm.902-6.072a7.97 7.97 0 0 1 2.2 1.881 7.9 7.9 0 0 1-2.75-.968c-1.43-.66-2.43-1.507-2.2-1.88s1.452.066 2.75.968zm5.313-3.09a7.81 7.81 0 0 1-.088 2.915c-.474-.855-.797-1.785-.957-2.75-.374-1.54-.33-2.85.088-2.915s.858 1.166.957 2.75zm5.742 2.223a7.81 7.81 0 0 1-2.332 1.749c.372-.927.913-1.778 1.595-2.508.968-1.254 2.013-2.035 2.332-1.75s-.43 1.452-1.595 2.508zm149.765-28.755c-.955-.173-1.9-.438-2.794-.792.956-.155 1.925-.222 2.893-.198 1.584 0 2.85.32 2.805.792s-1.364.56-2.904.198zM437.8 156.2c-.125-.962-.16-1.935-.1-2.904a17.26 17.26 0 0 1 1.1 2.706c.517 1.485.572 2.805.1 2.904s-.946-1.166-1.1-2.706zm-4.83-2.838a15.52 15.52 0 0 1 2.728-1.012 14.65 14.65 0 0 1-2.2 1.87c-1.265.957-2.497 1.408-2.728 1s.748-1.22 2.2-1.86zm1.167-5.49c.673.7 1.274 1.466 1.793 2.288a15.65 15.65 0 0 1-2.453-1.551c-1.298-.902-2.112-1.936-1.804-2.288s1.43.352 2.464 1.55zm5.577-.593a14.77 14.77 0 0 1-1.617 2.41c.152-.957.388-1.9.704-2.816.462-1.507 1.188-2.607 1.617-2.4s.1 1.463-.704 2.816zM315.337 254.826a10.38 10.38 0 0 1-1.595.099h-4.4c-3.674 0-8.745-.154-14.3-.352l-18.7-.682a8.52 8.52 0 0 1-1.595-.121 7.75 7.75 0 0 1 1.595-.099h4.4c3.674 0 8.745.154 14.3.34l18.7.682c.535-.01 1.07.034 1.595.132zm-1.122-5.313c-.066.143-6.4-2.387-14.135-5.654s-13.98-6.05-13.926-6.193 6.4 2.387 14.146 5.665 13.98 6.04 13.915 6.182zm.55 11.264a67.01 67.01 0 0 1-7.634 4.5 71.92 71.92 0 0 1-7.92 4.004 68.13 68.13 0 0 1 7.645-4.51 67.79 67.79 0 0 1 7.909-4.004z" class="B"/><defs ><path id="B" d="M397.034 267.652c4.49-1.893 9.24-3.09 14.09-3.553 6.182-.76 13.2-.704 17.655 3.663 4.18 4.103 4.928 11 9.647 14.51 3.64 2.684 8.558 2.497 13.057 3.047a40.43 40.43 0 0 1 25.432 14.179 51.54 51.54 0 0 1 11.374 27.093c1.386 11.56-.45 24.123 5.412 34.177 5.225 8.965 15.4 13.76 25.432 16.577-6.215 10.054-41.294 31.427-52.26 35.86l-10.252-86.108s-40.27-46.442-54.516-45.837l-5.07-13.607z"/><path id="C" d="M358.963 273.812c3.003 1.88 6.93 1.265 10.274.077 6.776-2.41 12.64-6.83 19.118-9.9s14.3-4.83 20.757-1.595c1.397.704 2.805 1.793 3.047 3.3.024 1.245-.235 2.478-.76 3.608-2.2 6.787 2.365 13.706 3.784 20.68a24.73 24.73 0 0 1-1.848 14.756c-2.115 4.613-5.6 8.463-9.977 11.028-5.07 2.838-11 3.74-16.84 3.707-11.374-.066-23.1-3.85-31.01-11.98a17.39 17.39 0 0 1-4.224-6.314 18.51 18.51 0 0 1-.385-8.679 46.51 46.51 0 0 1 7.909-19.855"/></defs></svg>