<svg xmlns="http://www.w3.org/2000/svg" width="76" height="73" fill="none" xmlns:v="https://vecta.io/nano"><g clip-path="url(#A)"><g fill="#c74841"><path d="M64.712 53.335l3.47 2.2c-1.938 2.82-4.296 5.358-7 7.53V55.58l3.53-2.245zM32.945 20.787v4.5h-2.353l-1.177-2.245 3.53-2.245zm35.295 10.1l1.177-1.122L68.24 26.4l-5.88-4.5v-1.122h-4.706L52.946 21.9H48.24l-1.177-2.245H41.18l-2.353 3.367h4.706l1.176 2.245-3.53 1.122h-2.353L32.943 32v3.367h1.176l4.706-4.5h2.353l2.353 4.5h3.53v2.245h-5.88L40.005 36.5h-2.353l-7.06 5.612v4.5l2.353 2.245h5.883v1.122l1.176 2.245v3.367l1.177 5.612h4.706l3.53-5.612V54.46l-1.176-2.245 3.53-2.245v-2.245h-5.883V41h2.353l1.176 3.367h3.53V41l-1.177-2.245 4.706 1.122v4.5h1.176L61.182 41l1.176 4.5v4.5h2.353v-4.5h2.353v-1.122l-2.353-2.245h1.176l1.177-3.367V36.5h2.353v-3.367L68.24 32v-1.122zM21.18 15.176l-4.706 1.122-7.06 5.612L4.7 26.4v2.245h2.353v10.1l2.447 1.55 1.082.696 3.53 4.5v4.5l2.353 1.122 1.177 6.734h2.353l3.53-4.5V51.1l1.177-2.245-3.53-3.367-2.353-3.367h-4.71l-1.177-3.367H10.6V36.5h3.53v-2.245L16.473 32v-2.245l3.53-1.122V27.52l-1.176-2.245h-3.53L14.12 27.52l-2.352-1.12 1.177-2.245 2.353-2.245 1.177 1.122 2.353-1.122v-2.245l-1.177-1.122h4.706v5.612H24.7V21.9l3.53-1.122 3.53-4.5v-1.122l1.177-1.122V11.8L21.18 15.176z"/></g><path d="M1.18 36.5c.002-5.417 1.33-10.76 3.88-15.6s6.247-9.048 10.8-12.285 9.837-5.415 15.43-6.36a38.17 38.17 0 0 1 16.78.915c5.443 1.547 10.43 4.285 14.568 7.996s7.31 8.292 9.263 13.38a33.3 33.3 0 0 1 1.99 15.921c-.645 5.382-2.6 10.547-5.705 15.08l-3.47-2.21-3.53 2.245v7.497c-5.312 4.278-11.794 7.02-18.684 7.9s-13.9-.134-20.206-2.927S10.65 60.804 6.91 55.214 1.18 43.132 1.18 36.5zm27.06-15.713l3.53-4.49v-1.122l1.177-1.122V11.81L21.18 15.176l-4.706 1.122-7.06 5.612L4.71 26.4v2.245h2.353v10.1l2.447 1.55 1.082.696 3.53 4.49v4.49l2.353 1.122 1.177 6.734h2.353l3.53-4.49V51.1l1.177-2.245-3.53-3.367-2.353-3.367H14.12l-1.177-3.367H10.59V36.5h3.53v-2.245l2.353-2.245v-2.245l3.53-1.122V27.52l-1.176-2.245h-3.53L14.12 27.52 11.768 26.4l1.177-2.245 2.353-2.245 1.177 1.122 2.353-1.122v-2.245l-1.177-1.122h4.706v5.612H24.7V21.9l3.53-1.122zm1.177 2.245l1.177 2.245h2.353v-4.49l-3.53 2.245zm22.354 24.69h-5.883V40.99h2.353l1.176 3.367h3.53V40.99l-1.177-2.245 4.706 1.122v4.49h1.176l3.53-3.367 1.176 4.49v4.49h2.353v-4.49h2.353v-1.122l-2.353-2.245h1.176l1.177-3.367V36.5h2.353v-3.367L68.24 32.01v-1.122l1.177-1.122L68.24 26.4 62.36 21.9v-1.122h-4.706L52.946 21.9H48.24l-1.177-2.245H41.18l-2.353 3.367h4.706l1.176 2.245-3.53 1.122h-2.353l-5.883 5.612v3.367h1.176l4.706-4.49h2.353l2.353 4.49h3.53v2.245H41.18L40.005 36.5h-2.353l-7.06 5.612v4.49l2.353 2.245h5.883v1.122l1.176 2.245v3.367l1.177 5.612h4.706l3.53-5.612v-1.122l-1.176-2.245 3.53-2.245v-2.245z" fill="#34c1ad"/><g fill="#ad3a34"><path d="M61.182 57.364v5.713a35.13 35.13 0 0 0 7-7.53l-1.492-.95c-1.75 1.072-3.593 1.998-5.508 2.77zM45.887 61.2l.713-1.134a38.45 38.45 0 0 1-5.765-.504l.346 1.638h4.706zM4.7 26.4v2.245h2.353v10.1l2.447 1.55 1.082.696 3.53 4.5v4.5l2.353 1.122 1.177 6.734h2.353l3.53-4.5V51.85a35.35 35.35 0 0 1-8.389-9.74H14.12l-1.177-3.367H10.6V36.5h1.95a33.06 33.06 0 0 1-1.63-15.78L9.415 21.9 4.7 26.4z"/></g><g fill="#21abab"><path d="M10.59 38.745h2.353l1.177 3.367h1.024c-1.04-1.793-1.91-3.67-2.603-5.612h-1.95v2.245z"/><path d="M47.064 60.07c-.155 0-.308-.01-.464-.01l-.713 1.134H41.18l-.344-1.637c-6.385-1.05-12.36-3.7-17.304-7.703v1.484l-3.53 4.5H17.65L16.474 51.1l-2.353-1.122v-4.5l-3.53-4.5-1.082-.696-2.447-1.55v-10.1H4.7V26.4l4.706-4.5 1.498-1.2a33.41 33.41 0 0 1 3.581-11.1c-3.754 2.9-6.867 6.486-9.157 10.544s-3.712 8.5-4.183 13.098a33.27 33.27 0 0 0 1.439 13.623c1.42 4.405 3.745 8.497 6.838 12.04s6.892 6.46 11.178 8.6 8.972 3.424 13.786 3.8 9.662-.144 14.26-1.56 8.856-3.7 12.525-6.687v-5.713a37.88 37.88 0 0 1-14.118 2.705zm21.118-4.524c.738-1.088 1.412-2.215 2.018-3.375a37.85 37.85 0 0 1-3.5 2.424l1.492.95z"/></g><path d="M50.23 11.81h-6.694V8.442c4.294.056 6.047 2.155 6.694 3.367z" fill="#96e0ff"/><path d="M23.827 9.194L19.7 1.708h4.118l8.836 7.127-8.836.46v-.1z" fill="#d4d4d4"/><path d="M43.534 11.81h6.694a3.54 3.54 0 0 1 .365.842s0 2.525-4.118 2.525h-8.683l-13.177 8.98H19.12l7.694-8.98H6.72a4.12 4.12 0 0 1-2.554-.721 3.8 3.8 0 0 1-1.505-2.096L1.18 5.075h3.082l5.153 5.05 14.412-.83 8.836-.46 10.718-.393h.153v3.367z" fill="#e3e3e3"/><g fill="#ad3a34"><path d="M13.65 18.543h9.636l-.93 1.084v.752l4.46-5.203H21.18l-4.706 1.122-2.824 2.245zm3.865 6.734l-1.924 2.245h4.412l-1.176-2.245h-1.312z"/></g><g fill="#21abab"><path d="M16.474 16.298l4.706-1.122H8.844a34.79 34.79 0 0 0-2.435 3.367h7.242l2.824-2.245zm8.142 7.856H19.12l3.235-3.776v-.752l-4.84 5.65h1.312l1.176 2.245h1.082l13.177-8.98h8.683c4.118 0 4.118-2.525 4.118-2.525a3.55 3.55 0 0 0-.365-.842v-.01l-.22.01H37.79L24.7 24.1v.064h-.094z"/></g><g fill="#bfbfbf"><path d="M27.145 7.32a2.35 2.35 0 0 1-1.1-.266c-.33-.176-.633-.427-.847-.734l-3.222-4.612H19.7l4.118 7.486v.1l8.836-.46-1.88-1.515h-3.64zm-19.68 6.733a3.64 3.64 0 0 1-2.172-.713 3.37 3.37 0 0 1-1.252-1.837l-1.685-6.43H1.18l1.482 7.284a3.8 3.8 0 0 0 1.505 2.096 4.12 4.12 0 0 0 2.554.721h19.95l1.568-1.122H7.464zm40.776 0h-9.412l-1.177 1.122.02.082.118-.082h8.685c4.118 0 4.118-2.525 4.118-2.525s-.026-.1-.088-.264a2.24 2.24 0 0 1-.836 1.199 2.43 2.43 0 0 1-1.428.467z"/></g><path d="M45.887 10.686h3.53C48.192 9.423 46.5 8.652 44.71 8.53v1.035c0 .298.124.583.345.794s.52.33.832.33z" fill="#b3f5ff"/></g><defs><clipPath id="A"><path fill="#fff" transform="translate(.003 .585)" d="M0 0h75.298v71.83H0z"/></clipPath></defs></svg>