<svg xmlns="http://www.w3.org/2000/svg" width="250" height="262" fill="none" xmlns:v="https://vecta.io/nano"><style><![CDATA[.B{fill:#e0e0e0}.C{fill:#f5f5f5}.D{fill:#ebebeb}]]></style><g class="D"><path d="M5.866 158.597l2.782 10.4s23.794-5.435 35.092-4.28c4.673 11.86 11.805 22.594 20.927 31.498-2.436 7.55-5.86 14.746-10.185 21.397l8.86 6.034a65.45 65.45 0 0 1 15.278-16.305 85.53 85.53 0 0 0 10.827 5.992 88.11 88.11 0 0 0 23.024 7.232c1.027 7.318 3.08 24.308 1.455 33.723l10.57 1.84s5.392-25.42 11.298-34.62a90.59 90.59 0 0 0 36.504-11.384c5.662 4.85 10.67 10.418 14.893 16.562l9.072-5.863a64.86 64.86 0 0 1-9.415-20.756A88.76 88.76 0 0 0 205.977 177c6.847.94 24.607 3.723 33.51 8.045l4.707-9.63s-21.397-11.384-29.272-19.515c2.18-7.832 3.304-15.92 3.338-24.05 7.028-2.412 14.333-3.92 21.74-4.493l-.642-10.7a63.82 63.82 0 0 1-22.81-2.396 90.66 90.66 0 0 0-10.57-28.074c2.9-3.766 15.834-20.242 24.907-26.32l-5.99-8.944s-23.837 14.764-33.98 15.963a88.11 88.11 0 0 0-18.83-14.037c1.317-7.9 3.692-15.587 7.06-22.853l-9.5-4.665s-7.06 14.68-14.936 20.028a89.87 89.87 0 0 0-26.276-4.28c-.428-.984-9.93-23.11-10.827-35.007l-10.57.77s1.07 28.8-3.124 37.49c-11.555 3.176-22.363 8.623-31.8 16.022S54.834 76.96 49.004 87.43c.5-1.225 1.085-2.412 1.755-3.552 0 0-24.82-2.953-35.863-8.302l-4.622 9.543s24.82 13.224 30.642 21.398c-3.318 11.456-4.307 23.46-2.9 35.306-3.852 2.482-21.483 13.95-32.14 16.775zM165.364 49.255l-3.124-1.327 3.124 1.327z"/><path d="M59.317 40.14l8.816-5.863C72.966 41.13 78.727 47.28 85.25 52.55c-5.906 2.996-16.476 10.27-16.476 10.27-.513-9.5-9.458-22.68-9.458-22.68z"/></g><path d="M59.873 136.772c4.665-.257 7.703-8.9 14.037-19.557.685-1.37 1.67-2.696 2.525-4.28s1.883-2.824 2.825-4.28a103.07 103.07 0 0 1 6.933-8.56c10.652-12.138 25.218-20.163 41.17-22.68a101.92 101.92 0 0 1 10.913-1.284h9.972c12.367.342 21.397 2.397 24.05-1.412a4.29 4.29 0 0 0 .428-3.595c-.526-1.888-1.43-3.65-2.654-5.178a42.03 42.03 0 0 0-15.706-11.983 57.02 57.02 0 0 0-6.119-2.525c-2.183-.813-4.537-1.412-6.933-2.054a77.43 77.43 0 0 0-15.963-1.84c-19.44-.163-38.16 7.358-52.082 20.927-8.2 7.978-14.442 17.73-18.274 28.502-.77 2.397-1.498 4.708-2.01 6.933s-.94 4.28-1.113 6.548c-.983 6.608-.382 13.356 1.755 19.686.62 1.858 1.627 3.564 2.953 5.007.394.5.894.903 1.464 1.185a4.28 4.28 0 0 0 1.831.441z" fill="#fafafa"/><path d="M224.464 44.762c-1.626 1.027-.3 6 2.953 11a32.41 32.41 0 0 0 3.424 4.28c2.268 2.354 4.28 3.5 5.435 2.825s.3-6-2.953-11.04-7.104-8.13-8.86-7.06zM242 111.138c-1.926 0-3.295 4.964-3.038 10.956.07 1.858.314 3.707.727 5.52.77 3.124 2.012 5.22 3.296 5.136s3.295-5.007 2.995-10.956-2.054-10.74-3.98-10.656zm7.06 60.812c-1.7-.9-5.306 2.74-8.002 8.046a26.93 26.93 0 0 0-2.054 5.178c-.9 3.124-.856 5.52.3 6.077s5.307-2.74 8.003-8.046 3.5-10.4 1.754-11.255zm-46.945 48.402c-1.07-1.626-6-.342-11.04 2.9a31.71 31.71 0 0 0-4.28 3.381c-2.353 2.268-3.5 4.28-2.824 5.435s6 .343 10.998-2.9 8.174-7.2 7.147-8.816zm-73.095 39.585c.343-1.926-4.28-4.28-10.014-5.478a29.07 29.07 0 0 0-5.52-.556c-3.2 0-5.52.727-5.778 1.968-.342 1.926 4.28 4.28 10.014 5.478s10.913.47 11.298-1.412zm-63.165-30.984c1.113-1.583-1.97-5.7-6.847-9.115a29.91 29.91 0 0 0-4.836-2.782c-2.953-1.326-5.306-1.583-6.077-.556s1.97 5.65 6.9 9.115 9.757 4.922 10.87 3.338zm-58.887-54.22c1.883-.47 2.225-5.563.77-11.34a29.05 29.05 0 0 0-1.797-5.263c-1.37-2.953-2.996-4.708-4.28-4.28-1.883.47-2.225 5.564-.77 11.384s4.194 9.97 6.077 9.5z" class="D"/><path d="M157.32 159.583c-2.953 6.333-1.926 13.095 2.354 15.064s10.1-1.498 13.095-7.832 1.883-13.095-2.354-15.107-10.142 1.54-13.095 7.875z" class="B"/><path d="M163.267 154.446c-2.995 6.334-1.925 13.095 2.354 15.064s10.1-1.498 13.053-7.832 1.926-13.095-2.31-15.106-10.057 1.497-13.096 7.874z" class="C"/><path d="M191.297 95.132c-4.28-5.606-10.656-7.832-14.422-5.007s-3.38 9.672.813 15.235 10.656 7.832 14.422 5.007 3.424-9.67-.813-15.235z" class="B"/><path d="M197.547 90.68c-4.28-5.563-10.7-7.832-14.465-4.964s-3.38 9.63.813 15.235 10.7 7.832 14.465 4.964 3.38-9.63-.813-15.235z" class="C"/><path d="M118.46 183.42c-.7 1.495-.94 3.164-.693 4.797a8.34 8.34 0 0 0 2.09 4.372 8.35 8.35 0 0 0 4.167 2.475 8.34 8.34 0 0 0 4.84-.26c1.552-.563 2.902-1.574 3.88-2.905a8.35 8.35 0 0 0 1.61-4.571 8.34 8.34 0 0 0-1.201-4.695 8.35 8.35 0 0 0-3.609-3.236 8.56 8.56 0 0 0-11.084 4.023z" class="B"/><path d="M120.386 179.353c-.707 1.493-.956 3.162-.715 4.796s.963 3.16 2.073 4.384 2.557 2.09 4.16 2.492a8.35 8.35 0 0 0 4.843-.242c1.555-.56 2.91-1.566 3.89-2.894a8.35 8.35 0 0 0 .435-9.27c-.853-1.415-2.107-2.544-3.603-3.246a8.31 8.31 0 0 0-3.153-.794 8.3 8.3 0 0 0-6.002 2.156 8.31 8.31 0 0 0-1.929 2.618z" class="C"/><path d="M99.758 92.82a10.27 10.27 0 0 0 3.349 4.941c1.58 1.28 3.506 2.06 5.53 2.244a10.27 10.27 0 0 0 5.845-1.21c1.785-.973 3.242-2.454 4.185-4.256s1.33-3.843 1.11-5.864-1.03-3.933-2.337-5.492-3.044-2.695-4.996-3.265-4.03-.547-5.97.065a10.27 10.27 0 0 0-6.719 12.839z" class="B"/><path d="M98.133 87.557a10.27 10.27 0 0 0 3.358 4.939c1.583 1.277 3.51 2.055 5.538 2.236a10.27 10.27 0 0 0 5.845-1.223c1.784-.978 3.238-2.464 4.177-4.27a10.28 10.28 0 0 0-1.26-11.359c-1.312-1.556-3.056-2.687-5.01-3.25a10.27 10.27 0 0 0-5.971.087c-2.575.836-4.72 2.65-5.968 5.052s-1.504 5.2-.71 7.787z" class="C"/><path d="M76.435 172.848a6.12 6.12 0 0 0 1.027 6.723 6.11 6.11 0 0 0 3.056 1.813 6.12 6.12 0 0 0 3.549-.191c1.138-.413 2.128-1.154 2.844-2.13a6.12 6.12 0 0 0 .3-6.795 6.12 6.12 0 0 0-2.645-2.373c-1.472-.674-3.15-.742-4.67-.2s-2.764 1.682-3.46 3.143z" class="B"/><path d="M77.933 169.896a6.08 6.08 0 0 0-.48 3.486c.187 1.184.72 2.286 1.532 3.167s1.867 1.504 3.03 1.787 2.387.217 3.513-.192 2.107-1.142 2.818-2.107 1.12-2.118 1.178-3.315-.24-2.385-.857-3.413-1.522-1.85-2.605-2.365a6.12 6.12 0 0 0-8.131 2.952z" class="C"/><path d="M5.3 88.37c1.712.9 5.264-2.696 7.917-7.96.823-1.638 1.5-3.342 2.054-5.093.856-3.08.813-5.478-.3-6.034s-5.264 2.696-7.96 8.003S3.683 87.514 5.3 88.37zm47.93-47.93c1.027 1.584 5.906.3 10.87-2.9a29.1 29.1 0 0 0 4.28-3.338c2.268-2.225 3.466-4.28 2.782-5.35S65.223 28.5 60.26 31.7s-8.046 7.104-7.02 8.73zm48.4-36.3c0 1.883 4.965 3.167 10.87 2.825 1.832-.113 3.65-.385 5.436-.813 3.08-.813 5.135-2 5.05-3.295S118-.3 112.126.04s-10.613 2.183-10.486 4.1zm64.665 16.005c-.856 1.712 2.696 5.264 7.96 7.96a33.34 33.34 0 0 0 5.093 2.054c3.08.856 5.435.856 6.034-.3s-2.696-5.264-7.96-7.96-10.228-3.466-11.127-1.755z" class="D"/><path d="M65.48 143.8c.342 6.975 4.28 12.453 9.115 12.24s8.26-6.077 7.917-13.095-4.28-12.454-9.158-12.24-8.217 6.12-7.874 13.096z" class="B"/><path d="M63.596 139.168c.342 6.976 4.28 12.454 9.115 12.24s8.217-6.077 7.874-12.84-4.28-12.496-9.115-12.24-8.174 5.863-7.874 12.838z" class="C"/><path d="M117.432 123.59c-1.108 2.3-1.506 4.876-1.143 7.403a12.85 12.85 0 0 0 3.183 6.781 12.84 12.84 0 0 0 6.425 3.85c2.477.616 5.08.48 7.48-.4s4.485-2.437 6-4.5a12.83 12.83 0 0 0 .552-14.318c-1.342-2.172-3.3-3.894-5.625-4.947-3.053-1.382-6.526-1.516-9.677-.373s-5.73 3.474-7.185 6.493z" class="B"/><path d="M120.557 116.915a12.84 12.84 0 0 0 2 14.194 12.84 12.84 0 0 0 13.901 3.495c2.402-.866 4.49-2.428 6-4.487s2.37-4.522 2.474-7.073-.557-5.075-1.895-7.25-3.295-3.9-5.62-4.957a12.84 12.84 0 0 0-16.862 6.077z" class="C"/><path opacity=".04" d="M200.884 162.664c-1.374-.636-2.905-.855-4.402-.63s-2.896.884-4.023 1.895a7.75 7.75 0 0 0-2.317 3.796c-.385 1.465-.332 3 .152 4.445a7.75 7.75 0 0 0 6.714 5.244 7.74 7.74 0 0 0 4.349-.928 7.75 7.75 0 0 0 3.122-3.167c.468-.935.747-1.954.82-2.997a7.91 7.91 0 0 0-1.948-5.772c-.69-.786-1.528-1.427-2.467-1.887z" class="B"/></svg>