<svg xmlns="http://www.w3.org/2000/svg" xmlns:xlink="http://www.w3.org/1999/xlink" width="50" height="50" fill="none" xmlns:v="https://vecta.io/nano"><style><![CDATA[.B{opacity:.1}.C{fill:#eb4559}.D{fill:#000}.E{fill:#fff}.F{opacity:.04}]]></style><path d="M35.66 40.362c1.856-1.47 3.4-3.294 4.545-5.367 1.932-.336 7.355 1.316 7.355 1.316l.69-1.997c-2.137-.747-5.75-3.48-6.263-3.873a17.65 17.65 0 0 0 .439-5.525c1.42-1.26 4.592-1.867 4.592-1.867l-.4-2.063a17.83 17.83 0 0 1-4.863.177 17.72 17.72 0 0 0-1.671-3.808c.625-1.82 4.863-5.75 4.863-5.75L43.565 10c-1.867 1.587-6.46 3.407-6.533 3.416a18.01 18.01 0 0 0-4.284-3.127c-.336-1.867.728-4.937.728-4.937l-1.997-.68c-.55 1.505-1.304 2.927-2.24 4.228-1.5-.428-3.05-.654-4.61-.672C23.358 6.66 22.06 1.17 22.06 1.17l-2.1.42c.42 2.147-.084 6.31-.196 7.233-1.934.515-3.77 1.348-5.432 2.464a12.66 12.66 0 0 1-3.584-2.884l-1.465 1.42c.967 1.137 1.785 2.39 2.436 3.733-1.138 1.143-2.115 2.438-2.903 3.845-2.268 0-6.916-1.38-6.916-1.38l-.737 2.035c2.09.962 4.06 2.172 5.86 3.603a18.09 18.09 0 0 0-.551 5.927 12.7 12.7 0 0 1-4.265 1.624l.43 2.1a17.54 17.54 0 0 1 4.443-.233c.69 2.473 1.896 4.773 3.537 6.748-.448 2.12-3.295 6.533-3.295 6.533l1.755 1.232a27.44 27.44 0 0 1 4.975-4.564c1.31.936 2.742 1.69 4.256 2.24a16.85 16.85 0 0 0 2.361.663c.217 1.487.173 3-.13 4.47l2.11.4a17.57 17.57 0 0 1 1.587-4.471 17.98 17.98 0 0 0 7.373-1.484c1.745 1.437 4.35 5.6 4.35 5.6l1.867-1.073c-1.13-2.007-2.007-6.216-2.165-7.01zM29.863 9.067h-.065.065z" class="C"/><path d="M33.28 36.6c-.625-.7.168-2.352.775-4.75.093-.29.15-.616.233-.933s.12-.663.196-1.008l.233-2.184a15.09 15.09 0 0 0-.513-4.732c-.466-1.532-1.175-2.977-2.1-4.284-.417-.6-.868-1.172-1.353-1.717l-.7-.747-.69-.672c-1.8-1.7-3.35-2.67-3.192-3.593.027-.122.082-.237.16-.335a.83.83 0 0 1 .289-.234c.337-.196.713-.316 1.1-.355a8.49 8.49 0 0 1 3.911.523c.418.147.826.318 1.223.513.42.196.83.44 1.26.69a14.7 14.7 0 0 1 6.907 12.292 14.27 14.27 0 0 1-.383 3.584 14.58 14.58 0 0 1-1.055 3.024l-.7 1.26a12.37 12.37 0 0 1-.765 1.083 8.4 8.4 0 0 1-3.024 2.529 2.8 2.8 0 0 1-1.12.289.94.94 0 0 1-.37-.05c-.12-.042-.228-.107-.32-.192z" class="E F"/><path d="M23.03.37c.084.383-.803.887-1.97 1.14-.362.082-.73.125-1.1.13-.644 0-1.1-.112-1.157-.364s.803-.887 1.97-1.14 2.184-.14 2.26.233z" class="C"/><path d="M20.054 1.638c.717-.047 1.422-.203 2.09-.467l.327 1.27a7.17 7.17 0 0 1-2.343-.336l-.075-.467z" class="B D"/><path d="M11.15 7.266c.26.28-.233 1.167-1.12 1.98-.273.248-.566.473-.877.672-.55.336-1.017.457-1.195.26S8.2 9.01 9.087 8.21s1.84-1.232 2.063-.943z" class="C"/><path d="M9.283 9.86c.627-.36 1.163-.858 1.568-1.456a8.79 8.79 0 0 0 .933.933c-.662.417-1.392.717-2.156.887l-.345-.364z" class="B D"/><path d="M1.61 14.845c.364.12.364 1.14 0 2.277a6.51 6.51 0 0 1-.439 1.017c-.317.56-.663.933-.933.812s-.364-1.14 0-2.268 1-1.96 1.372-1.84z" class="C"/><path d="M1.2 18.055c.32-.644.537-1.334.644-2.044l1.26.364a6.94 6.94 0 0 1-1.475 1.867l-.43-.187z" class="B D"/><path d="M1.406 28.322c.373-.084.887.793 1.14 1.96.084.36.13.73.14 1.1 0 .644-.112 1.11-.364 1.167s-.933-.803-1.148-1.97-.15-2.193.233-2.26z" class="C"/><path d="M2.685 31.28a4.74 4.74 0 0 0-.476-2.091l1.25-.3c.027.78-.08 1.56-.317 2.305l-.457.084z" class="B D"/><path d="M6.13 44.19c.224-.317 1.195 0 2.184.644.308.204.596.44.86.7.457.457.68.933.532 1.092s-1.195 0-2.184-.635-1.605-1.456-1.39-1.8z" class="C"/><path d="M9.106 45.486C8.577 45 7.976 44.6 7.323 44.3l.69-1.11c.564.563 1.03 1.216 1.38 1.932l-.29.364z" class="B D"/><path d="M19.42 48.753c.065-.383 1.073-.523 2.25-.317.365.067.724.164 1.073.29.607.233.933.523.933.784s-1.073.523-2.25.317-2.072-.69-2.007-1.073z" class="C"/><path d="M22.658 48.697c-.67-.277-1.395-.4-2.12-.355.084-.392.14-.82.196-1.27.735.268 1.417.663 2.016 1.167l-.093.457z" class="B D"/><path d="M35.417 49.416c-.196-.336.467-1.1 1.493-1.708a5.38 5.38 0 0 1 .999-.485c.607-.224 1.092-.243 1.223 0s-.476 1.1-1.503 1.717-2.053.85-2.212.476z" class="C"/><path d="M37.787 47.25a6.99 6.99 0 0 0-1.867 1.12l-.72-1.092a7.09 7.09 0 0 1 2.333-.439l.252.4zM16.302 26.054c-.476 1.316-1.577 2.12-2.455 1.8s-1.223-1.643-.747-2.96 1.577-2.12 2.464-1.792 1.185 1.643.737 2.95z" class="B D"/><use xlink:href="#B" class="C"/><use xlink:href="#B" class="E F"/><path d="M21.23 15.418c1.383-.195 2.398-1.107 2.267-2.036s-1.36-1.523-2.742-1.328-2.398 1.107-2.267 2.037 1.36 1.523 2.742 1.327z" class="B D"/><use xlink:href="#C" class="C"/><use xlink:href="#C" class="E F"/><path d="M18.42 34.902c-.112.31-.312.578-.577.773s-.58.306-.91.322a1.66 1.66 0 0 1-.935-.238c-.28-.17-.506-.42-.645-.716s-.188-.63-.14-.955.193-.627.415-.87.5-.414.83-.493a1.66 1.66 0 0 1 .963.049c.206.073.396.187.558.333a1.65 1.65 0 0 1 .386.522 1.66 1.66 0 0 1 .155.631c.01.218-.025.437-.1.642z" class="B D"/><use xlink:href="#D" class="C"/><use xlink:href="#D" class="B E"/><path d="M33.85 24.757a2.04 2.04 0 0 1-2.242-.268 2.04 2.04 0 0 1-.641-.989c-.112-.386-.107-.796.013-1.18s.35-.722.662-.975a2.05 2.05 0 0 1 1.091-.448c.4-.038.802.04 1.157.23s.646.478.837.83c.13.24.21.505.238.777s-.002.547-.084.808-.215.503-.392.71a2.04 2.04 0 0 1-.639.503z" class="B D"/><use xlink:href="#E" class="C"/><use xlink:href="#E" class="B E"/><path d="M25.83 39.336a1.22 1.22 0 0 1-1.541.671c-.294-.106-.536-.32-.676-.6s-.17-.602-.078-.902c.112-.304.34-.553.633-.69a1.23 1.23 0 0 1 .936-.047 1.22 1.22 0 0 1 .689.633c.137.295.15.63.04.935z" class="B D"/><use xlink:href="#F" class="C"/><use xlink:href="#F" class="B E"/><path d="M47.802 37.47c-.364-.12-.355-1.13 0-2.25.117-.348.264-.685.44-1.008.308-.55.653-.887.933-.803s.364 1.12 0 2.24-1.008 1.94-1.372 1.82z" class="C"/><path d="M48.203 34.295a6.81 6.81 0 0 0-.644 2.016l-1.24-.355c.373-.703.865-1.334 1.456-1.867l.43.205z" class="B D"/><path d="M47.81 23.935c-.373.075-.877-.793-1.13-1.94a6.15 6.15 0 0 1-.14-1.092c0-.635.12-1.092.364-1.148s.877.793 1.13 1.94.15 2.156-.224 2.24z" class="C"/><path d="M46.55 20.996a4.67 4.67 0 0 0 .467 2.063l-1.24.3a6.71 6.71 0 0 1 .317-2.287l.457-.075z" class="B D"/><path d="M46.103 11.98c-.29.252-1.157-.252-1.932-1.14a5.06 5.06 0 0 1-.653-.877c-.327-.55-.44-1.008-.252-1.176s1.157.252 1.94 1.14 1.185 1.8.896 2.053z" class="C"/><path d="M43.565 10.038c.386.595.865 1.125 1.42 1.568l-.933.933a6.76 6.76 0 0 1-.859-2.175l.373-.327z" class="B D"/><path d="M34.717 5.1c-.12.364-1.13.364-2.25 0-.35-.1-.687-.254-1.008-.43-.56-.308-.933-.653-.812-.887s1.13-.364 2.25 0 1.932.952 1.82 1.316z" class="C"/><path d="M31.543 4.727c.616.36 1.305.577 2.016.635a13.61 13.61 0 0 0-.364 1.213 6.8 6.8 0 0 1-1.811-1.419l.16-.43zm-.056 32.07c-1.036.933-2.38 1.14-3.015.44s-.3-2.016.728-2.96 2.4-1.13 3.024-.44.3 2.025-.737 2.96z" class="B D"/><use xlink:href="#G" class="C"/><use xlink:href="#G" class="B E"/><path d="M27.017 26.605a2.53 2.53 0 0 1-2.262 1.668c-.5.022-.995-.103-1.423-.36a2.53 2.53 0 0 1-1.195-2.543c.075-.495.294-.956.63-1.325s.776-.632 1.26-.752.996-.094 1.466.076a2.53 2.53 0 0 1 .846.51c.246.224.445.494.586.794a2.53 2.53 0 0 1 .09 1.935z" class="B D"/><use xlink:href="#H" class="C"/><use xlink:href="#H" class="E F"/><path d="M28.463 41.846c0 .215-.317.504-1.055.793-1.026.366-2.103.574-3.192.616a16.41 16.41 0 0 1-2.296-.084c-2.483-.288-4.87-1.128-6.986-2.458s-3.906-3.118-5.24-5.232a17.98 17.98 0 0 1-1.241-2.352 16.53 16.53 0 0 1-.728-2.175 10.32 10.32 0 0 1-.364-3.267c.065-.784.243-1.213.457-1.24.476 0 .933 1.512 2.063 3.733l.933 1.745c.327.616.803 1.232 1.297 1.867a18.37 18.37 0 0 0 8.111 6.048 20.2 20.2 0 0 0 2.128.616l1.95.44c2.445.495 4.08.495 4.163.952zM9.713 20.342a1.55 1.55 0 0 1 .715.531c.18.243.287.534.305.837a1.55 1.55 0 0 1-2.55 1.27 1.55 1.55 0 0 1-.484-.748 1.54 1.54 0 0 1 .008-.89 1.59 1.59 0 0 1 .8-.91c.377-.186.8-.218 1.208-.088z" class="F D"/><defs ><path id="B" d="M16.2 24.495c-.476 1.316-1.577 2.12-2.464 1.8s-1.213-1.652-.737-2.96 1.577-2.12 2.464-1.8 1.213 1.643.737 2.96z"/><path id="C" d="M20.353 10.654c1.38-.187 2.613.4 2.744 1.335s-.933 1.867-2.268 2.035-2.613-.4-2.744-1.325.887-1.848 2.268-2.044z"/><path id="D" d="M18.73 34.062a1.67 1.67 0 0 1-.578.781c-.266.198-.584.312-.915.328s-.66-.066-.943-.237a1.67 1.67 0 0 1-.79-1.684c.05-.327.196-.632.42-.876a1.67 1.67 0 0 1 1.807-.44 1.65 1.65 0 0 1 .555.335 1.66 1.66 0 0 1 .385.522c.093.198.146.412.156.63a1.66 1.66 0 0 1-.097.641z"/><path id="E" d="M34.82 24.253a2.04 2.04 0 0 1-1.161.204 2.05 2.05 0 0 1-1.721-1.462c-.112-.386-.107-.796.013-1.18s.35-.722.662-.975a2.05 2.05 0 0 1 2.248-.218c.355.19.646.478.837.83.132.24.214.505.24.777a2.03 2.03 0 0 1-.477 1.521 2.03 2.03 0 0 1-.641.501z"/><path id="F" d="M26.083 38.72a1.23 1.23 0 0 1-.425.568c-.195.143-.427.225-.67.236a1.22 1.22 0 0 1-.687-.175c-.207-.125-.372-.308-.475-.526s-.14-.463-.103-.702.142-.462.304-.64a1.23 1.23 0 0 1 1.317-.328 1.23 1.23 0 0 1 .737 1.568z"/><path id="G" d="M32.41 36.405c-1.036.933-2.39 1.13-3.024.44s-.3-2.025.737-2.96 2.38-1.14 3.015-.44.3 2.016-.728 2.96z"/><path id="H" d="M27.51 25.223c-.17.47-.477.88-.88 1.176s-.885.467-1.385.49-.995-.105-1.423-.364a2.53 2.53 0 0 1-1.189-2.547 2.53 2.53 0 0 1 .635-1.325c.338-.37.778-.63 1.264-.748a2.52 2.52 0 0 1 1.467.08 2.53 2.53 0 0 1 1.512 3.239z"/></defs></svg>