<svg xmlns="http://www.w3.org/2000/svg" xmlns:xlink="http://www.w3.org/1999/xlink" width="76" height="73" fill="none" xmlns:v="https://vecta.io/nano"><g fill="#f2b59d"><path d="M19.863 34.183l.05.07-8.44 5.862-.11-.14H8.326c-.805 0-1.578-.305-2.147-.848a2.83 2.83 0 0 1-.889-2.048 2.83 2.83 0 0 1 .889-2.048c.57-.543 1.342-.848 2.147-.848h11.538z"/><path d="M28.365 28.4l-8.453 5.862-.05-.07H11.97c-.805 0-1.578-.305-2.147-.848a2.83 2.83 0 0 1-.889-2.048 2.83 2.83 0 0 1 .889-2.048c.57-.543 1.342-.848 2.147-.848h16.395zm37.648-5.802v.463l-13.444.637-4.287-2.792c-.953-.78-1.554-1.88-1.678-3.07a4.5 4.5 0 0 1 1.01-3.325c.5-.607 1.22-1.013 2.017-1.14a3.36 3.36 0 0 1 2.295.457l14.088 8.77zM75.73 43.45v6.95H73.3l-.717.5c-2.687 1.923-5.955 2.964-9.315 2.966h-.57c-1.024.003-2.045-.094-3.048-.3l-10.408-1.98c2.518-1.4 4.715-3.25 6.46-5.468l3.024-3.846L75.73 43.45z"/></g><path d="M66.013 23.06l-14.574.695-10.93-4.634-8.5-1.158H15.005c-.644.002-1.26.247-1.715.68a2.27 2.27 0 0 0-.714 1.636c-.001.61.124 1.212.368 1.774a4.62 4.62 0 0 0 1.053 1.504c.45.43.987.772 1.577 1.004s1.222.352 1.86.35h10.93V28.4L3.298 45.78c-.686.477-1.196 1.15-1.458 1.92a3.67 3.67 0 0 0 .002 2.37c.263.77.774 1.44 1.46 1.917s1.514.733 2.363.733h.692c.47.001.935-.08 1.372-.243l.607-.404a1.94 1.94 0 0 1-.607.404l-5.744 3.846A3.52 3.52 0 0 0 .844 57.56c-.27.494-.412 1.044-.413 1.6v.52c.001.92.383 1.8 1.064 2.45s1.604 1.015 2.567 1.015c.795.004 1.568-.245 2.198-.707l.632-.463.012.012a3.08 3.08 0 0 0-.401 1.506c0 .83.345 1.625.96 2.212s1.45.916 2.32.916h.498c.7.004 1.384-.212 1.943-.614l6.704-4.715c-.212.45-.303.943-.265 1.435s.205.967.486 1.38.664.756 1.118.992a3.22 3.22 0 0 0 1.479.363h.79a3.29 3.29 0 0 0 1.773-.521l12.17-8.052a22.36 22.36 0 0 1 6.097-2.792l2.053-.59a21.92 21.92 0 0 0 4.615-1.9 21.31 21.31 0 0 0 6.461-5.468l3.024-3.846 17.003 1.16V22.598l-9.716.463z" fill="#f2c4b2"/><path d="M30.794 43.696a1.78 1.78 0 0 0-.29-.973c-.2-.292-.46-.528-.784-.68a2.03 2.03 0 0 0-1.043-.184 1.98 1.98 0 0 0-.987.368L1.064 61.524a3.63 3.63 0 0 0 1.943 1.452l.215.064a3.83 3.83 0 0 0 .386.058l.364.036.345-.012c.086 0 .174-.008.26-.02a3.69 3.69 0 0 0 .364-.073l.236-.056c.128-.042.254-.1.376-.146l.187-.078c.183-.1.357-.193.52-.3l.632-.463L30.03 45.163c.237-.172.43-.394.562-.65s.2-.535.2-.82zm3.643 5.77a1.79 1.79 0 0 0-.293-.969c-.2-.3-.46-.526-.782-.68a2.04 2.04 0 0 0-1.04-.19 2 2 0 0 0-.989.358l-24.18 17.3c.188.242.4.46.657.644a3.82 3.82 0 0 0 2.259.689h.2c.7.004 1.384-.212 1.943-.614l6.704-4.715 14.72-10.335a1.88 1.88 0 0 0 .58-.655 1.79 1.79 0 0 0 .21-.835zM27.595 38.22a1.9 1.9 0 0 0 .51-.544c.13-.21.217-.446.254-.7s.022-.5-.042-.73a1.84 1.84 0 0 0-.331-.659 1.95 1.95 0 0 0-.57-.487 2.02 2.02 0 0 0-.723-.242c-.256-.035-.515-.02-.765.04s-.484.17-.7.316L2.522 51.246c.094.12.195.237.302.348a4.04 4.04 0 0 0 1.303.834c.488.194 1 .293 1.54.292h.692a3.9 3.9 0 0 0 1.372-.243l3.74-2.5L27.595 38.22zm43.275-15.4v11.354c0 1.23-.512 2.408-1.423 3.277a4.98 4.98 0 0 1-3.435 1.357h-8.558c-.36-.001-.714.075-1.038.22a2.4 2.4 0 0 0-.838.626c-1.487 1.736-5 5.757-7.782 8.42-3.643 3.476-9.716 4.634-9.716 4.634l-18.116 12.2a3.14 3.14 0 0 0 1.782.544h.8a3.29 3.29 0 0 0 1.773-.521l12.17-8.052a22.36 22.36 0 0 1 6.097-2.792l2.053-.6a21.92 21.92 0 0 0 4.615-1.9 21.31 21.31 0 0 0 6.461-5.468l3.024-3.846 16.99 1.157V22.598l-4.858.232zm-37.647-1.4H18.65c-.966 0-1.893-.366-2.576-1.018s-1.067-1.536-1.067-2.458a2.5 2.5 0 0 0-1.715.68 2.27 2.27 0 0 0-.714 1.636 4.43 4.43 0 0 0 .368 1.774 4.62 4.62 0 0 0 1.053 1.504c.45.43.987.772 1.577 1.004s1.222.352 1.86.35h10.93V28.4l7.287-4.634c0-.615-.256-1.204-.7-1.64a2.49 2.49 0 0 0-1.718-.679z" fill="#f2b59d"/><g fill="#ed9776"><path d="M58.727 42.293l-3.024 3.846c-1.746 2.22-3.943 4.08-6.46 5.468l6.746 1.284c2.05-1.043 4.998-2.8 6.018-4.67a2.3 2.3 0 0 1 .848-.927 2.46 2.46 0 0 1 1.23-.367h6.944c.602 0 1.18.228 1.606.635s.665.957.665 1.532v1.3h2.43v-6.95l-17.003-1.158zM23.75 28.4l-4.467 3.043a2.51 2.51 0 0 1-1.413.432h-6.508a2.51 2.51 0 0 1-1.372-.41 2.33 2.33 0 0 1-.89-1.078c-.107.292-.164.6-.168.908a2.77 2.77 0 0 0 .229 1.11 2.88 2.88 0 0 0 .658.941 3.04 3.04 0 0 0 .986.628 3.12 3.12 0 0 0 1.163.218h7.894l.05.07 8.453-5.862H23.75z"/><path d="M19.863 34.183h-3.036l-5.16 3.28c-.2.126-.432.194-.67.195H6.504a1.23 1.23 0 0 1-.772-.277 1.13 1.13 0 0 1-.401-.688 2.7 2.7 0 0 0-.041.386 2.77 2.77 0 0 0 .228 1.11 2.88 2.88 0 0 0 .658.941 3.04 3.04 0 0 0 .986.628c.37.145.764.22 1.163.218h3.036l.1.14 8.44-5.862-.05-.07zm36.12-12.743a2.5 2.5 0 0 1-1.579-.558L49.36 16.76a2.27 2.27 0 0 1-.833-1.563c-.05-.605.15-1.205.56-1.67a3.22 3.22 0 0 0-1.472.986 4.5 4.5 0 0 0-1.01 3.325c.124 1.2.726 2.3 1.678 3.07L52.57 23.7l13.444-.637V22.6l-1.86-1.158h-8.17z"/></g><path d="M46.533 63.818c.034.16.05.323.05.487a2.24 2.24 0 0 1-.049.498c.012.023 0 .046-.012.08-.02.154-.056.305-.11.452-.008.054-.028.106-.06.15-.026.114-.072.224-.134.324-.01.028-.022.055-.036.08-.085.15-.182.3-.28.43-.107.14-.225.27-.352.394a2.92 2.92 0 0 1-.413.347 3.71 3.71 0 0 1-.959.498c-.394.15-.815.224-1.24.22-.7.002-1.385-.187-1.974-.546a3.53 3.53 0 0 1-1.35-1.479 3.33 3.33 0 0 1-.296-1.94c.1-.66.394-1.28.852-1.784s1.058-.873 1.73-1.06a3.81 3.81 0 0 1 2.055.001c.67.188 1.27.557 1.728 1.062s.752 1.125.85 1.785z" fill="#b3f5ff"/><path d="M49.01 63.146c.96 0 1.9.272 2.7.78a4.69 4.69 0 0 1 1.789 2.08c.368.847.464 1.78.276 2.678s-.65 1.725-1.33 2.373-1.545 1.1-2.487 1.268-1.92.087-2.807-.264-1.646-.945-2.18-1.707-.82-1.658-.82-2.575c0-.07.024-.15.024-.22.35-.108.675-.277.96-.498a1.66 1.66 0 0 0 .413-.348 2.68 2.68 0 0 0 .352-.394c.104-.136.198-.28.28-.43.014-.026.027-.053.036-.08a1.08 1.08 0 0 0 .134-.324.34.34 0 0 0 .061-.151c.054-.146.1-.298.11-.452.012-.035.024-.058.012-.08a2.24 2.24 0 0 0 .049-.498c.002-.163-.014-.327-.05-.487.746-.436 1.603-.668 2.477-.672z" fill="#81d2f5"/><path d="M43.17 53.924c-.152-.385-.23-.793-.23-1.205-.004-.565.138-1.123.413-1.624s.674-.93 1.164-1.25a3.73 3.73 0 0 1 1.642-.582 3.78 3.78 0 0 1 1.736.222 4.47 4.47 0 0 1 .762-1.739 4.71 4.71 0 0 1 1.432-1.298c.567-.334 1.2-.55 1.86-.638a5.02 5.02 0 0 1 1.971.13c.1-.997.587-1.923 1.364-2.598s1.788-1.05 2.84-1.052a3.35 3.35 0 0 1 .595.046 4.3 4.3 0 0 1 2.68 1.476 3.93 3.93 0 0 1 .921 2.818C62.24 47.65 61.767 48.6 61 49.3s-1.802 1.092-2.87 1.103a5.59 5.59 0 0 1-.619-.058c.01.018.014.038.012.058 0 1.23-.512 2.408-1.423 3.277a4.98 4.98 0 0 1-3.435 1.357 4.96 4.96 0 0 1-2.781-.846c-.303.62-.79 1.143-1.405 1.5a3.77 3.77 0 0 1-2.041.503c-.717-.03-1.4-.26-2-.663s-1.02-.962-1.27-1.605z" fill="#96e0ff"/><path d="M42.938 4.06a2.52 2.52 0 0 1 1.247.331 2.37 2.37 0 0 1 .891.895 2.23 2.23 0 0 1 .283 1.205 2.24 2.24 0 0 1-.406 1.172 2.4 2.4 0 0 1-.98.807 2.53 2.53 0 0 1-1.275.212 2.5 2.5 0 0 1-1.208-.442c-.353-.25-.63-.585-.798-.972a3.69 3.69 0 0 1-1.397.266 3.77 3.77 0 0 1-2.024-.586c-.6-.382-1.066-.925-1.342-1.56a3.32 3.32 0 0 1-.207-2.008 3.43 3.43 0 0 1 .997-1.78 3.7 3.7 0 0 1 1.865-.951c.707-.134 1.44-.065 2.105.198a3.61 3.61 0 0 1 1.635 1.28c.4.572.614 1.244.614 1.93zM21.65 33.048c.423.697.645 1.488.644 2.294 0 1.23-.512 2.408-1.423 3.277a4.98 4.98 0 0 1-3.435 1.357c-.073 0-.146-.023-.22-.023a3.47 3.47 0 0 1-1.136 1.557 3.72 3.72 0 0 1-1.825.753 3.79 3.79 0 0 1-1.968-.276c-.616-.265-1.142-.7-1.52-1.224-.185-.264-.328-.553-.425-.857a2.93 2.93 0 0 1-.194-1.09 3.38 3.38 0 0 1 .68-2.006 3.62 3.62 0 0 1 1.772-1.26c0-.07-.024-.14-.024-.2-.002-.38.047-.757.146-1.124.237-.896.75-1.704 1.47-2.32s1.62-1.013 2.58-1.14a5.05 5.05 0 0 1 2.805.433c.87.408 1.6 1.054 2.072 1.856z" fill="#81d2f5"/><path d="M6.504 17.963c3.354 0 6.072-2.594 6.072-5.793s-2.72-5.793-6.072-5.793S.432 8.972.432 12.17s2.72 5.793 6.072 5.793z" fill="#b3f5ff"/><path d="M7.718 14.488c-1.605 0-3.145-.606-4.283-1.686s-1.78-2.546-1.79-4.077a5.65 5.65 0 0 0-1.114 2.492 5.53 5.53 0 0 0 .198 2.702 5.74 5.74 0 0 0 1.466 2.32c.674.652 1.5 1.14 2.413 1.43s1.88.364 2.83.224 1.85-.493 2.627-1.03a5.87 5.87 0 0 0 1.847-2.057 5.57 5.57 0 0 0 .663-2.634v-.03c-.56.726-1.293 1.317-2.136 1.724s-1.776.62-2.722.622z" fill="#96e0ff"/><use xlink:href="#B" fill="#81d2f5"/><use xlink:href="#B" x="-3.644" y="32.439" fill="#b3f5ff"/><path d="M13.79 39.976c-.75-.001-1.484-.225-2.096-.64s-1.075-1-1.324-1.677a3.29 3.29 0 0 0-.223 1.159c0 .922.384 1.806 1.067 2.458s1.6 1.018 2.576 1.018 1.893-.366 2.576-1.018 1.067-1.536 1.067-2.458a3.29 3.29 0 0 0-.223-1.159c-.25.676-.71 1.262-1.324 1.677s-1.345.64-2.096.64z" fill="#96e0ff"/><path d="M52.654 55.037c2.683 0 4.858-2.075 4.858-4.634s-2.175-4.634-4.858-4.634-4.858 2.075-4.858 4.634 2.175 4.634 4.858 4.634z" fill="#b3f5ff"/><path d="M52.654 52.72a5 5 0 0 1-2.966-.973c-.848-.63-1.454-1.51-1.72-2.502a4.43 4.43 0 0 0-.081 2.108c.143.7.454 1.358.907 1.924s1.038 1.025 1.707 1.34a5.05 5.05 0 0 0 4.307 0c.67-.316 1.254-.775 1.707-1.34s.764-1.225.907-1.924.115-1.42-.08-2.108c-.267.993-.872 1.873-1.72 2.502a5 5 0 0 1-2.966.973z" fill="#96e0ff"/><path d="M9.127 43.382c.097.304.24.593.425.857.378.535.904.96 1.52 1.224a3.79 3.79 0 0 0 1.968.276c.67-.084 1.302-.345 1.825-.753a3.47 3.47 0 0 0 1.136-1.558c.073 0 .146.023.22.023a4.98 4.98 0 0 0 3.435-1.357c.91-.87 1.423-2.048 1.423-3.277 0-.138-.016-.272-.028-.407-.452.49-1.008.884-1.63 1.154s-1.3.4-1.984.41c-.073 0-.146-.023-.22-.023a3.47 3.47 0 0 1-1.136 1.558c-.523.408-1.155.67-1.825.753a3.79 3.79 0 0 1-1.968-.276c-.616-.265-1.142-.69-1.52-1.223-.025-.037-.044-.076-.068-.116l-1.728 1.2c-.022.147-.035.296-.038.445-.005.37.06.74.194 1.09z" fill="#f2aa8f"/><path d="M50.833 71.417c-.614-.072-1.2-.283-1.713-.614a3.8 3.8 0 0 1-1.232-1.29c-.298-.517-.463-1.094-.48-1.684s.1-1.175.375-1.71a3.71 3.71 0 0 0 .081-2.827c-.467.113-.914.3-1.328.525.034.16.05.323.047.487s-.014.334-.05.498c.012.023 0 .046-.012.08-.02.154-.056.305-.11.452a.34.34 0 0 1-.061.151c-.026.114-.07.224-.133.324-.01.028-.022.055-.037.08a3.29 3.29 0 0 1-.279.429 2.67 2.67 0 0 1-.352.394 1.66 1.66 0 0 1-.413.348 3 3 0 0 1-.959.498c0 .07-.024.15-.024.22-.005.876.252 1.736.74 2.478s1.2 1.336 2.02 1.71a5.04 5.04 0 0 0 2.667.409c.912-.108 1.773-.462 2.48-1.02-.406.064-.82.083-1.23.058z" fill="#66b9de"/><path d="M54.505 49.808c.65.142 1-.746.986-1.312a1.99 1.99 0 0 0-.283-1.123 2.12 2.12 0 0 0-.872-.802 2.7 2.7 0 0 0-1.635-.171 1.23 1.23 0 0 0-.628.266c-.093.084-.16.2-.195.307a.64.64 0 0 0 0 .359.91.91 0 0 0 .254.337L54 49.46c.135.16.313.28.515.347z" fill="#fff"/><path d="M19.285 34.747c.65.142 1-.746.986-1.312a1.99 1.99 0 0 0-.284-1.123 2.12 2.12 0 0 0-.872-.802 2.7 2.7 0 0 0-1.635-.171 1.23 1.23 0 0 0-.628.267.73.73 0 0 0-.195.307.64.64 0 0 0 0 .359.91.91 0 0 0 .254.337l1.858 1.8c.135.16.313.28.515.348zm41.02 11.01c.434.095.674-.497.657-.875a1.32 1.32 0 0 0-.19-.748 1.41 1.41 0 0 0-.581-.534 1.8 1.8 0 0 0-1.093-.116c-.155.02-.3.082-.42.178-.062.056-.107.127-.13.205a.43.43 0 0 0 0 .24.62.62 0 0 0 .17.224l1.238 1.195c.1.107.212.187.35.232z" fill="#b0e8ff"/><path d="M15.37 38.807c.434.095.674-.497.657-.875.013-.262-.053-.52-.19-.748a1.41 1.41 0 0 0-.581-.534 1.8 1.8 0 0 0-1.093-.116c-.155.02-.3.082-.42.178-.062.056-.107.127-.13.205a.43.43 0 0 0 0 .24c.038.086.096.162.17.224l1.238 1.194c.09.107.212.187.348.232z" fill="#fff"/><path d="M46.568 54.373c.112.415-.493.667-.884.664-.272.02-.544-.034-.784-.158a1.39 1.39 0 0 1-.569-.537 1.64 1.64 0 0 1-.153-1.05.76.76 0 0 1 .17-.41.46.46 0 0 1 .207-.132.48.48 0 0 1 .249-.009.64.64 0 0 1 .243.156l1.275 1.16c.1.083.196.192.246.317z" fill="#b0e8ff"/><path d="M8.832 12.15c.865.2 1.347-.994 1.314-1.748a2.65 2.65 0 0 0-.378-1.497 2.83 2.83 0 0 0-1.162-1.068 3.62 3.62 0 0 0-2.18-.232 1.64 1.64 0 0 0-.838.356.89.89 0 0 0-.26.41.86.86 0 0 0-.001.48c.075.173.2.326.34.45l2.474 2.387a1.55 1.55 0 0 0 .691.465zm10.18-5.782c.434.095.674-.497.657-.875.012-.262-.055-.523-.193-.75s-.34-.412-.586-.533a1.8 1.8 0 0 0-1.093-.116c-.155.02-.3.082-.42.178-.062.056-.107.127-.13.205a.43.43 0 0 0 0 .24.62.62 0 0 0 .17.224l1.238 1.194a.78.78 0 0 0 .357.232zm22.133-1.743c.65.143 1-.746.986-1.3a1.99 1.99 0 0 0-.284-1.123 2.12 2.12 0 0 0-.871-.802 2.7 2.7 0 0 0-1.635-.171 1.23 1.23 0 0 0-.628.266c-.093.083-.16.2-.195.307a.64.64 0 0 0 0 .359.91.91 0 0 0 .254.337l1.858 1.8c.135.16.313.28.515.348zm3.37 59.67c.434.095.674-.497.657-.875a1.31 1.31 0 0 0-.19-.748 1.41 1.41 0 0 0-.581-.534 1.8 1.8 0 0 0-1.093-.116c-.155.02-.3.082-.42.178-.062.056-.107.127-.13.205a.43.43 0 0 0 0 .24.62.62 0 0 0 .17.224l1.237 1.195c.1.107.212.187.35.232zm7.56 4.05c.65.142 1-.746.986-1.3.02-.392-.08-.782-.283-1.123a2.12 2.12 0 0 0-.871-.802 2.7 2.7 0 0 0-1.635-.171 1.23 1.23 0 0 0-.628.266.73.73 0 0 0-.195.307.64.64 0 0 0 0 .359.91.91 0 0 0 .254.337l1.858 1.8c.135.16.313.28.515.347z" fill="#fff"/><defs ><path id="B" d="M17.434 9.854c2.012 0 3.643-1.556 3.643-3.476s-1.63-3.476-3.643-3.476-3.643 1.556-3.643 3.476 1.63 3.476 3.643 3.476z"/></defs></svg>