<svg width="76" height="73" viewBox="0 0 76 73" fill="none" xmlns="http://www.w3.org/2000/svg">
<path d="M19.8633 34.1829L19.9119 34.2524L11.4712 40.1146L11.3619 39.9755H8.32574C7.5205 39.9755 6.74823 39.6704 6.17883 39.1272C5.60943 38.5841 5.28955 37.8474 5.28955 37.0792C5.28955 36.311 5.60943 35.5744 6.17883 35.0312C6.74823 34.488 7.5205 34.1829 8.32574 34.1829H19.8633Z" fill="#F2B59D"/>
<path d="M28.3646 28.3903L19.9119 34.2525L19.8633 34.1829H11.9692C11.1639 34.1829 10.3917 33.8778 9.82226 33.3346C9.25287 32.7915 8.93298 32.0548 8.93298 31.2866C8.93298 30.5184 9.25287 29.7817 9.82226 29.2386C10.3917 28.6954 11.1639 28.3903 11.9692 28.3903H28.3646Z" fill="#F2B59D"/>
<path d="M66.0134 22.5975V23.0609L52.5692 23.6981L48.2821 20.906C47.3293 20.127 46.7281 19.0274 46.6037 17.8362C46.4793 16.6451 46.8412 15.454 47.6141 14.5109C48.1135 13.9041 48.8329 13.4974 49.6307 13.3709C50.4286 13.2444 51.2471 13.4073 51.9255 13.8274L66.0134 22.5975Z" fill="#F2B59D"/>
<path d="M75.7292 43.4511V50.4024H73.3003L72.5837 50.9121C69.8966 52.8356 66.6282 53.8762 63.2687 53.878H62.6979C61.6741 53.8809 60.6526 53.7838 59.6495 53.5883L49.2415 51.6072C51.7591 50.218 53.9567 48.358 55.7025 46.1389L58.7265 42.2926L75.7292 43.4511Z" fill="#F2B59D"/>
<path d="M66.0134 23.0609L52.5692 23.6981L51.4397 23.7561L40.5094 19.1219L32.0081 17.9634H15.0054C14.3618 17.9652 13.7451 18.2099 13.29 18.6441C12.8349 19.0782 12.5783 19.6665 12.5764 20.2805C12.5756 20.8892 12.7007 21.4922 12.9446 22.0548C13.1884 22.6173 13.5462 23.1285 13.9975 23.559C14.4487 23.9895 14.9846 24.3308 15.5743 24.5634C16.1641 24.796 16.7961 24.9154 17.4343 24.9146H28.3646V28.3902L19.9119 34.2524L11.4712 40.1146L3.29781 45.7798C2.61185 46.2569 2.10166 46.9288 1.84023 47.6993C1.5788 48.4697 1.57954 49.2993 1.84232 50.0694C2.10511 50.8394 2.61649 51.5104 3.30329 51.9864C3.99009 52.4624 4.81711 52.719 5.66604 52.7195H6.35829C6.82764 52.7207 7.29309 52.6382 7.73065 52.4762L8.33789 52.0719C8.16466 52.2427 7.95847 52.38 7.73065 52.4762L1.98617 56.3225C1.50659 56.6412 1.1148 57.0657 0.844144 57.5599C0.573489 58.0541 0.431975 58.6034 0.431641 59.1609V59.6823C0.432284 60.6008 0.815072 61.4815 1.49593 62.131C2.17679 62.7805 3.10005 63.1457 4.06293 63.1463C4.85756 63.1499 5.63087 62.9013 6.26113 62.4396L6.89266 61.9762L6.9048 61.9878C6.64329 62.4507 6.50562 62.968 6.50403 63.4939C6.50403 64.3235 6.8495 65.1191 7.46445 65.7057C8.0794 66.2923 8.91345 66.6219 9.78312 66.6219H10.2811C10.9819 66.6262 11.6647 66.4104 12.2242 66.0079L18.9281 61.2926C18.7158 61.7423 18.6248 62.2355 18.6634 62.7273C18.7019 63.2191 18.8688 63.6938 19.1489 64.1084C19.4289 64.5229 19.8132 64.8641 20.2668 65.1007C20.7203 65.3374 21.2287 65.462 21.7457 65.4634H22.5351C23.1674 65.4616 23.7847 65.2801 24.3083 64.942L36.4773 56.8902C38.3456 55.6638 40.4024 54.7219 42.574 54.0981L44.6265 53.5073C46.2378 53.0494 47.7869 52.4116 49.2415 51.6073C51.7591 50.218 53.9567 48.3581 55.7025 46.139L58.7266 42.2926L75.7292 43.4512V22.5975L66.0134 23.0609Z" fill="#F2C4B2"/>
<path d="M30.7936 43.6956C30.7938 43.3519 30.6934 43.0149 30.5036 42.7228C30.3138 42.4306 30.0421 42.1949 29.7194 42.0421C29.3966 41.8894 29.0355 41.8257 28.6768 41.8583C28.3181 41.8909 27.9761 42.0184 27.6894 42.2266L1.06439 61.5243C1.51581 62.2087 2.20281 62.7219 3.00756 62.9759C3.07921 62.9968 3.14965 63.0223 3.22252 63.0397C3.35008 63.0655 3.479 63.0849 3.60872 63.0976C3.72945 63.1155 3.85106 63.1275 3.97307 63.1335C4.08844 63.1335 4.20382 63.1335 4.31798 63.1219C4.4042 63.1219 4.49165 63.1138 4.57666 63.1022C4.69936 63.084 4.82097 63.0596 4.941 63.0292C5.01994 63.0107 5.1001 62.9968 5.17661 62.9736C5.30489 62.9318 5.43059 62.883 5.5531 62.8277C5.61504 62.801 5.68062 62.7802 5.74013 62.75C5.92287 62.6611 6.0972 62.5572 6.26114 62.4395L6.89267 61.9761L30.0309 45.1634C30.268 44.9914 30.4603 44.7694 30.5926 44.5148C30.7249 44.2602 30.7937 43.9798 30.7936 43.6956Z" fill="#F2B59D"/>
<path d="M34.437 49.4674C34.4353 49.1247 34.334 48.7891 34.1444 48.4979C33.9548 48.2067 33.6842 47.9714 33.3628 47.8181C33.0415 47.6648 32.6818 47.5996 32.3238 47.6295C31.9659 47.6595 31.6237 47.7836 31.3352 47.988L7.15375 65.2884C7.34138 65.5304 7.56239 65.747 7.81078 65.9326C8.46392 66.3928 9.25779 66.6351 10.0697 66.6219H10.281C10.9818 66.6262 11.6647 66.4104 12.2242 66.0079L18.9281 61.2926L33.6476 50.9573C33.8921 50.7852 34.0909 50.5607 34.228 50.302C34.3651 50.0432 34.4367 49.7574 34.437 49.4674Z" fill="#F2B59D"/>
<path d="M27.5946 38.2204C27.8007 38.0728 27.9744 37.8878 28.1056 37.6762C28.2368 37.4645 28.323 37.2302 28.3593 36.9868C28.3957 36.7433 28.3813 36.4954 28.3172 36.2573C28.2531 36.0191 28.1404 35.7953 27.9857 35.5986C27.8309 35.402 27.637 35.2364 27.4151 35.1112C27.1932 34.986 26.9477 34.9038 26.6925 34.8691C26.4373 34.8345 26.1774 34.8481 25.9277 34.9093C25.6781 34.9705 25.4434 35.0779 25.2373 35.2256L2.52173 51.2458C2.61526 51.3673 2.71624 51.4833 2.82413 51.5934C3.19669 51.9505 3.63955 52.2338 4.12726 52.427C4.61496 52.6203 5.1379 52.7197 5.66601 52.7195H6.35826C6.82761 52.7207 7.29306 52.6382 7.73062 52.4762L11.4712 49.9854L27.5946 38.2204Z" fill="#F2B59D"/>
<path d="M70.8713 22.8292V34.1829C70.8713 35.412 70.3595 36.5907 69.4485 37.4597C68.5375 38.3288 67.3018 38.817 66.0134 38.817H57.455C57.0959 38.8162 56.7412 38.8918 56.4166 39.0383C56.092 39.1848 55.8057 39.3985 55.5787 39.6639C54.0921 41.3994 50.5896 45.4207 47.7963 48.0853C44.1529 51.5609 38.0805 52.7195 38.0805 52.7195L19.9641 64.9189C20.4831 65.2747 21.1066 65.4653 21.7457 65.4634H22.5352C23.1674 65.4616 23.7847 65.2801 24.3083 64.942L36.4774 56.8902C38.3457 55.6638 40.4025 54.7219 42.574 54.0981L44.6265 53.5073C46.2378 53.0494 47.7869 52.4116 49.2415 51.6073C51.7591 50.218 53.9567 48.3581 55.7025 46.139L58.7266 42.2927L75.7293 43.4512V22.5975L70.8713 22.8292Z" fill="#F2B59D"/>
<path d="M33.2225 21.439H18.6488C17.6825 21.439 16.7558 21.0728 16.0725 20.421C15.3892 19.7692 15.0054 18.8852 15.0054 17.9634C14.3618 17.9652 13.7451 18.2099 13.29 18.6441C12.8349 19.0782 12.5783 19.6665 12.5764 20.2805C12.5756 20.8892 12.7007 21.4922 12.9446 22.0548C13.1884 22.6173 13.5462 23.1285 13.9975 23.559C14.4487 23.9895 14.9846 24.3308 15.5743 24.5634C16.1641 24.796 16.7962 24.9154 17.4343 24.9146H28.3646V28.3902L35.6515 23.7561C35.6515 23.1415 35.3956 22.5522 34.9401 22.1176C34.4845 21.6831 33.8667 21.439 33.2225 21.439Z" fill="#F2B59D"/>
<path d="M58.7265 42.2926L55.7025 46.1389C53.9567 48.358 51.7591 50.218 49.2415 51.6072L55.9879 52.8909C58.0391 51.8482 60.9855 50.1011 62.0056 48.2208C62.193 47.843 62.4865 47.522 62.8535 47.2936C63.2206 47.0651 63.6467 46.9382 64.0848 46.9267H71.0292C71.6315 46.9267 72.2092 47.155 72.6351 47.5613C73.061 47.9676 73.3003 48.5186 73.3003 49.0932V50.4024H75.7292V43.4511L58.7265 42.2926Z" fill="#ED9776"/>
<path d="M23.7496 28.3903L19.2828 31.4337C18.8707 31.7147 18.3769 31.8658 17.8703 31.8659H11.362C10.8717 31.8646 10.3933 31.7218 9.98967 31.4563C9.58606 31.1908 9.27611 30.815 9.1006 30.3783C8.9933 30.6704 8.93669 30.9772 8.933 31.2866C8.93172 31.6673 9.00937 32.0445 9.1615 32.3964C9.31363 32.7484 9.53723 33.0682 9.81942 33.3374C10.1016 33.6065 10.4368 33.8198 10.8058 33.965C11.1747 34.1101 11.5701 34.1842 11.9692 34.1829H19.8633L19.9119 34.2525L28.3646 28.3903H23.7496Z" fill="#ED9776"/>
<path d="M19.8633 34.1829H16.8271L11.668 37.4638C11.4694 37.5901 11.2363 37.6578 10.9976 37.6585H6.50404C6.22041 37.656 5.94688 37.5577 5.73207 37.381C5.51727 37.2043 5.3751 36.9607 5.33086 36.6934C5.30785 36.821 5.29405 36.9499 5.28957 37.0792C5.28828 37.4599 5.36594 37.8371 5.51807 38.189C5.6702 38.541 5.89379 38.8608 6.17599 39.13C6.45818 39.3992 6.79339 39.6124 7.16234 39.7576C7.53129 39.9027 7.92668 39.9768 8.32576 39.9755H11.362L11.4713 40.1146L19.9119 34.2524L19.8633 34.1829Z" fill="#ED9776"/>
<path d="M55.9818 21.439C55.4026 21.4384 54.8427 21.2403 54.403 20.8806L49.3593 16.7585C48.8767 16.3624 48.5773 15.8007 48.5262 15.1953C48.475 14.59 48.6762 13.9898 49.086 13.525C48.5071 13.7134 47.9965 14.0554 47.6141 14.5109C46.8412 15.454 46.4793 16.6451 46.6037 17.8363C46.7281 19.0275 47.3293 20.127 48.2821 20.9061L52.5692 23.6981L66.0134 23.0609V22.5975L64.1528 21.439H55.9818Z" fill="#ED9776"/>
<path d="M46.5332 63.8182C46.5674 63.9783 46.5837 64.1414 46.5818 64.3048C46.5843 64.472 46.568 64.6391 46.5332 64.803C46.5453 64.8262 46.5332 64.8493 46.5211 64.8841C46.502 65.0381 46.4654 65.1896 46.4118 65.3359C46.4042 65.39 46.3834 65.4416 46.351 65.4865C46.3246 65.6007 46.2795 65.7101 46.2174 65.8109C46.2075 65.8388 46.1953 65.8659 46.181 65.892C46.096 66.0426 45.9988 66.1816 45.9017 66.3207C45.7945 66.46 45.6768 66.5916 45.5495 66.7146C45.4235 66.8424 45.2852 66.9588 45.1366 67.0621C44.8447 67.2731 44.5213 67.4411 44.1771 67.5603C43.7832 67.7099 43.3624 67.7847 42.9384 67.7804C42.239 67.7828 41.5537 67.593 40.9643 67.2339C40.3749 66.8747 39.9064 66.3614 39.6146 65.7551C39.3227 65.1488 39.22 64.4752 39.3186 63.8147C39.4173 63.1542 39.7131 62.5348 40.1708 62.0303C40.6284 61.5259 41.2287 61.1577 41.8997 60.9699C42.5708 60.782 43.2843 60.7824 43.9552 60.9709C44.6261 61.1594 45.2259 61.5281 45.683 62.033C46.1401 62.5379 46.4353 63.1577 46.5332 63.8182Z" fill="#B3F5FF"/>
<path d="M49.0107 63.1464C49.9715 63.1464 50.9108 63.4182 51.7097 63.9274C52.5085 64.4366 53.1312 65.1603 53.4989 66.0071C53.8666 66.8539 53.9628 67.7856 53.7753 68.6846C53.5879 69.5835 53.1252 70.4092 52.4458 71.0573C51.7664 71.7054 50.9008 72.1468 49.9585 72.3256C49.0161 72.5044 48.0394 72.4126 47.1517 72.0619C46.264 71.7111 45.5053 71.1172 44.9715 70.3551C44.4377 69.593 44.1528 68.6971 44.1528 67.7805C44.1528 67.711 44.1771 67.6299 44.1771 67.5604C44.5266 67.4526 44.852 67.2837 45.1366 67.0622C45.2933 66.9688 45.4328 66.8514 45.5495 66.7147C45.6801 66.5947 45.7981 66.4628 45.9017 66.3208C46.0061 66.1849 46.0995 66.0416 46.181 65.8921C46.1953 65.866 46.2075 65.8389 46.2174 65.811C46.2796 65.7102 46.3246 65.6008 46.351 65.4866C46.3834 65.4416 46.4042 65.39 46.4118 65.336C46.4654 65.1896 46.502 65.0381 46.5211 64.8842C46.5332 64.8494 46.5454 64.8262 46.5332 64.8031C46.568 64.6391 46.5843 64.4721 46.5818 64.3049C46.5837 64.1415 46.5674 63.9784 46.5332 63.8183C47.2792 63.3827 48.1361 63.1503 49.0107 63.1464Z" fill="#81D2F5"/>
<path d="M43.1691 53.9243C43.0169 53.5392 42.9388 53.131 42.9384 52.7194C42.9346 52.154 43.0764 51.5964 43.3513 51.0955C43.6262 50.5946 44.0258 50.1658 44.5151 49.8466C45.0043 49.5275 45.5682 49.3278 46.1573 49.2651C46.7463 49.2024 47.3425 49.2786 47.8934 49.4871C48.0182 48.8633 48.2778 48.2712 48.6554 47.7482C49.0331 47.2253 49.5208 46.7831 50.0873 46.4497C50.6539 46.1162 51.2869 45.8989 51.9463 45.8115C52.6056 45.7241 53.2769 45.7685 53.9172 45.942C54.0182 44.9448 54.5042 44.019 55.2808 43.3445C56.0574 42.6701 57.0691 42.2951 58.1193 42.2926C58.3188 42.2903 58.518 42.3058 58.7144 42.3389C59.7703 42.4922 60.727 43.019 61.3943 43.8145C62.0615 44.6101 62.3903 45.6161 62.3153 46.6325C62.2403 47.6488 61.767 48.6009 60.9895 49.2995C60.212 49.998 59.1873 50.3917 58.1193 50.4023C57.9119 50.3945 57.7051 50.3752 57.4999 50.3444C57.5098 50.3622 57.514 50.3823 57.5121 50.4023C57.5121 51.6314 57.0003 52.8101 56.0892 53.6792C55.1782 54.5482 53.9426 55.0365 52.6542 55.0365C51.6576 55.0369 50.6856 54.7413 49.873 54.1908C49.5704 54.8118 49.0816 55.3334 48.4684 55.6896C47.8552 56.0458 47.1452 56.2207 46.4278 56.1922C45.7105 56.1637 45.0181 55.933 44.4381 55.5294C43.8582 55.1257 43.4166 54.5672 43.1691 53.9243Z" fill="#96E0FF"/>
<path d="M42.9384 4.06094C43.3777 4.06181 43.8086 4.17636 44.1852 4.39239C44.5617 4.60841 44.8697 4.91782 45.0765 5.28766C45.2833 5.65749 45.381 6.0739 45.3593 6.49253C45.3376 6.91116 45.1972 7.31634 44.9532 7.66489C44.7092 8.01344 44.3706 8.29233 43.9735 8.47183C43.5765 8.65134 43.1358 8.72474 42.6985 8.68423C42.2612 8.64371 41.8436 8.4908 41.4901 8.24177C41.1367 7.99273 40.8607 7.65692 40.6916 7.27008C40.2498 7.44825 39.7746 7.5389 39.2949 7.53655C38.5743 7.53655 37.8699 7.33271 37.2707 6.9508C36.6716 6.5689 36.2046 6.02608 35.9288 5.391C35.6531 4.75591 35.5809 4.05708 35.7215 3.38288C35.8621 2.70868 36.2091 2.08938 36.7186 1.60331C37.2282 1.11724 37.8774 0.786219 38.5841 0.652112C39.2909 0.518004 40.0235 0.586833 40.6892 0.849894C41.355 1.11295 41.924 1.55843 42.3243 2.12999C42.7247 2.70155 42.9384 3.37353 42.9384 4.06094Z" fill="#81D2F5"/>
<path d="M21.6486 33.0475C22.0718 33.7445 22.2939 34.5359 22.2922 35.3414C22.2922 36.5704 21.7804 37.7492 20.8694 38.6182C19.9583 39.4873 18.7227 39.9755 17.4343 39.9755C17.3614 39.9755 17.2886 39.9524 17.2157 39.9524C16.9964 40.5622 16.603 41.1016 16.0799 41.5098C15.5568 41.918 14.9247 42.179 14.2546 42.2632C13.5845 42.3475 12.9031 42.2518 12.2869 41.9868C11.6708 41.7218 11.1444 41.2981 10.7668 40.7633C10.5818 40.499 10.4386 40.2102 10.3418 39.906C10.2086 39.5572 10.1427 39.1882 10.1475 38.817C10.1513 38.0971 10.3894 37.3962 10.8289 36.8109C11.2683 36.2257 11.8875 35.7851 12.6007 35.5499C12.6007 35.4804 12.5764 35.4109 12.5764 35.3414C12.5747 34.9624 12.6237 34.5848 12.7221 34.2176C12.9588 33.3218 13.4708 32.5138 14.1923 31.8976C14.9138 31.2813 15.812 30.8849 16.7714 30.7591C17.7309 30.6333 18.7078 30.784 19.5769 31.1917C20.4459 31.5995 21.1673 32.2457 21.6486 33.0475Z" fill="#81D2F5"/>
<path d="M6.50403 17.9634C9.85771 17.9634 12.5764 15.3699 12.5764 12.1707C12.5764 8.97152 9.85771 6.37805 6.50403 6.37805C3.15034 6.37805 0.431641 8.97152 0.431641 12.1707C0.431641 15.3699 3.15034 17.9634 6.50403 17.9634Z" fill="#B3F5FF"/>
<path d="M7.71847 14.4877C6.11322 14.4877 4.57327 13.8814 3.43534 12.8013C2.29742 11.7213 1.65411 10.2553 1.64608 8.724C1.07335 9.4589 0.691709 10.313 0.532543 11.2161C0.373377 12.1191 0.441237 13.0453 0.730542 13.9185C1.01985 14.7917 1.52233 15.5868 2.19665 16.2386C2.87098 16.8903 3.69787 17.3801 4.60932 17.6675C5.52077 17.9549 6.49073 18.0318 7.4394 17.8918C8.38808 17.7518 9.28836 17.399 10.0662 16.8623C10.844 16.3257 11.4772 15.6205 11.9136 14.8049C12.35 13.9892 12.5771 13.0864 12.5764 12.1706C12.5764 12.1602 12.5764 12.151 12.5764 12.1417C12.0154 12.8679 11.2837 13.4585 10.44 13.8659C9.59626 14.2734 8.66412 14.4864 7.71847 14.4877Z" fill="#96E0FF"/>
<path d="M17.4343 9.85357C19.4465 9.85357 21.0778 8.29748 21.0778 6.37795C21.0778 4.45843 19.4465 2.90234 17.4343 2.90234C15.4221 2.90234 13.7909 4.45843 13.7909 6.37795C13.7909 8.29748 15.4221 9.85357 17.4343 9.85357Z" fill="#81D2F5"/>
<path d="M13.7909 42.2926C15.8031 42.2926 17.4343 40.7366 17.4343 38.817C17.4343 36.8975 15.8031 35.3414 13.7909 35.3414C11.7787 35.3414 10.1475 36.8975 10.1475 38.817C10.1475 40.7366 11.7787 42.2926 13.7909 42.2926Z" fill="#B3F5FF"/>
<path d="M13.7909 39.9755C13.0396 39.9742 12.3072 39.7507 11.6947 39.3357C11.0822 38.9207 10.6197 38.3347 10.3709 37.6584C10.227 38.0295 10.1514 38.4214 10.1475 38.817C10.1475 39.7388 10.5313 40.6228 11.2146 41.2746C11.8979 41.9264 12.8246 42.2926 13.7909 42.2926C14.7572 42.2926 15.6839 41.9264 16.3672 41.2746C17.0505 40.6228 17.4343 39.7388 17.4343 38.817C17.4304 38.4214 17.3548 38.0295 17.2109 37.6584C16.9621 38.3347 16.4996 38.9207 15.8871 39.3357C15.2746 39.7507 14.5422 39.9742 13.7909 39.9755Z" fill="#96E0FF"/>
<path d="M52.6542 55.0366C55.3371 55.0366 57.5121 52.9618 57.5121 50.4025C57.5121 47.8431 55.3371 45.7683 52.6542 45.7683C49.9712 45.7683 47.7963 47.8431 47.7963 50.4025C47.7963 52.9618 49.9712 55.0366 52.6542 55.0366Z" fill="#B3F5FF"/>
<path d="M52.6542 52.7195C51.5797 52.7175 50.5363 52.3751 49.688 51.746C48.8397 51.1169 48.2345 50.2367 47.9675 49.2439C47.7709 49.9314 47.7432 50.6528 47.8864 51.3522C48.0297 52.0515 48.3401 52.71 48.7935 53.2763C49.2469 53.8426 49.8311 54.3015 50.5007 54.6174C51.1703 54.9333 51.9072 55.0976 52.6542 55.0976C53.4012 55.0976 54.1381 54.9333 54.8077 54.6174C55.4773 54.3015 56.0615 53.8426 56.5149 53.2763C56.9683 52.71 57.2787 52.0515 57.4219 51.3522C57.5652 50.6528 57.5374 49.9314 57.3408 49.2439C57.0738 50.2367 56.4686 51.1169 55.6203 51.746C54.772 52.3751 53.7287 52.7175 52.6542 52.7195Z" fill="#96E0FF"/>
<path d="M9.12729 43.3817C9.22409 43.6858 9.36732 43.9747 9.55236 44.239C9.92988 44.7738 10.4563 45.1975 11.0725 45.4625C11.6886 45.7274 12.37 45.8232 13.0401 45.7389C13.7102 45.6546 14.3423 45.3937 14.8654 44.9855C15.3885 44.5772 15.7819 44.0379 16.0012 43.428C16.0741 43.428 16.147 43.4512 16.2198 43.4512C17.5082 43.4512 18.7439 42.963 19.6549 42.0939C20.5659 41.2248 21.0777 40.0461 21.0777 38.817C21.0777 38.6792 21.062 38.5448 21.0498 38.4104C20.598 38.901 20.042 39.2943 19.4186 39.5642C18.7953 39.834 18.1189 39.9743 17.4343 39.9756C17.3614 39.9756 17.2886 39.9524 17.2157 39.9524C16.9964 40.5623 16.603 41.1016 16.0799 41.5099C15.5568 41.9181 14.9246 42.179 14.2546 42.2633C13.5845 42.3476 12.9031 42.2518 12.2869 41.9868C11.6708 41.7219 11.1444 41.2982 10.7668 40.7634C10.7413 40.7263 10.7231 40.6869 10.6988 40.6475L8.97062 41.8478C8.94819 41.9952 8.93562 42.1438 8.93297 42.2927C8.92827 42.6639 8.9941 43.0328 9.12729 43.3817Z" fill="#F2AA8F"/>
<path d="M50.8325 71.4171C50.2186 71.3447 49.6315 71.1343 49.1195 70.8033C48.6074 70.4723 48.1851 70.03 47.8871 69.5129C47.5892 68.9958 47.4241 68.4186 47.4056 67.8289C47.3871 67.2391 47.5155 66.6535 47.7805 66.1203C48.1801 65.2215 48.2092 64.2118 47.8619 63.2935C47.3952 63.4064 46.9481 63.5832 46.5344 63.8183C46.5682 63.9784 46.5841 64.1415 46.5818 64.3049C46.5843 64.4721 46.568 64.6391 46.5332 64.803C46.5454 64.8262 46.5332 64.8494 46.5211 64.8841C46.502 65.0381 46.4654 65.1896 46.4118 65.336C46.4042 65.39 46.3834 65.4416 46.351 65.4866C46.3246 65.6007 46.2796 65.7102 46.2175 65.811C46.2075 65.8389 46.1954 65.866 46.181 65.8921C46.0995 66.0415 46.0061 66.1848 45.9017 66.3207C45.7981 66.4627 45.6802 66.5947 45.5495 66.7146C45.4328 66.8513 45.2933 66.9688 45.1366 67.0622C44.852 67.2837 44.5266 67.4526 44.1771 67.5603C44.1771 67.6299 44.1528 67.711 44.1528 67.7805C44.1479 68.657 44.4051 69.5168 44.8942 70.2588C45.3833 71.0009 46.0841 71.5946 46.9144 71.9702C47.7446 72.3458 48.6699 72.4879 49.5818 72.3797C50.4936 72.2714 51.3543 71.9174 52.0627 71.3592C51.6563 71.4231 51.2435 71.4426 50.8325 71.4171Z" fill="#66B9DE"/>
<path d="M54.505 49.808C55.1547 49.9505 55.5154 49.0619 55.4912 48.4965C55.5106 48.1042 55.4123 47.7147 55.2077 47.3738C55.0031 47.0329 54.7007 46.7548 54.3362 46.5722C53.8253 46.347 53.2514 46.2868 52.7015 46.4008C52.4694 46.4293 52.2512 46.5219 52.0736 46.6672C51.9804 46.7507 51.913 46.8569 51.8785 46.9743C51.844 47.0917 51.8439 47.2159 51.8781 47.3334C51.9342 47.463 52.0211 47.5784 52.1319 47.6705L53.9901 49.4605C54.1246 49.6196 54.3029 49.7399 54.505 49.808Z" fill="white"/>
<path d="M19.2852 34.7471C19.935 34.8896 20.2957 34.001 20.2714 33.4356C20.2908 33.0433 20.1925 32.6538 19.9879 32.3129C19.7833 31.972 19.481 31.6939 19.1164 31.5113C18.6056 31.286 18.0317 31.2258 17.4817 31.3398C17.2497 31.3684 17.0314 31.461 16.8538 31.6063C16.7606 31.6898 16.6932 31.796 16.6587 31.9134C16.6242 32.0308 16.6241 32.155 16.6583 32.2725C16.7145 32.402 16.8013 32.5174 16.9121 32.6096L18.7703 34.3995C18.9048 34.5587 19.0831 34.679 19.2852 34.7471Z" fill="#B0E8FF"/>
<path d="M60.3053 45.7579C60.7389 45.8529 60.9794 45.2608 60.9624 44.8832C60.9755 44.6216 60.9099 44.362 60.7735 44.1347C60.6371 43.9075 60.4355 43.7222 60.1924 43.6007C59.851 43.4494 59.4672 43.4087 59.0994 43.4848C58.9446 43.5044 58.799 43.5664 58.6804 43.6632C58.6185 43.7192 58.5738 43.7902 58.5509 43.8685C58.528 43.9469 58.5279 44.0297 58.5504 44.1081C58.5885 44.1937 58.6461 44.2701 58.7192 44.3317L59.9568 45.5262C60.048 45.6329 60.1688 45.7132 60.3053 45.7579Z" fill="#B0E8FF"/>
<path d="M15.3697 38.8066C15.8033 38.9016 16.0438 38.3096 16.0268 37.9319C16.0399 37.6703 15.9743 37.4107 15.8379 37.1835C15.7015 36.9562 15.4999 36.7709 15.2568 36.6494C14.9154 36.4981 14.5316 36.4574 14.1638 36.5335C14.0089 36.5531 13.8634 36.6151 13.7448 36.7119C13.6829 36.7679 13.6382 36.8389 13.6153 36.9172C13.5924 36.9956 13.5923 37.0784 13.6148 37.1568C13.6529 37.2424 13.7105 37.3188 13.7836 37.3804L15.0212 38.5749C15.1124 38.6816 15.2332 38.7619 15.3697 38.8066Z" fill="white"/>
<path d="M46.5684 54.3727C46.6802 54.7875 46.0754 55.0401 45.6843 55.0366C45.4126 55.0569 45.1405 55.0022 44.9006 54.8789C44.6607 54.7557 44.4631 54.5691 44.3314 54.3415C44.165 54.0159 44.1115 53.6483 44.1783 53.2918C44.1924 53.1424 44.2514 52.9999 44.3484 52.8817C44.4031 52.8202 44.4747 52.7745 44.5551 52.7495C44.6355 52.7246 44.7216 52.7214 44.8038 52.7404C44.8964 52.7738 44.9795 52.8274 45.0467 52.8968L46.3219 54.0553C46.4323 54.1382 46.5174 54.2478 46.5684 54.3727Z" fill="#B0E8FF"/>
<path d="M8.83217 12.1498C9.69687 12.341 10.179 11.1558 10.1462 10.4016C10.1721 9.87857 10.041 9.35935 9.76817 8.90498C9.49538 8.45061 9.09229 8.07996 8.60627 7.8366C7.92569 7.53563 7.16086 7.4543 6.4275 7.60489C6.11782 7.64307 5.82657 7.76668 5.58951 7.96056C5.46542 8.07204 5.37554 8.21369 5.32954 8.37026C5.28353 8.52682 5.28314 8.6924 5.3284 8.84916C5.40382 9.02175 5.51973 9.17553 5.66724 9.29867L8.14113 11.6853C8.3218 11.8983 8.56108 12.0592 8.83217 12.1498Z" fill="white"/>
<path d="M19.0131 6.3676C19.4467 6.4626 19.6872 5.87059 19.6702 5.49291C19.6825 5.23051 19.6157 4.97025 19.4777 4.74295C19.3397 4.51565 19.1364 4.33084 18.8917 4.21041C18.5503 4.05912 18.1665 4.01843 17.7986 4.09455C17.6438 4.11413 17.4983 4.1761 17.3796 4.27297C17.3178 4.32897 17.2731 4.39992 17.2502 4.47827C17.2273 4.55661 17.2271 4.63941 17.2497 4.71784C17.2877 4.80348 17.3454 4.87988 17.4185 4.94144L18.6561 6.13589C18.7496 6.24389 18.8735 6.32426 19.0131 6.3676Z" fill="white"/>
<path d="M41.1457 4.62515C41.7955 4.76765 42.1562 3.87905 42.1319 3.31369C42.1514 2.92133 42.053 2.53182 41.8484 2.19094C41.6438 1.85006 41.3415 1.57197 40.9769 1.38936C40.4661 1.1641 39.8922 1.1039 39.3422 1.21789C39.1102 1.24642 38.8919 1.33904 38.7144 1.48436C38.6212 1.56782 38.5537 1.67401 38.5192 1.79143C38.4848 1.90885 38.4846 2.03303 38.5188 2.15052C38.575 2.2801 38.6619 2.3955 38.7727 2.48765L40.6308 4.27759C40.7654 4.43673 40.9436 4.55707 41.1457 4.62515Z" fill="white"/>
<path d="M44.5172 64.2944C44.9508 64.3894 45.1912 63.7973 45.1742 63.4197C45.1873 63.1581 45.1218 62.8985 44.9854 62.6712C44.849 62.444 44.6473 62.2587 44.4042 62.1372C44.0629 61.9859 43.6791 61.9452 43.3112 62.0213C43.1564 62.0409 43.0109 62.1029 42.8922 62.1997C42.8304 62.2557 42.7857 62.3267 42.7628 62.405C42.7399 62.4834 42.7397 62.5662 42.7623 62.6446C42.8003 62.7302 42.858 62.8066 42.9311 62.8682L44.1686 64.0627C44.2599 64.1694 44.3806 64.2497 44.5172 64.2944Z" fill="white"/>
<path d="M52.076 68.3446C52.7258 68.4871 53.0865 67.5985 53.0622 67.0332C53.0817 66.6408 52.9833 66.2513 52.7787 65.9104C52.5741 65.5695 52.2718 65.2915 51.9072 65.1088C51.3964 64.8836 50.8225 64.8234 50.2725 64.9374C50.0405 64.9659 49.8222 65.0585 49.6447 65.2038C49.5515 65.2873 49.484 65.3935 49.4495 65.5109C49.4151 65.6283 49.4149 65.7525 49.4491 65.87C49.5053 65.9996 49.5922 66.115 49.703 66.2071L51.5611 67.9971C51.6957 68.1562 51.8739 68.2766 52.076 68.3446Z" fill="white"/>
</svg>
