<svg width="40" height="40" viewBox="0 0 40 40" fill="none" xmlns="http://www.w3.org/2000/svg">
<g filter="url(#filter0_d)">
<path d="M8 16C8 9.37258 13.3726 4 20 4C26.6274 4 32 9.37258 32 16C32 22.6274 26.6274 28 20 28C13.3726 28 8 22.6274 8 16Z" fill="#46CC7C"/>
<path d="M26.71 11.21C26.617 11.1163 26.5064 11.0419 26.3846 10.9911C26.2627 10.9403 26.132 10.9142 26 10.9142C25.868 10.9142 25.7373 10.9403 25.6154 10.9911C25.4936 11.0419 25.383 11.1163 25.29 11.21L17.84 18.67L14.71 15.53C14.6135 15.4367 14.4995 15.3634 14.3747 15.3142C14.2498 15.265 14.1165 15.2409 13.9823 15.2432C13.8482 15.2455 13.7157 15.2743 13.5927 15.3278C13.4696 15.3812 13.3582 15.4585 13.265 15.555C13.1718 15.6515 13.0985 15.7654 13.0493 15.8903C13.0001 16.0152 12.9759 16.1485 12.9782 16.2827C12.9806 16.4168 13.0093 16.5493 13.0628 16.6723C13.1163 16.7954 13.1935 16.9067 13.29 17L17.13 20.84C17.223 20.9337 17.3336 21.0081 17.4554 21.0589C17.5773 21.1096 17.708 21.1358 17.84 21.1358C17.972 21.1358 18.1027 21.1096 18.2246 21.0589C18.3464 21.0081 18.457 20.9337 18.55 20.84L26.71 12.68C26.8115 12.5863 26.8925 12.4727 26.9479 12.3462C27.0033 12.2197 27.0319 12.0831 27.0319 11.945C27.0319 11.8069 27.0033 11.6703 26.9479 11.5438C26.8925 11.4173 26.8115 11.3036 26.71 11.21Z" fill="white"/>
</g>
<defs>
<filter id="filter0_d" x="0" y="0" width="40" height="40" filterUnits="userSpaceOnUse" color-interpolation-filters="sRGB">
<feFlood flood-opacity="0" result="BackgroundImageFix"/>
<feColorMatrix in="SourceAlpha" type="matrix" values="0 0 0 0 0 0 0 0 0 0 0 0 0 0 0 0 0 0 127 0"/>
<feOffset dy="4"/>
<feGaussianBlur stdDeviation="4"/>
<feColorMatrix type="matrix" values="0 0 0 0 0.27451 0 0 0 0 0.8 0 0 0 0 0.484706 0 0 0 1 0"/>
<feBlend mode="normal" in2="BackgroundImageFix" result="effect1_dropShadow"/>
<feBlend mode="normal" in="SourceGraphic" in2="effect1_dropShadow" result="shape"/>
</filter>
</defs>
</svg>
